<?xml version="1.0" encoding="utf-8" standalone="no"?>
<!DOCTYPE svg PUBLIC "-//W3C//DTD SVG 1.1//EN"
  "http://www.w3.org/Graphics/SVG/1.1/DTD/svg11.dtd">
<svg xmlns:xlink="http://www.w3.org/1999/xlink" width="829.858437pt" height="374.99375pt" viewBox="0 0 829.858437 374.99375" xmlns="http://www.w3.org/2000/svg" version="1.1">
 <metadata>
  <rdf:RDF xmlns:dc="http://purl.org/dc/elements/1.1/" xmlns:cc="http://creativecommons.org/ns#" xmlns:rdf="http://www.w3.org/1999/02/22-rdf-syntax-ns#">
   <cc:Work>
    <dc:type rdf:resource="http://purl.org/dc/dcmitype/StillImage"/>
    <dc:date>2026-05-22T11:51:52.459525</dc:date>
    <dc:format>image/svg+xml</dc:format>
    <dc:creator>
     <cc:Agent>
      <dc:title>Matplotlib v3.10.9, https://matplotlib.org/</dc:title>
     </cc:Agent>
    </dc:creator>
   </cc:Work>
  </rdf:RDF>
 </metadata>
 <defs>
  <style type="text/css">*{stroke-linejoin: round; stroke-linecap: butt}</style>
 </defs>
 <g id="figure_1">
  <g id="patch_1">
   <path d="M 0 374.99375 
L 829.858437 374.99375 
L 829.858437 0 
L 0 0 
z
" style="fill: #ffffff"/>
  </g>
  <g id="axes_1">
   <g id="patch_2">
    <path d="M 70.228438 329.62625 
L 387.563437 329.62625 
L 387.563437 53.18625 
L 70.228438 53.18625 
z
" style="fill: #f8f9fa"/>
   </g>
   <g id="patch_3">
    <path d="M 84.652756 1316.911964 
L 146.875305 1316.911964 
L 146.875305 121.243145 
L 84.652756 121.243145 
z
" clip-path="url(#p2b27f83b8b)" style="fill: #1565c0; stroke: #ffffff; stroke-linejoin: miter"/>
   </g>
   <g id="patch_4">
    <path d="M 197.784663 1316.911964 
L 260.007212 1316.911964 
L 260.007212 228.659831 
L 197.784663 228.659831 
z
" clip-path="url(#p2b27f83b8b)" style="fill: #78909c; stroke: #ffffff; stroke-linejoin: miter"/>
   </g>
   <g id="patch_5">
    <path d="M 310.91657 1316.911964 
L 373.139119 1316.911964 
L 373.139119 222.077926 
L 310.91657 222.077926 
z
" clip-path="url(#p2b27f83b8b)" style="fill: #78909c; stroke: #ffffff; stroke-linejoin: miter"/>
   </g>
   <g id="matplotlib.axis_1">
    <g id="xtick_1">
     <g id="line2d_1">
      <defs>
       <path id="m97b3091d05" d="M 0 0 
L 0 3.5 
" style="stroke: #333333; stroke-width: 0.8"/>
      </defs>
      <g>
       <use xlink:href="#m97b3091d05" x="115.76403" y="329.62625" style="fill: #333333; stroke: #333333; stroke-width: 0.8"/>
      </g>
     </g>
     <g id="text_1">
      <!-- 随机森林 -->
      <g style="fill: #333333" transform="translate(83.76403 349.41625) scale(0.16 -0.16)">
       <defs>
        <path id="MicrosoftYaHei-968f" d="M 3256 4641 
L 4128 4641 
Q 4247 4963 4331 5291 
L 4756 5172 
Q 4663 4897 4563 4641 
L 6181 4641 
L 6181 4228 
L 4397 4228 
Q 4266 3916 4122 3628 
L 5794 3628 
L 5794 791 
Q 5794 134 5156 134 
L 4569 134 
Q 4563 178 4481 597 
Q 4838 578 5056 578 
Q 5369 578 5369 891 
L 5369 1328 
L 4113 1328 
L 4113 122 
L 3688 122 
L 3688 2841 
Q 3459 2475 3213 2153 
Q 3119 2397 3019 2597 
Q 3600 3394 3963 4228 
L 3256 4228 
L 3256 4641 
z
M 2081 1809 
Q 2225 666 1531 509 
Q 1325 466 969 503 
Q 925 697 844 991 
Q 1163 916 1375 947 
Q 1756 1009 1625 1809 
Q 1531 2241 1075 2772 
Q 1325 3578 1563 4459 
L 831 4459 
L 831 -809 
L 388 -809 
L 388 4909 
L 2025 4909 
L 2025 4459 
Q 1788 3647 1550 2853 
Q 1975 2359 2081 1809 
z
M 3969 -172 
Q 4688 -203 6244 -153 
Q 6144 -409 6063 -647 
Q 4763 -672 3956 -622 
Q 3069 -584 2600 78 
Q 2275 -366 1988 -834 
L 1681 -447 
Q 1891 -131 2444 572 
L 2444 2709 
L 1938 2709 
L 1938 3134 
L 2881 3134 
L 2881 403 
Q 3263 -156 3969 -172 
z
M 4113 1716 
L 5369 1716 
L 5369 2278 
L 4113 2278 
L 4113 1716 
z
M 5369 3228 
L 4113 3228 
L 4113 2666 
L 5369 2666 
L 5369 3228 
z
M 2575 5253 
Q 2881 4491 3044 3959 
Q 2794 3878 2606 3797 
Q 2450 4378 2181 5116 
L 2575 5253 
z
" transform="scale(0.015625)"/>
        <path id="MicrosoftYaHei-673a" d="M 3375 4434 
L 3375 2366 
Q 3375 128 2256 -878 
Q 2081 -666 1888 -453 
Q 2875 416 2875 2253 
L 2875 4909 
L 5200 4909 
L 5200 209 
Q 5200 -103 5419 -103 
L 5563 -103 
Q 5763 -103 5819 247 
Q 5881 728 5906 1284 
Q 6125 1178 6381 1084 
Q 6325 466 6269 72 
Q 6169 -591 5631 -591 
L 5300 -591 
Q 4700 -591 4700 122 
L 4700 4434 
L 3375 4434 
z
M 81 1403 
Q 781 2447 1078 3653 
L 144 3653 
L 144 4078 
L 1119 4078 
L 1119 5309 
L 1569 5309 
L 1569 4078 
L 2444 4078 
L 2444 3653 
L 1569 3653 
L 1569 2616 
L 1819 2866 
Q 2300 2428 2575 2153 
L 2238 1809 
Q 1853 2234 1569 2516 
L 1569 -784 
L 1119 -784 
L 1119 2566 
Q 784 1506 288 853 
Q 188 1134 81 1403 
z
" transform="scale(0.015625)"/>
        <path id="MicrosoftYaHei-68ee" d="M 438 4522 
L 2975 4522 
L 2975 5309 
L 3419 5309 
L 3419 4522 
L 5988 4522 
L 5988 4109 
L 3663 4109 
Q 4806 3297 6306 3097 
Q 6144 2878 6019 2647 
Q 4450 3041 3419 3934 
L 3419 2522 
L 2975 2522 
L 2975 3903 
Q 1775 2997 375 2566 
Q 256 2797 88 3003 
Q 1550 3328 2731 4109 
L 438 4109 
L 438 4522 
z
M 6319 203 
Q 6150 9 6025 -209 
Q 5213 322 4681 1222 
L 4681 -847 
L 4244 -847 
L 4244 1209 
Q 3688 303 2894 -278 
Q 2769 -116 2556 66 
Q 3519 672 4188 1641 
L 3200 1641 
L 3200 2041 
L 4244 2041 
L 4244 2784 
L 4681 2784 
L 4681 2041 
L 6025 2041 
L 6025 1641 
L 4713 1641 
Q 5438 641 6319 203 
z
M 50 84 
Q 806 653 1463 1641 
L 300 1641 
L 300 2041 
L 1494 2041 
L 1494 2803 
L 1931 2803 
L 1931 2041 
L 2988 2041 
L 2988 1641 
L 1931 1641 
L 1931 1241 
L 2069 1403 
Q 2713 934 3000 678 
L 2713 366 
Q 2431 647 1931 1034 
L 1931 -847 
L 1494 -847 
L 1494 1116 
Q 1025 322 356 -272 
Q 188 -47 50 84 
z
" transform="scale(0.015625)"/>
        <path id="MicrosoftYaHei-6797" d="M 2831 3997 
L 4038 3997 
L 4038 5259 
L 4519 5259 
L 4519 3997 
L 6081 3997 
L 6081 3553 
L 4581 3553 
Q 5188 1759 6356 622 
Q 6125 409 5938 178 
Q 5088 1203 4519 2853 
L 4519 -828 
L 4038 -828 
L 4038 2859 
Q 3406 1191 2525 147 
Q 2338 322 2113 503 
Q 3275 1728 3963 3553 
L 2831 3553 
L 2831 3997 
z
M 88 1216 
Q 781 2316 1138 3578 
L 175 3578 
L 175 4016 
L 1181 4016 
L 1181 5259 
L 1656 5259 
L 1656 4016 
L 2550 4016 
L 2550 3578 
L 1656 3578 
L 1656 2828 
L 1850 3009 
Q 2444 2422 2850 1947 
L 2494 1628 
Q 2188 2022 1656 2609 
L 1656 -828 
L 1181 -828 
L 1181 2609 
Q 831 1447 319 622 
Q 244 847 88 1216 
z
" transform="scale(0.015625)"/>
       </defs>
       <use xlink:href="#MicrosoftYaHei-968f"/>
       <use xlink:href="#MicrosoftYaHei-673a" transform="translate(100 0)"/>
       <use xlink:href="#MicrosoftYaHei-68ee" transform="translate(200 0)"/>
       <use xlink:href="#MicrosoftYaHei-6797" transform="translate(300 0)"/>
      </g>
     </g>
    </g>
    <g id="xtick_2">
     <g id="line2d_2">
      <g>
       <use xlink:href="#m97b3091d05" x="228.895937" y="329.62625" style="fill: #333333; stroke: #333333; stroke-width: 0.8"/>
      </g>
     </g>
     <g id="text_2">
      <!-- 决策树 -->
      <g style="fill: #333333" transform="translate(204.895937 349.41625) scale(0.16 -0.16)">
       <defs>
        <path id="MicrosoftYaHei-51b3" d="M 1688 2253 
L 3394 2253 
Q 3450 2803 3456 3716 
L 2050 3716 
L 2050 4166 
L 3459 4166 
Q 3469 4722 3469 5284 
L 3963 5284 
Q 3963 4728 3953 4166 
L 5556 4166 
L 5556 2253 
L 6300 2253 
L 6300 1803 
L 3997 1803 
Q 4563 375 6200 -241 
Q 5950 -516 5769 -741 
Q 4272 22 3700 1391 
Q 3316 6 1650 -853 
Q 1525 -666 1294 -378 
Q 3056 459 3328 1803 
L 1688 1803 
L 1688 2253 
z
M 5075 3716 
L 3947 3716 
Q 3938 2844 3891 2253 
L 5075 2253 
L 5075 3716 
z
M 1013 2578 
Q 1244 2416 1506 2291 
Q 988 841 613 -334 
L 106 -59 
Q 600 1072 1013 2578 
z
M 581 4934 
Q 1200 4316 1675 3784 
L 1250 3397 
Q 744 4047 213 4603 
L 581 4934 
z
" transform="scale(0.015625)"/>
        <path id="MicrosoftYaHei-7b56" d="M 6306 -128 
Q 6094 -397 5969 -591 
Q 4284 122 3438 1069 
L 3438 -841 
L 2975 -841 
L 2975 1053 
Q 1894 6 413 -666 
Q 250 -447 88 -272 
Q 1709 366 2975 1622 
L 2975 2034 
L 1269 2034 
L 1269 828 
L 813 828 
L 813 2422 
L 2975 2422 
L 2975 2928 
L 263 2928 
L 263 3322 
L 2975 3322 
L 2975 3703 
L 3438 3703 
L 3438 3322 
L 6156 3322 
L 6156 2928 
L 3438 2928 
L 3438 2422 
L 5706 2422 
L 5706 1403 
Q 5706 784 5069 784 
Q 4813 784 4513 803 
Q 4488 1047 4438 1272 
Q 4763 1222 4950 1222 
Q 5250 1222 5250 1516 
L 5250 2034 
L 3438 2034 
L 3438 1625 
Q 4619 372 6306 -128 
z
M 1294 5347 
L 1831 5347 
Q 1688 5041 1513 4759 
L 3325 4759 
L 3325 4372 
L 1244 4372 
Q 875 3878 388 3459 
Q 263 3609 75 3797 
Q 856 4428 1294 5347 
z
M 4006 5347 
L 4513 5347 
Q 4375 5031 4231 4759 
L 6225 4759 
L 6225 4372 
L 4013 4372 
Q 3778 3981 3525 3697 
Q 3388 3797 3088 3934 
Q 3663 4553 4006 5347 
z
M 4781 3416 
Q 4644 3628 4263 4072 
L 4588 4303 
Q 4919 3991 5150 3697 
L 4781 3416 
z
M 1988 3416 
Q 1750 3728 1469 4053 
L 1794 4284 
Q 2094 3997 2356 3697 
L 1988 3416 
z
" transform="scale(0.015625)"/>
        <path id="MicrosoftYaHei-6811" d="M 2463 3466 
Q 2816 2872 3147 2309 
Q 3453 3178 3531 4216 
L 2056 4216 
L 2056 4666 
L 4013 4666 
L 4013 4253 
Q 3878 2888 3444 1803 
Q 3888 1041 4288 334 
L 3850 53 
Q 3528 672 3203 1272 
Q 2728 328 1994 -372 
Q 1881 -184 1700 66 
Q 2475 800 2928 1772 
Q 2513 2522 2088 3234 
L 2463 3466 
z
M 50 1359 
Q 619 2306 925 3616 
L 144 3616 
L 144 4041 
L 963 4041 
L 963 5316 
L 1413 5316 
L 1413 4041 
L 2088 4041 
L 2088 3616 
L 1413 3616 
L 1413 2625 
L 1644 2841 
Q 1975 2528 2275 2209 
L 1963 1909 
Q 1706 2231 1413 2528 
L 1413 -847 
L 963 -847 
L 963 2544 
Q 650 1441 244 816 
Q 169 1084 50 1359 
z
M 4125 4003 
L 5263 4003 
L 5263 5284 
L 5725 5284 
L 5725 4003 
L 6319 4003 
L 6319 3566 
L 5725 3566 
L 5725 53 
Q 5725 -722 4963 -722 
Q 4738 -722 4294 -716 
Q 4269 -497 4200 -203 
Q 4613 -247 4869 -247 
Q 5263 -247 5263 109 
L 5263 3566 
L 4125 3566 
L 4125 4003 
z
M 3950 2747 
L 4331 2934 
Q 4650 2309 4919 1672 
L 4513 1466 
Q 4231 2191 3950 2747 
z
" transform="scale(0.015625)"/>
       </defs>
       <use xlink:href="#MicrosoftYaHei-51b3"/>
       <use xlink:href="#MicrosoftYaHei-7b56" transform="translate(100 0)"/>
       <use xlink:href="#MicrosoftYaHei-6811" transform="translate(200 0)"/>
      </g>
     </g>
    </g>
    <g id="xtick_3">
     <g id="line2d_3">
      <g>
       <use xlink:href="#m97b3091d05" x="342.027845" y="329.62625" style="fill: #333333; stroke: #333333; stroke-width: 0.8"/>
      </g>
     </g>
     <g id="text_3">
      <!-- KNN (k=5) -->
      <g style="fill: #333333" transform="translate(301.249095 349.41625) scale(0.16 -0.16)">
       <defs>
        <path id="MicrosoftYaHei-4b" d="M 4069 0 
L 3213 0 
L 1394 2200 
Q 1300 2316 1266 2381 
L 1250 2381 
L 1250 0 
L 625 0 
L 625 4841 
L 1250 4841 
L 1250 2563 
L 1266 2563 
Q 1319 2647 1394 2741 
L 3150 4841 
L 3922 4841 
L 1891 2519 
L 4069 0 
z
" transform="scale(0.015625)"/>
        <path id="MicrosoftYaHei-4e" d="M 4578 0 
L 3838 0 
L 1403 3766 
Q 1300 3925 1238 4081 
L 1219 4081 
Q 1244 3919 1244 3403 
L 1244 0 
L 625 0 
L 625 4841 
L 1409 4841 
L 3778 1141 
Q 3947 878 3978 806 
L 3991 806 
Q 3959 1013 3959 1513 
L 3959 4841 
L 4578 4841 
L 4578 0 
z
" transform="scale(0.015625)"/>
        <path id="MicrosoftYaHei-20" transform="scale(0.015625)"/>
        <path id="MicrosoftYaHei-28" d="M 1531 -1100 
Q 478 100 478 1847 
Q 478 3594 1531 4841 
L 2072 4841 
Q 1016 3544 1016 1853 
Q 1016 166 2066 -1100 
L 1531 -1100 
z
" transform="scale(0.015625)"/>
        <path id="MicrosoftYaHei-6b" d="M 3484 0 
L 2650 0 
L 1172 1666 
L 1159 1666 
L 1159 0 
L 547 0 
L 547 5116 
L 1159 5116 
L 1159 1872 
L 1172 1872 
L 2575 3456 
L 3363 3456 
L 1800 1794 
L 3484 0 
z
" transform="scale(0.015625)"/>
        <path id="MicrosoftYaHei-3d" d="M 3972 2497 
L 788 2497 
L 788 2969 
L 3972 2969 
L 3972 2497 
z
M 3972 1053 
L 788 1053 
L 788 1525 
L 3972 1525 
L 3972 1053 
z
" transform="scale(0.015625)"/>
        <path id="MicrosoftYaHei-35" d="M 3294 1494 
Q 3294 784 2823 350 
Q 2353 -84 1559 -84 
Q 878 -84 544 119 
L 544 744 
Q 1034 425 1544 425 
Q 2050 425 2361 704 
Q 2672 984 2672 1447 
Q 2672 1909 2348 2167 
Q 2025 2425 1434 2425 
Q 978 2425 613 2384 
L 791 4841 
L 3053 4841 
L 3053 4303 
L 1306 4303 
L 1206 2931 
L 1647 2950 
Q 2416 2950 2855 2567 
Q 3294 2184 3294 1494 
z
" transform="scale(0.015625)"/>
        <path id="MicrosoftYaHei-29" d="M 78 -1100 
Q 1131 163 1131 1853 
Q 1131 3547 72 4841 
L 616 4841 
Q 1672 3603 1672 1847 
Q 1672 91 616 -1100 
L 78 -1100 
z
" transform="scale(0.015625)"/>
       </defs>
       <use xlink:href="#MicrosoftYaHei-4b"/>
       <use xlink:href="#MicrosoftYaHei-4e" transform="translate(63.476562 0)"/>
       <use xlink:href="#MicrosoftYaHei-4e" transform="translate(144.775391 0)"/>
       <use xlink:href="#MicrosoftYaHei-20" transform="translate(226.074219 0)"/>
       <use xlink:href="#MicrosoftYaHei-28" transform="translate(255.664062 0)"/>
       <use xlink:href="#MicrosoftYaHei-6b" transform="translate(289.0625 0)"/>
       <use xlink:href="#MicrosoftYaHei-3d" transform="translate(343.505859 0)"/>
       <use xlink:href="#MicrosoftYaHei-35" transform="translate(417.675781 0)"/>
       <use xlink:href="#MicrosoftYaHei-29" transform="translate(476.318359 0)"/>
      </g>
     </g>
    </g>
   </g>
   <g id="matplotlib.axis_2">
    <g id="ytick_1">
     <g id="line2d_4">
      <path d="M 70.228438 329.62625 
L 387.563437 329.62625 
" clip-path="url(#p2b27f83b8b)" style="fill: none; stroke: #cccccc; stroke-opacity: 0.3; stroke-width: 0.8; stroke-linecap: square"/>
     </g>
     <g id="line2d_5">
      <defs>
       <path id="m10318497fe" d="M 0 0 
L -3.5 0 
" style="stroke: #333333; stroke-width: 0.8"/>
      </defs>
      <g>
       <use xlink:href="#m10318497fe" x="70.228438" y="329.62625" style="fill: #333333; stroke: #333333; stroke-width: 0.8"/>
      </g>
     </g>
     <g id="text_4">
      <!-- 75 -->
      <g style="fill: #333333" transform="translate(44.463438 336.02125) scale(0.16 -0.16)">
       <defs>
        <path id="MicrosoftYaHei-37" d="M 3422 4463 
Q 2659 3131 2223 1998 
Q 1788 866 1684 0 
L 1047 0 
Q 1163 853 1594 1947 
Q 2025 3041 2747 4300 
L 347 4300 
L 347 4841 
L 3422 4841 
L 3422 4463 
z
" transform="scale(0.015625)"/>
       </defs>
       <use xlink:href="#MicrosoftYaHei-37"/>
       <use xlink:href="#MicrosoftYaHei-35" transform="translate(58.642578 0)"/>
      </g>
     </g>
    </g>
    <g id="ytick_2">
     <g id="line2d_6">
      <path d="M 70.228438 263.807202 
L 387.563437 263.807202 
" clip-path="url(#p2b27f83b8b)" style="fill: none; stroke: #cccccc; stroke-opacity: 0.3; stroke-width: 0.8; stroke-linecap: square"/>
     </g>
     <g id="line2d_7">
      <g>
       <use xlink:href="#m10318497fe" x="70.228438" y="263.807202" style="fill: #333333; stroke: #333333; stroke-width: 0.8"/>
      </g>
     </g>
     <g id="text_5">
      <!-- 80 -->
      <g style="fill: #333333" transform="translate(44.463438 270.202202) scale(0.16 -0.16)">
       <defs>
        <path id="MicrosoftYaHei-38" d="M 306 1350 
Q 306 1769 556 2122 
Q 806 2475 1200 2625 
Q 884 2803 700 3081 
Q 516 3359 516 3684 
Q 516 4028 692 4312 
Q 869 4597 1183 4759 
Q 1497 4922 1875 4922 
Q 2256 4922 2572 4761 
Q 2888 4600 3063 4315 
Q 3238 4031 3238 3684 
Q 3238 3366 3058 3086 
Q 2878 2806 2559 2625 
Q 2953 2472 3200 2119 
Q 3447 1766 3447 1350 
Q 3447 938 3250 611 
Q 3053 284 2690 103 
Q 2328 -78 1875 -78 
Q 1425 -78 1065 103 
Q 706 284 506 612 
Q 306 941 306 1350 
z
M 906 1378 
Q 906 947 1172 687 
Q 1438 428 1878 428 
Q 2309 428 2582 692 
Q 2856 956 2856 1378 
Q 2856 1778 2579 2051 
Q 2303 2325 1878 2325 
Q 1456 2325 1181 2058 
Q 906 1791 906 1378 
z
M 1081 3634 
Q 1081 3309 1312 3076 
Q 1544 2844 1878 2844 
Q 2206 2844 2445 3078 
Q 2684 3313 2684 3634 
Q 2684 3963 2454 4191 
Q 2225 4419 1878 4419 
Q 1534 4419 1307 4195 
Q 1081 3972 1081 3634 
z
" transform="scale(0.015625)"/>
        <path id="MicrosoftYaHei-30" d="M 284 2325 
Q 284 3606 709 4264 
Q 1134 4922 1941 4922 
Q 3478 4922 3478 2441 
Q 3478 1216 3045 567 
Q 2613 -81 1831 -81 
Q 1094 -81 689 534 
Q 284 1150 284 2325 
z
M 909 2353 
Q 909 425 1888 425 
Q 2850 425 2850 2384 
Q 2850 4413 1906 4413 
Q 909 4413 909 2353 
z
" transform="scale(0.015625)"/>
       </defs>
       <use xlink:href="#MicrosoftYaHei-38"/>
       <use xlink:href="#MicrosoftYaHei-30" transform="translate(58.642578 0)"/>
      </g>
     </g>
    </g>
    <g id="ytick_3">
     <g id="line2d_8">
      <path d="M 70.228438 197.988155 
L 387.563437 197.988155 
" clip-path="url(#p2b27f83b8b)" style="fill: none; stroke: #cccccc; stroke-opacity: 0.3; stroke-width: 0.8; stroke-linecap: square"/>
     </g>
     <g id="line2d_9">
      <g>
       <use xlink:href="#m10318497fe" x="70.228438" y="197.988155" style="fill: #333333; stroke: #333333; stroke-width: 0.8"/>
      </g>
     </g>
     <g id="text_6">
      <!-- 85 -->
      <g style="fill: #333333" transform="translate(44.463438 204.383155) scale(0.16 -0.16)">
       <use xlink:href="#MicrosoftYaHei-38"/>
       <use xlink:href="#MicrosoftYaHei-35" transform="translate(58.642578 0)"/>
      </g>
     </g>
    </g>
    <g id="ytick_4">
     <g id="line2d_10">
      <path d="M 70.228438 132.169107 
L 387.563437 132.169107 
" clip-path="url(#p2b27f83b8b)" style="fill: none; stroke: #cccccc; stroke-opacity: 0.3; stroke-width: 0.8; stroke-linecap: square"/>
     </g>
     <g id="line2d_11">
      <g>
       <use xlink:href="#m10318497fe" x="70.228438" y="132.169107" style="fill: #333333; stroke: #333333; stroke-width: 0.8"/>
      </g>
     </g>
     <g id="text_7">
      <!-- 90 -->
      <g style="fill: #333333" transform="translate(44.463438 138.564107) scale(0.16 -0.16)">
       <defs>
        <path id="MicrosoftYaHei-39" d="M 578 656 
Q 978 425 1441 425 
Q 2091 425 2448 937 
Q 2806 1450 2806 2394 
Q 2800 2388 2794 2394 
Q 2475 1788 1722 1788 
Q 1113 1788 713 2206 
Q 313 2625 313 3294 
Q 313 4006 750 4464 
Q 1188 4922 1884 4922 
Q 2606 4922 3012 4355 
Q 3419 3788 3419 2703 
Q 3419 1363 2894 641 
Q 2369 -81 1441 -81 
Q 931 -81 578 84 
L 578 656 
z
M 931 3372 
Q 931 2884 1181 2598 
Q 1431 2313 1872 2313 
Q 2253 2313 2512 2573 
Q 2772 2834 2772 3206 
Q 2772 3728 2514 4070 
Q 2256 4413 1834 4413 
Q 1444 4413 1187 4116 
Q 931 3819 931 3372 
z
" transform="scale(0.015625)"/>
       </defs>
       <use xlink:href="#MicrosoftYaHei-39"/>
       <use xlink:href="#MicrosoftYaHei-30" transform="translate(58.642578 0)"/>
      </g>
     </g>
    </g>
    <g id="ytick_5">
     <g id="line2d_12">
      <path d="M 70.228438 66.35006 
L 387.563437 66.35006 
" clip-path="url(#p2b27f83b8b)" style="fill: none; stroke: #cccccc; stroke-opacity: 0.3; stroke-width: 0.8; stroke-linecap: square"/>
     </g>
     <g id="line2d_13">
      <g>
       <use xlink:href="#m10318497fe" x="70.228438" y="66.35006" style="fill: #333333; stroke: #333333; stroke-width: 0.8"/>
      </g>
     </g>
     <g id="text_8">
      <!-- 95 -->
      <g style="fill: #333333" transform="translate(44.463438 72.74506) scale(0.16 -0.16)">
       <use xlink:href="#MicrosoftYaHei-39"/>
       <use xlink:href="#MicrosoftYaHei-35" transform="translate(58.642578 0)"/>
      </g>
     </g>
    </g>
    <g id="text_9">
     <!-- 准确率 (%) -->
     <g style="fill: #222222" transform="translate(35.98875 235.09) rotate(-90) scale(0.18 -0.18)">
      <defs>
       <path id="MicrosoftYaHei-51c6" d="M 1413 2766 
Q 2313 3866 2869 5334 
L 3331 5172 
Q 3128 4694 2906 4253 
L 6194 4253 
L 6194 3822 
L 4675 3822 
L 4675 2891 
L 6025 2891 
L 6025 2459 
L 4675 2459 
L 4675 1528 
L 6038 1528 
L 6038 1097 
L 4675 1097 
L 4675 78 
L 6275 78 
L 6275 -341 
L 2769 -341 
L 2769 -841 
L 2281 -841 
L 2281 3131 
Q 2034 2738 1769 2384 
Q 1631 2578 1413 2766 
z
M 2769 78 
L 4188 78 
L 4188 1097 
L 2769 1097 
L 2769 78 
z
M 1081 2422 
Q 1325 2291 1556 2209 
Q 1113 916 681 -372 
L 169 -141 
Q 650 1003 1081 2422 
z
M 2769 1528 
L 4188 1528 
L 4188 2459 
L 2769 2459 
L 2769 1528 
z
M 2769 2891 
L 4188 2891 
L 4188 3822 
L 2769 3822 
L 2769 2891 
z
M 531 4991 
Q 1050 4384 1581 3709 
Q 1538 3678 1150 3341 
Q 681 3997 138 4672 
L 531 4991 
z
M 3919 5116 
L 4325 5372 
Q 4569 5072 4881 4622 
L 4450 4334 
Q 4156 4784 3919 5116 
z
" transform="scale(0.015625)"/>
       <path id="MicrosoftYaHei-786e" d="M 2075 3453 
Q 2956 4334 3456 5359 
L 3931 5272 
Q 3781 4991 3619 4722 
L 5438 4722 
L 5438 4328 
L 4909 3666 
L 6063 3666 
L 6063 -53 
Q 6063 -728 5475 -728 
Q 5144 -728 4906 -716 
Q 4869 -497 4813 -259 
Q 5156 -291 5331 -291 
Q 5619 -291 5619 16 
L 5619 734 
L 4588 734 
L 4588 -659 
L 4144 -659 
L 4144 734 
L 3113 734 
Q 2944 -263 2444 -884 
Q 2288 -703 2081 -509 
Q 2756 291 2756 1841 
L 2756 3506 
Q 2597 3316 2431 3134 
Q 2281 3278 2075 3453 
z
M 31 1691 
Q 741 2834 1066 4291 
L 231 4291 
L 231 4716 
L 2469 4716 
L 2469 4291 
L 1509 4291 
Q 1356 3613 1128 2991 
L 2200 2991 
L 2200 128 
L 1150 128 
L 1150 -347 
L 738 -347 
L 738 2059 
Q 559 1691 350 1347 
Q 225 1497 31 1691 
z
M 1788 541 
L 1788 2578 
L 1150 2578 
L 1150 541 
L 1788 541 
z
M 4875 4322 
L 3366 4322 
Q 3138 3981 2884 3666 
L 4384 3666 
L 4875 4322 
z
M 4588 1134 
L 5619 1134 
L 5619 1991 
L 4588 1991 
L 4588 1134 
z
M 5619 3241 
L 4588 3241 
L 4588 2391 
L 5619 2391 
L 5619 3241 
z
M 3166 1134 
L 4144 1134 
L 4144 1991 
L 3200 1991 
Q 3200 1841 3166 1134 
z
M 3200 2391 
L 4144 2391 
L 4144 3241 
L 3200 3241 
L 3200 2391 
z
" transform="scale(0.015625)"/>
       <path id="MicrosoftYaHei-7387" d="M 2525 2009 
Q 2622 2016 3928 2081 
Q 3772 2300 3625 2491 
L 3963 2703 
Q 4413 2203 4794 1653 
L 4394 1403 
Q 4284 1569 4178 1725 
Q 2991 1659 2213 1597 
Q 2075 1584 1881 1541 
L 1725 1966 
Q 1913 2028 2006 2084 
Q 2534 2441 3050 2913 
Q 2597 2894 2275 2866 
Q 2144 2847 1988 2809 
L 1800 3191 
Q 1956 3247 2088 3366 
Q 2509 3722 2875 4228 
L 231 4228 
L 231 4666 
L 3031 4666 
Q 2878 4944 2744 5153 
L 3194 5372 
Q 3438 5000 3616 4666 
L 6175 4666 
L 6175 4228 
L 3053 4228 
L 3350 4072 
Q 2844 3553 2494 3247 
Q 2850 3256 3425 3269 
Q 3675 3519 3925 3797 
L 4356 3547 
Q 3363 2603 2525 2009 
z
M 144 991 
L 2994 991 
L 2994 1541 
L 3488 1541 
L 3488 991 
L 6275 991 
L 6275 553 
L 3488 553 
L 3488 -853 
L 2994 -853 
L 2994 553 
L 144 553 
L 144 991 
z
M 1719 2672 
L 1944 2303 
Q 1200 1866 425 1409 
L 163 1828 
Q 813 2134 1719 2672 
z
M 4856 2678 
Q 5750 2172 6250 1816 
L 5975 1409 
Q 5331 1909 4600 2341 
L 4856 2678 
z
M 5994 3591 
Q 5519 3178 4963 2809 
L 4644 3141 
Q 5244 3534 5638 3928 
L 5994 3591 
z
M 363 3634 
L 681 3941 
Q 1200 3528 1588 3159 
L 1238 2816 
Q 875 3197 363 3634 
z
" transform="scale(0.015625)"/>
       <path id="MicrosoftYaHei-25" d="M 272 3619 
Q 272 4213 589 4563 
Q 906 4913 1444 4913 
Q 1959 4913 2248 4591 
Q 2538 4269 2538 3694 
Q 2538 3122 2219 2765 
Q 1900 2409 1372 2409 
Q 872 2409 572 2740 
Q 272 3072 272 3619 
z
M 753 3650 
Q 753 3247 928 3028 
Q 1103 2809 1406 2809 
Q 1719 2809 1889 3036 
Q 2059 3263 2059 3675 
Q 2059 4078 1892 4298 
Q 1725 4519 1422 4519 
Q 1113 4519 933 4289 
Q 753 4059 753 3650 
z
M 4647 4841 
L 1538 -31 
L 1016 -31 
L 4125 4841 
L 4647 4841 
z
M 3172 1134 
Q 3172 1728 3489 2083 
Q 3806 2438 4341 2438 
Q 4853 2438 5143 2114 
Q 5434 1791 5434 1203 
Q 5434 634 5112 279 
Q 4791 -75 4272 -75 
Q 3769 -75 3470 261 
Q 3172 597 3172 1134 
z
M 3650 1163 
Q 3650 769 3825 548 
Q 4000 328 4303 328 
Q 4616 328 4786 556 
Q 4956 784 4956 1194 
Q 4956 1600 4786 1815 
Q 4616 2031 4319 2031 
Q 4000 2031 3825 1801 
Q 3650 1572 3650 1163 
z
" transform="scale(0.015625)"/>
      </defs>
      <use xlink:href="#MicrosoftYaHei-51c6"/>
      <use xlink:href="#MicrosoftYaHei-786e" transform="translate(100 0)"/>
      <use xlink:href="#MicrosoftYaHei-7387" transform="translate(200 0)"/>
      <use xlink:href="#MicrosoftYaHei-20" transform="translate(300 0)"/>
      <use xlink:href="#MicrosoftYaHei-28" transform="translate(329.589844 0)"/>
      <use xlink:href="#MicrosoftYaHei-25" transform="translate(362.988281 0)"/>
      <use xlink:href="#MicrosoftYaHei-29" transform="translate(451.953125 0)"/>
     </g>
    </g>
   </g>
   <g id="patch_6">
    <path d="M 70.228438 329.62625 
L 70.228438 53.18625 
" style="fill: none; stroke: #333333; stroke-width: 0.8; stroke-linejoin: miter; stroke-linecap: square"/>
   </g>
   <g id="patch_7">
    <path d="M 387.563437 329.62625 
L 387.563437 53.18625 
" style="fill: none; stroke: #333333; stroke-width: 0.8; stroke-linejoin: miter; stroke-linecap: square"/>
   </g>
   <g id="patch_8">
    <path d="M 70.228438 329.62625 
L 387.563437 329.62625 
" style="fill: none; stroke: #333333; stroke-width: 0.8; stroke-linejoin: miter; stroke-linecap: square"/>
   </g>
   <g id="patch_9">
    <path d="M 70.228438 53.18625 
L 387.563437 53.18625 
" style="fill: none; stroke: #333333; stroke-width: 0.8; stroke-linejoin: miter; stroke-linecap: square"/>
   </g>
   <g id="text_10">
    <!-- 90.83% -->
    <g style="fill: #222222" transform="translate(82.611686 106.23741) scale(0.18 -0.18)">
     <defs>
      <path id="MicrosoftYaHei-Bold-39" d="M 544 941 
Q 931 691 1456 691 
Q 2628 691 2653 2216 
L 2634 2222 
Q 2316 1731 1650 1731 
Q 1047 1731 658 2154 
Q 269 2578 269 3222 
Q 269 3978 737 4450 
Q 1206 4922 1959 4922 
Q 2744 4922 3191 4325 
Q 3638 3728 3638 2659 
Q 3638 1391 3098 653 
Q 2559 -84 1547 -84 
Q 975 -84 544 100 
L 544 941 
z
M 1259 3313 
Q 1259 2928 1445 2709 
Q 1631 2491 1953 2491 
Q 2241 2491 2427 2700 
Q 2613 2909 2613 3219 
Q 2613 3591 2427 3869 
Q 2241 4147 1928 4147 
Q 1625 4147 1442 3906 
Q 1259 3666 1259 3313 
z
" transform="scale(0.015625)"/>
      <path id="MicrosoftYaHei-Bold-30" d="M 244 2341 
Q 244 3597 706 4259 
Q 1169 4922 2044 4922 
Q 3713 4922 3713 2453 
Q 3713 1238 3259 577 
Q 2806 -84 1950 -84 
Q 244 -84 244 2341 
z
M 1266 2366 
Q 1266 691 1981 691 
Q 2684 691 2684 2416 
Q 2684 4147 2000 4147 
Q 1266 4147 1266 2366 
z
" transform="scale(0.015625)"/>
      <path id="MicrosoftYaHei-Bold-2e" d="M 313 453 
Q 313 688 491 838 
Q 669 988 916 988 
Q 1166 988 1337 834 
Q 1509 681 1509 453 
Q 1509 213 1337 64 
Q 1166 -84 903 -84 
Q 659 -84 486 69 
Q 313 222 313 453 
z
" transform="scale(0.015625)"/>
      <path id="MicrosoftYaHei-Bold-38" d="M 269 1303 
Q 269 1725 512 2053 
Q 756 2381 1219 2534 
Q 850 2719 648 3003 
Q 447 3288 447 3634 
Q 447 3997 645 4292 
Q 844 4588 1200 4755 
Q 1556 4922 1997 4922 
Q 2441 4922 2800 4758 
Q 3159 4594 3359 4298 
Q 3559 4003 3559 3647 
Q 3559 3309 3339 3018 
Q 3119 2728 2747 2559 
Q 3200 2403 3453 2076 
Q 3706 1750 3706 1313 
Q 3706 697 3228 309 
Q 2750 -78 1988 -78 
Q 1225 -78 747 309 
Q 269 697 269 1303 
z
M 1278 1394 
Q 1278 1056 1472 853 
Q 1666 650 1991 650 
Q 2303 650 2503 853 
Q 2703 1056 2703 1394 
Q 2703 1709 2500 1920 
Q 2297 2131 1991 2131 
Q 1675 2131 1476 1920 
Q 1278 1709 1278 1394 
z
M 1428 3531 
Q 1428 3266 1592 3077 
Q 1756 2888 2006 2888 
Q 2247 2888 2415 3072 
Q 2584 3256 2584 3531 
Q 2584 3806 2420 3997 
Q 2256 4188 2006 4188 
Q 1750 4188 1589 3997 
Q 1428 3806 1428 3531 
z
" transform="scale(0.015625)"/>
      <path id="MicrosoftYaHei-Bold-33" d="M 494 1053 
Q 978 691 1625 691 
Q 2034 691 2275 872 
Q 2516 1053 2516 1388 
Q 2516 1731 2230 1912 
Q 1944 2094 1428 2094 
L 997 2094 
L 997 2872 
L 1394 2872 
Q 2369 2872 2369 3528 
Q 2369 4147 1622 4147 
Q 1134 4147 675 3828 
L 675 4663 
Q 1175 4922 1853 4922 
Q 2541 4922 2969 4605 
Q 3397 4288 3397 3725 
Q 3397 2775 2434 2531 
L 2434 2516 
Q 2941 2459 3244 2145 
Q 3547 1831 3547 1381 
Q 3547 691 3042 303 
Q 2538 -84 1697 -84 
Q 950 -84 494 163 
L 494 1053 
z
" transform="scale(0.015625)"/>
      <path id="MicrosoftYaHei-Bold-25" d="M 297 3597 
Q 297 4191 626 4548 
Q 956 4906 1519 4906 
Q 2056 4906 2354 4581 
Q 2653 4256 2653 3684 
Q 2653 3097 2322 2744 
Q 1991 2391 1438 2391 
Q 919 2391 608 2722 
Q 297 3053 297 3597 
z
M 984 3631 
Q 984 2959 1478 2959 
Q 1981 2959 1981 3659 
Q 1981 4338 1500 4338 
Q 984 4338 984 3631 
z
M 4938 4841 
L 1791 -3 
L 1006 -3 
L 4147 4841 
L 4938 4841 
z
M 3297 1141 
Q 3297 1741 3631 2095 
Q 3966 2450 4522 2450 
Q 5059 2450 5357 2131 
Q 5656 1813 5656 1234 
Q 5656 641 5322 286 
Q 4988 -69 4438 -69 
Q 3922 -69 3609 264 
Q 3297 597 3297 1141 
z
M 3981 1175 
Q 3981 500 4478 500 
Q 4978 500 4978 1200 
Q 4978 1528 4845 1704 
Q 4713 1881 4491 1881 
Q 3981 1881 3981 1175 
z
" transform="scale(0.015625)"/>
     </defs>
     <use xlink:href="#MicrosoftYaHei-Bold-39"/>
     <use xlink:href="#MicrosoftYaHei-Bold-30" transform="translate(61.669922 0)"/>
     <use xlink:href="#MicrosoftYaHei-Bold-2e" transform="translate(123.339844 0)"/>
     <use xlink:href="#MicrosoftYaHei-Bold-38" transform="translate(151.904297 0)"/>
     <use xlink:href="#MicrosoftYaHei-Bold-33" transform="translate(213.574219 0)"/>
     <use xlink:href="#MicrosoftYaHei-Bold-25" transform="translate(275.244141 0)"/>
    </g>
   </g>
   <g id="text_11">
    <!-- 82.67% -->
    <g style="fill: #222222" transform="translate(195.743594 213.654096) scale(0.18 -0.18)">
     <defs>
      <path id="MicrosoftYaHei-Bold-32" d="M 1500 841 
L 3553 841 
L 3553 0 
L 334 0 
L 334 359 
Q 334 738 473 1050 
Q 613 1363 856 1633 
Q 1100 1903 1613 2266 
Q 2081 2616 2268 2886 
Q 2456 3156 2456 3459 
Q 2456 4113 1744 4113 
Q 1119 4113 550 3613 
L 550 4513 
Q 1184 4922 1975 4922 
Q 2700 4922 3122 4551 
Q 3544 4181 3544 3531 
Q 3544 3169 3422 2876 
Q 3300 2584 3069 2328 
Q 2838 2072 2328 1713 
Q 1838 1363 1669 1172 
Q 1500 981 1500 841 
z
" transform="scale(0.015625)"/>
      <path id="MicrosoftYaHei-Bold-36" d="M 3378 3938 
Q 3009 4147 2575 4147 
Q 2016 4147 1680 3708 
Q 1344 3269 1344 2572 
L 1363 2572 
Q 1709 3103 2391 3103 
Q 3000 3103 3358 2686 
Q 3716 2269 3716 1600 
Q 3716 869 3250 392 
Q 2784 -84 2059 -84 
Q 1228 -84 786 516 
Q 344 1116 344 2159 
Q 344 3388 917 4155 
Q 1491 4922 2513 4922 
Q 3063 4922 3378 4791 
L 3378 3938 
z
M 1378 1591 
Q 1378 1216 1565 953 
Q 1753 691 2059 691 
Q 2369 691 2547 931 
Q 2725 1172 2725 1534 
Q 2725 2350 2053 2350 
Q 1750 2350 1564 2134 
Q 1378 1919 1378 1591 
z
" transform="scale(0.015625)"/>
      <path id="MicrosoftYaHei-Bold-37" d="M 3675 4225 
Q 3088 3172 2798 2528 
Q 2509 1884 2328 1275 
Q 2147 666 2050 0 
L 966 0 
Q 1122 947 1517 1917 
Q 1913 2888 2609 4009 
L 300 4009 
L 300 4841 
L 3675 4841 
L 3675 4225 
z
" transform="scale(0.015625)"/>
     </defs>
     <use xlink:href="#MicrosoftYaHei-Bold-38"/>
     <use xlink:href="#MicrosoftYaHei-Bold-32" transform="translate(61.669922 0)"/>
     <use xlink:href="#MicrosoftYaHei-Bold-2e" transform="translate(123.339844 0)"/>
     <use xlink:href="#MicrosoftYaHei-Bold-36" transform="translate(151.904297 0)"/>
     <use xlink:href="#MicrosoftYaHei-Bold-37" transform="translate(213.574219 0)"/>
     <use xlink:href="#MicrosoftYaHei-Bold-25" transform="translate(275.244141 0)"/>
    </g>
   </g>
   <g id="text_12">
    <!-- 83.17% -->
    <g style="fill: #222222" transform="translate(308.875501 207.072191) scale(0.18 -0.18)">
     <defs>
      <path id="MicrosoftYaHei-Bold-31" d="M 2716 4947 
L 2716 0 
L 1700 0 
L 1700 3809 
Q 1513 3647 1188 3517 
Q 863 3388 591 3356 
L 591 4222 
Q 1447 4472 2072 4947 
L 2716 4947 
z
" transform="scale(0.015625)"/>
     </defs>
     <use xlink:href="#MicrosoftYaHei-Bold-38"/>
     <use xlink:href="#MicrosoftYaHei-Bold-33" transform="translate(61.669922 0)"/>
     <use xlink:href="#MicrosoftYaHei-Bold-2e" transform="translate(123.339844 0)"/>
     <use xlink:href="#MicrosoftYaHei-Bold-31" transform="translate(151.904297 0)"/>
     <use xlink:href="#MicrosoftYaHei-Bold-37" transform="translate(213.574219 0)"/>
     <use xlink:href="#MicrosoftYaHei-Bold-25" transform="translate(275.244141 0)"/>
    </g>
   </g>
   <g id="text_13">
    <!-- 测试集准确率对比 -->
    <g style="fill: #222222" transform="translate(140.895937 39.18625) scale(0.22 -0.22)">
     <defs>
      <path id="MicrosoftYaHei-Bold-6d4b" d="M 1706 1084 
L 1706 4475 
L 1144 3866 
Q 738 4272 238 4709 
L 750 5284 
Q 1191 4966 1706 4513 
L 1706 5016 
L 4113 5016 
L 4113 1116 
L 3463 1116 
L 3463 4328 
L 2356 4328 
L 2356 1084 
L 1706 1084 
z
M 5344 5234 
L 6069 5234 
L 6069 59 
Q 6069 -272 5926 -465 
Q 5784 -659 5550 -707 
Q 5316 -756 4600 -747 
Q 4550 -328 4406 128 
Q 4750 91 5063 91 
Q 5344 91 5344 428 
L 5344 5234 
z
M 4406 4772 
L 5044 4772 
L 5044 591 
L 4406 591 
L 4406 4772 
z
M 2619 3903 
L 3194 3903 
L 3194 2297 
Q 3194 1259 2953 609 
L 3369 934 
Q 3900 384 4350 -134 
L 3731 -622 
Q 3338 -56 2900 478 
Q 2613 -209 1900 -841 
Q 1613 -428 1369 -166 
Q 2081 331 2350 920 
Q 2619 1509 2619 2428 
L 2619 3903 
z
M 600 3622 
Q 1088 3266 1588 2834 
L 1025 2159 
Q 656 2516 88 3028 
L 600 3622 
z
M 813 1834 
Q 1256 1647 1594 1541 
L 1000 -822 
Q 556 -659 200 -566 
Q 525 466 813 1834 
z
" transform="scale(0.015625)"/>
      <path id="MicrosoftYaHei-Bold-8bd5" d="M 1800 4116 
L 4075 4116 
L 4050 5309 
L 4900 5309 
L 4916 4116 
L 5531 4116 
Q 5141 4644 4944 4859 
L 5469 5272 
Q 5881 4841 6163 4491 
L 5678 4116 
L 6250 4116 
L 6250 3291 
L 4944 3291 
Q 4984 2300 5059 1623 
Q 5134 947 5218 592 
Q 5303 238 5334 183 
Q 5366 128 5419 128 
Q 5528 156 5613 1116 
Q 6038 947 6344 853 
Q 6213 -203 5994 -531 
Q 5775 -859 5406 -859 
Q 5019 -859 4773 -604 
Q 4528 -350 4362 459 
Q 4197 1269 4106 3291 
L 1800 3291 
L 1800 4116 
z
M 931 5259 
Q 1356 4697 1725 4116 
L 994 3672 
Q 663 4278 256 4859 
L 931 5259 
z
M 1894 2641 
L 3950 2641 
L 3950 1828 
L 3338 1828 
L 3338 522 
L 4088 634 
Q 4063 41 4075 -234 
Q 3675 -291 1956 -578 
L 1838 -41 
Q 1256 -469 919 -803 
L 469 -191 
Q 631 16 631 334 
L 631 2528 
L 100 2528 
L 100 3341 
L 1456 3341 
L 1456 703 
Q 1706 891 2044 1122 
Q 2053 956 2134 350 
L 2513 403 
L 2513 1828 
L 1894 1828 
L 1894 2641 
z
" transform="scale(0.015625)"/>
      <path id="MicrosoftYaHei-Bold-96c6" d="M 3613 5359 
Q 3778 5066 3931 4734 
L 5963 4734 
L 5963 4197 
L 3875 4197 
L 3875 3866 
L 5738 3866 
L 5738 3366 
L 3875 3366 
L 3875 3034 
L 5738 3034 
L 5738 2534 
L 3875 2534 
L 3875 2203 
L 6050 2203 
L 6050 1653 
L 1613 1653 
L 1613 1428 
L 788 1428 
L 788 3238 
Q 619 3075 438 2922 
Q 275 3428 88 3834 
Q 844 4422 1325 5322 
L 2194 5134 
Q 2088 4928 1972 4734 
L 3044 4734 
Q 2928 4994 2806 5216 
L 3613 5359 
z
M 1613 4184 
L 1613 3866 
L 3050 3866 
L 3050 4197 
L 1619 4197 
L 1613 4184 
z
M 1613 3034 
L 3050 3034 
L 3050 3366 
L 1613 3366 
L 1613 3034 
z
M 1613 2203 
L 3050 2203 
L 3050 2534 
L 1613 2534 
L 1613 2203 
z
M 2781 1516 
L 3606 1516 
L 3606 1228 
L 6225 1228 
L 6225 628 
L 4394 628 
Q 5159 197 6313 -3 
Q 6044 -428 5875 -747 
Q 4388 -338 3606 447 
L 3606 -834 
L 2781 -834 
L 2781 394 
Q 1956 -331 519 -809 
Q 363 -484 88 -84 
Q 1284 213 2006 628 
L 225 628 
L 225 1228 
L 2781 1228 
L 2781 1516 
z
" transform="scale(0.015625)"/>
      <path id="MicrosoftYaHei-Bold-51c6" d="M 2594 5328 
L 3406 5116 
Q 3250 4675 3066 4266 
L 4350 4266 
Q 4100 4581 3781 4941 
L 4406 5384 
Q 4819 4966 5175 4541 
L 4778 4266 
L 6181 4266 
L 6181 3591 
L 4906 3591 
L 4906 2916 
L 6131 2916 
L 6131 2272 
L 4906 2272 
L 4906 1597 
L 6131 1597 
L 6131 953 
L 4906 953 
L 4906 266 
L 6250 266 
L 6250 -397 
L 2963 -397 
L 2963 -847 
L 2113 -847 
L 2113 2588 
Q 1941 2350 1756 2122 
Q 1550 2603 1356 2959 
Q 2188 3959 2594 5328 
z
M 2963 2916 
L 4056 2916 
L 4056 3591 
L 2963 3591 
L 2963 2916 
z
M 2963 1597 
L 4056 1597 
L 4056 2272 
L 2963 2272 
L 2963 1597 
z
M 2963 266 
L 4056 266 
L 4056 953 
L 2963 953 
L 2963 266 
z
M 731 5022 
Q 1200 4422 1700 3709 
L 956 3203 
Q 525 3903 38 4572 
L 731 5022 
z
M 925 2472 
Q 1344 2241 1738 2059 
L 825 -609 
Q 481 -353 44 -109 
Q 475 966 925 2472 
z
" transform="scale(0.015625)"/>
      <path id="MicrosoftYaHei-Bold-786e" d="M 5625 4884 
L 5625 4216 
L 5228 3716 
L 6088 3716 
L 6088 134 
Q 6088 -200 5986 -408 
Q 5884 -616 5704 -686 
Q 5525 -756 4938 -766 
Q 4863 -334 4744 53 
Q 5031 16 5134 16 
Q 5375 16 5375 278 
L 5375 666 
L 4663 666 
L 4663 -684 
L 3963 -684 
L 3963 666 
L 3250 666 
Q 3153 -316 2813 -878 
Q 2513 -584 2163 -353 
Q 2594 322 2575 1803 
L 2575 3134 
L 2425 3009 
Q 2244 3378 2006 3709 
Q 2906 4397 3431 5353 
L 4238 5197 
Q 4156 5038 4063 4884 
L 5625 4884 
z
M 3181 3716 
L 4338 3716 
L 4731 4228 
L 3619 4228 
Q 3416 3966 3181 3716 
z
M 5375 3053 
L 4663 3053 
L 4663 2422 
L 5375 2422 
L 5375 3053 
z
M 3288 2422 
L 3963 2422 
L 3963 3053 
L 3288 3053 
L 3288 2422 
z
M 4663 1228 
L 5375 1228 
L 5375 1859 
L 4663 1859 
L 4663 1228 
z
M 3284 1228 
L 3963 1228 
L 3963 1859 
L 3288 1859 
Q 3288 1534 3284 1228 
z
M 2413 4191 
L 1656 4191 
Q 1528 3666 1347 3178 
L 2231 3178 
L 2231 -116 
L 1256 -116 
L 1256 -509 
L 563 -509 
L 563 1569 
Q 466 1416 363 1266 
Q 244 1797 38 2228 
Q 613 3084 866 4191 
L 250 4191 
L 250 4891 
L 2413 4891 
L 2413 4191 
z
M 1538 566 
L 1538 2497 
L 1256 2497 
L 1256 566 
L 1538 566 
z
" transform="scale(0.015625)"/>
      <path id="MicrosoftYaHei-Bold-7387" d="M 213 4766 
L 2719 4766 
L 2613 5303 
L 3588 5341 
Q 3631 5119 3684 4766 
L 6200 4766 
L 6200 4028 
L 3447 4028 
L 2775 3391 
L 3391 3403 
Q 3672 3675 3969 3991 
L 4606 3622 
Q 3894 2928 2919 2122 
L 3684 2172 
Q 3588 2322 3500 2447 
L 4069 2772 
Q 4506 2203 4888 1603 
L 4263 1253 
L 4063 1581 
Q 2722 1488 1938 1397 
L 1681 2053 
Q 2163 2328 2722 2797 
Q 2322 2766 2013 2728 
L 1719 3309 
Q 2050 3463 2519 4028 
L 213 4028 
L 213 4766 
z
M 5944 3484 
L 5119 2803 
Q 5609 2513 6188 2141 
L 5725 1472 
Q 5125 1972 4488 2416 
L 4800 2844 
L 4500 3216 
Q 5044 3616 5438 3966 
L 5944 3484 
z
M 375 3472 
L 856 3959 
Q 1225 3672 1650 3272 
L 1144 2759 
Q 713 3191 375 3472 
z
M 1569 2941 
L 1950 2372 
L 544 1372 
L 175 2122 
Q 700 2397 1569 2941 
z
M 88 1066 
L 2763 1066 
L 2763 1341 
L 3638 1341 
L 3638 1066 
L 6288 1066 
L 6288 328 
L 3638 328 
L 3638 -872 
L 2763 -872 
L 2763 328 
L 88 328 
L 88 1066 
z
" transform="scale(0.015625)"/>
      <path id="MicrosoftYaHei-Bold-5bf9" d="M 3050 4234 
L 4850 4234 
L 4850 5309 
L 5744 5309 
L 5744 4234 
L 6319 4234 
L 6319 3409 
L 5744 3409 
L 5744 216 
Q 5744 -250 5539 -490 
Q 5334 -731 4987 -754 
Q 4641 -778 3656 -778 
Q 3594 -359 3450 147 
Q 3931 109 4409 109 
Q 4850 109 4850 516 
L 4850 3409 
L 3050 3409 
L 3050 4234 
z
M 863 3772 
L 1691 2509 
Q 1934 3206 2025 4016 
L 188 4016 
L 188 4834 
L 2900 4834 
L 2900 4028 
Q 2709 2722 2247 1669 
L 3169 278 
L 2394 -228 
L 1781 778 
Q 1269 -47 550 -684 
Q 369 -316 88 153 
Q 816 772 1278 1594 
L 181 3341 
L 863 3772 
z
M 3463 3047 
Q 4069 2278 4588 1528 
L 3844 1041 
Q 3375 1841 2813 2609 
L 3463 3047 
z
" transform="scale(0.015625)"/>
      <path id="MicrosoftYaHei-Bold-6bd4" d="M 5481 4441 
L 6294 3803 
Q 5234 2791 4119 1894 
L 4119 547 
Q 4119 153 4438 153 
L 4875 153 
Q 5119 153 5197 325 
Q 5275 497 5363 1597 
Q 5856 1409 6294 1278 
Q 6231 688 6131 248 
Q 6031 -191 5900 -358 
Q 5769 -525 5511 -617 
Q 5253 -709 4881 -709 
L 4094 -709 
Q 3194 -709 3194 247 
L 3194 5316 
L 4119 5316 
L 4119 3009 
Q 4797 3656 5481 4441 
z
M 1419 5241 
L 1419 3453 
L 2850 3453 
L 2850 2591 
L 1419 2591 
L 1419 372 
L 2869 866 
Q 2856 372 2888 -78 
Q 1500 -503 725 -922 
L 275 -184 
Q 494 -16 494 366 
L 494 5241 
L 1419 5241 
z
" transform="scale(0.015625)"/>
     </defs>
     <use xlink:href="#MicrosoftYaHei-Bold-6d4b"/>
     <use xlink:href="#MicrosoftYaHei-Bold-8bd5" transform="translate(100 0)"/>
     <use xlink:href="#MicrosoftYaHei-Bold-96c6" transform="translate(200 0)"/>
     <use xlink:href="#MicrosoftYaHei-Bold-51c6" transform="translate(300 0)"/>
     <use xlink:href="#MicrosoftYaHei-Bold-786e" transform="translate(400 0)"/>
     <use xlink:href="#MicrosoftYaHei-Bold-7387" transform="translate(500 0)"/>
     <use xlink:href="#MicrosoftYaHei-Bold-5bf9" transform="translate(600 0)"/>
     <use xlink:href="#MicrosoftYaHei-Bold-6bd4" transform="translate(700 0)"/>
    </g>
   </g>
  </g>
  <g id="axes_2">
   <g id="patch_10">
    <path d="M 490.923437 329.62625 
L 808.258437 329.62625 
L 808.258437 53.18625 
L 490.923437 53.18625 
z
" style="fill: #f8f9fa"/>
   </g>
   <g id="patch_11">
    <path d="M 505.347756 1366.27625 
L 567.570305 1366.27625 
L 567.570305 112.62085 
L 505.347756 112.62085 
z
" clip-path="url(#pba3004572e)" style="fill: #1565c0; stroke: #ffffff; stroke-linejoin: miter"/>
   </g>
   <g id="patch_12">
    <path d="M 618.479663 1366.27625 
L 680.702212 1366.27625 
L 680.702212 224.57905 
L 618.479663 224.57905 
z
" clip-path="url(#pba3004572e)" style="fill: #78909c; stroke: #ffffff; stroke-linejoin: miter"/>
   </g>
   <g id="patch_13">
    <path d="M 731.61157 1366.27625 
L 793.834119 1366.27625 
L 793.834119 221.81465 
L 731.61157 221.81465 
z
" clip-path="url(#pba3004572e)" style="fill: #78909c; stroke: #ffffff; stroke-linejoin: miter"/>
   </g>
   <g id="matplotlib.axis_3">
    <g id="xtick_4">
     <g id="line2d_14">
      <g>
       <use xlink:href="#m97b3091d05" x="536.45903" y="329.62625" style="fill: #333333; stroke: #333333; stroke-width: 0.8"/>
      </g>
     </g>
     <g id="text_14">
      <!-- 随机森林 -->
      <g style="fill: #333333" transform="translate(504.45903 349.41625) scale(0.16 -0.16)">
       <use xlink:href="#MicrosoftYaHei-968f"/>
       <use xlink:href="#MicrosoftYaHei-673a" transform="translate(100 0)"/>
       <use xlink:href="#MicrosoftYaHei-68ee" transform="translate(200 0)"/>
       <use xlink:href="#MicrosoftYaHei-6797" transform="translate(300 0)"/>
      </g>
     </g>
    </g>
    <g id="xtick_5">
     <g id="line2d_15">
      <g>
       <use xlink:href="#m97b3091d05" x="649.590937" y="329.62625" style="fill: #333333; stroke: #333333; stroke-width: 0.8"/>
      </g>
     </g>
     <g id="text_15">
      <!-- 决策树 -->
      <g style="fill: #333333" transform="translate(625.590937 349.41625) scale(0.16 -0.16)">
       <use xlink:href="#MicrosoftYaHei-51b3"/>
       <use xlink:href="#MicrosoftYaHei-7b56" transform="translate(100 0)"/>
       <use xlink:href="#MicrosoftYaHei-6811" transform="translate(200 0)"/>
      </g>
     </g>
    </g>
    <g id="xtick_6">
     <g id="line2d_16">
      <g>
       <use xlink:href="#m97b3091d05" x="762.722845" y="329.62625" style="fill: #333333; stroke: #333333; stroke-width: 0.8"/>
      </g>
     </g>
     <g id="text_16">
      <!-- KNN (k=5) -->
      <g style="fill: #333333" transform="translate(721.944095 349.41625) scale(0.16 -0.16)">
       <use xlink:href="#MicrosoftYaHei-4b"/>
       <use xlink:href="#MicrosoftYaHei-4e" transform="translate(63.476562 0)"/>
       <use xlink:href="#MicrosoftYaHei-4e" transform="translate(144.775391 0)"/>
       <use xlink:href="#MicrosoftYaHei-20" transform="translate(226.074219 0)"/>
       <use xlink:href="#MicrosoftYaHei-28" transform="translate(255.664062 0)"/>
       <use xlink:href="#MicrosoftYaHei-6b" transform="translate(289.0625 0)"/>
       <use xlink:href="#MicrosoftYaHei-3d" transform="translate(343.505859 0)"/>
       <use xlink:href="#MicrosoftYaHei-35" transform="translate(417.675781 0)"/>
       <use xlink:href="#MicrosoftYaHei-29" transform="translate(476.318359 0)"/>
      </g>
     </g>
    </g>
   </g>
   <g id="matplotlib.axis_4">
    <g id="ytick_6">
     <g id="line2d_17">
      <path d="M 490.923437 329.62625 
L 808.258437 329.62625 
" clip-path="url(#pba3004572e)" style="fill: none; stroke: #cccccc; stroke-opacity: 0.3; stroke-width: 0.8; stroke-linecap: square"/>
     </g>
     <g id="line2d_18">
      <g>
       <use xlink:href="#m10318497fe" x="490.923437" y="329.62625" style="fill: #333333; stroke: #333333; stroke-width: 0.8"/>
      </g>
     </g>
     <g id="text_17">
      <!-- 0.750 -->
      <g style="fill: #333333" transform="translate(442.540937 336.02125) scale(0.16 -0.16)">
       <defs>
        <path id="MicrosoftYaHei-2e" d="M 372 322 
Q 372 491 487 606 
Q 603 722 775 722 
Q 950 722 1065 605 
Q 1181 488 1181 322 
Q 1181 159 1065 42 
Q 950 -75 772 -75 
Q 600 -75 486 42 
Q 372 159 372 322 
z
" transform="scale(0.015625)"/>
       </defs>
       <use xlink:href="#MicrosoftYaHei-30"/>
       <use xlink:href="#MicrosoftYaHei-2e" transform="translate(58.642578 0)"/>
       <use xlink:href="#MicrosoftYaHei-37" transform="translate(82.714844 0)"/>
       <use xlink:href="#MicrosoftYaHei-35" transform="translate(141.357422 0)"/>
       <use xlink:href="#MicrosoftYaHei-30" transform="translate(200 0)"/>
      </g>
     </g>
    </g>
    <g id="ytick_7">
     <g id="line2d_19">
      <path d="M 490.923437 295.07125 
L 808.258437 295.07125 
" clip-path="url(#pba3004572e)" style="fill: none; stroke: #cccccc; stroke-opacity: 0.3; stroke-width: 0.8; stroke-linecap: square"/>
     </g>
     <g id="line2d_20">
      <g>
       <use xlink:href="#m10318497fe" x="490.923437" y="295.07125" style="fill: #333333; stroke: #333333; stroke-width: 0.8"/>
      </g>
     </g>
     <g id="text_18">
      <!-- 0.775 -->
      <g style="fill: #333333" transform="translate(442.540937 301.46625) scale(0.16 -0.16)">
       <use xlink:href="#MicrosoftYaHei-30"/>
       <use xlink:href="#MicrosoftYaHei-2e" transform="translate(58.642578 0)"/>
       <use xlink:href="#MicrosoftYaHei-37" transform="translate(82.714844 0)"/>
       <use xlink:href="#MicrosoftYaHei-37" transform="translate(141.357422 0)"/>
       <use xlink:href="#MicrosoftYaHei-35" transform="translate(200 0)"/>
      </g>
     </g>
    </g>
    <g id="ytick_8">
     <g id="line2d_21">
      <path d="M 490.923437 260.51625 
L 808.258437 260.51625 
" clip-path="url(#pba3004572e)" style="fill: none; stroke: #cccccc; stroke-opacity: 0.3; stroke-width: 0.8; stroke-linecap: square"/>
     </g>
     <g id="line2d_22">
      <g>
       <use xlink:href="#m10318497fe" x="490.923437" y="260.51625" style="fill: #333333; stroke: #333333; stroke-width: 0.8"/>
      </g>
     </g>
     <g id="text_19">
      <!-- 0.800 -->
      <g style="fill: #333333" transform="translate(442.540937 266.91125) scale(0.16 -0.16)">
       <use xlink:href="#MicrosoftYaHei-30"/>
       <use xlink:href="#MicrosoftYaHei-2e" transform="translate(58.642578 0)"/>
       <use xlink:href="#MicrosoftYaHei-38" transform="translate(82.714844 0)"/>
       <use xlink:href="#MicrosoftYaHei-30" transform="translate(141.357422 0)"/>
       <use xlink:href="#MicrosoftYaHei-30" transform="translate(200 0)"/>
      </g>
     </g>
    </g>
    <g id="ytick_9">
     <g id="line2d_23">
      <path d="M 490.923437 225.96125 
L 808.258437 225.96125 
" clip-path="url(#pba3004572e)" style="fill: none; stroke: #cccccc; stroke-opacity: 0.3; stroke-width: 0.8; stroke-linecap: square"/>
     </g>
     <g id="line2d_24">
      <g>
       <use xlink:href="#m10318497fe" x="490.923437" y="225.96125" style="fill: #333333; stroke: #333333; stroke-width: 0.8"/>
      </g>
     </g>
     <g id="text_20">
      <!-- 0.825 -->
      <g style="fill: #333333" transform="translate(442.540937 232.35625) scale(0.16 -0.16)">
       <defs>
        <path id="MicrosoftYaHei-32" d="M 2666 3572 
Q 2666 3963 2419 4186 
Q 2172 4409 1747 4409 
Q 1447 4409 1140 4256 
Q 834 4103 569 3819 
L 569 4413 
Q 806 4659 1107 4790 
Q 1409 4922 1816 4922 
Q 2472 4922 2872 4570 
Q 3272 4219 3272 3619 
Q 3272 3084 3026 2693 
Q 2781 2303 2188 1894 
Q 1581 1475 1376 1294 
Q 1172 1113 1090 947 
Q 1009 781 1009 544 
L 3416 544 
L 3416 0 
L 372 0 
L 372 241 
Q 372 659 486 951 
Q 600 1244 862 1520 
Q 1125 1797 1681 2184 
Q 2250 2584 2458 2886 
Q 2666 3188 2666 3572 
z
" transform="scale(0.015625)"/>
       </defs>
       <use xlink:href="#MicrosoftYaHei-30"/>
       <use xlink:href="#MicrosoftYaHei-2e" transform="translate(58.642578 0)"/>
       <use xlink:href="#MicrosoftYaHei-38" transform="translate(82.714844 0)"/>
       <use xlink:href="#MicrosoftYaHei-32" transform="translate(141.357422 0)"/>
       <use xlink:href="#MicrosoftYaHei-35" transform="translate(200 0)"/>
      </g>
     </g>
    </g>
    <g id="ytick_10">
     <g id="line2d_25">
      <path d="M 490.923437 191.40625 
L 808.258437 191.40625 
" clip-path="url(#pba3004572e)" style="fill: none; stroke: #cccccc; stroke-opacity: 0.3; stroke-width: 0.8; stroke-linecap: square"/>
     </g>
     <g id="line2d_26">
      <g>
       <use xlink:href="#m10318497fe" x="490.923437" y="191.40625" style="fill: #333333; stroke: #333333; stroke-width: 0.8"/>
      </g>
     </g>
     <g id="text_21">
      <!-- 0.850 -->
      <g style="fill: #333333" transform="translate(442.540937 197.80125) scale(0.16 -0.16)">
       <use xlink:href="#MicrosoftYaHei-30"/>
       <use xlink:href="#MicrosoftYaHei-2e" transform="translate(58.642578 0)"/>
       <use xlink:href="#MicrosoftYaHei-38" transform="translate(82.714844 0)"/>
       <use xlink:href="#MicrosoftYaHei-35" transform="translate(141.357422 0)"/>
       <use xlink:href="#MicrosoftYaHei-30" transform="translate(200 0)"/>
      </g>
     </g>
    </g>
    <g id="ytick_11">
     <g id="line2d_27">
      <path d="M 490.923437 156.85125 
L 808.258437 156.85125 
" clip-path="url(#pba3004572e)" style="fill: none; stroke: #cccccc; stroke-opacity: 0.3; stroke-width: 0.8; stroke-linecap: square"/>
     </g>
     <g id="line2d_28">
      <g>
       <use xlink:href="#m10318497fe" x="490.923437" y="156.85125" style="fill: #333333; stroke: #333333; stroke-width: 0.8"/>
      </g>
     </g>
     <g id="text_22">
      <!-- 0.875 -->
      <g style="fill: #333333" transform="translate(442.540937 163.24625) scale(0.16 -0.16)">
       <use xlink:href="#MicrosoftYaHei-30"/>
       <use xlink:href="#MicrosoftYaHei-2e" transform="translate(58.642578 0)"/>
       <use xlink:href="#MicrosoftYaHei-38" transform="translate(82.714844 0)"/>
       <use xlink:href="#MicrosoftYaHei-37" transform="translate(141.357422 0)"/>
       <use xlink:href="#MicrosoftYaHei-35" transform="translate(200 0)"/>
      </g>
     </g>
    </g>
    <g id="ytick_12">
     <g id="line2d_29">
      <path d="M 490.923437 122.29625 
L 808.258437 122.29625 
" clip-path="url(#pba3004572e)" style="fill: none; stroke: #cccccc; stroke-opacity: 0.3; stroke-width: 0.8; stroke-linecap: square"/>
     </g>
     <g id="line2d_30">
      <g>
       <use xlink:href="#m10318497fe" x="490.923437" y="122.29625" style="fill: #333333; stroke: #333333; stroke-width: 0.8"/>
      </g>
     </g>
     <g id="text_23">
      <!-- 0.900 -->
      <g style="fill: #333333" transform="translate(442.540937 128.69125) scale(0.16 -0.16)">
       <use xlink:href="#MicrosoftYaHei-30"/>
       <use xlink:href="#MicrosoftYaHei-2e" transform="translate(58.642578 0)"/>
       <use xlink:href="#MicrosoftYaHei-39" transform="translate(82.714844 0)"/>
       <use xlink:href="#MicrosoftYaHei-30" transform="translate(141.357422 0)"/>
       <use xlink:href="#MicrosoftYaHei-30" transform="translate(200 0)"/>
      </g>
     </g>
    </g>
    <g id="ytick_13">
     <g id="line2d_31">
      <path d="M 490.923437 87.74125 
L 808.258437 87.74125 
" clip-path="url(#pba3004572e)" style="fill: none; stroke: #cccccc; stroke-opacity: 0.3; stroke-width: 0.8; stroke-linecap: square"/>
     </g>
     <g id="line2d_32">
      <g>
       <use xlink:href="#m10318497fe" x="490.923437" y="87.74125" style="fill: #333333; stroke: #333333; stroke-width: 0.8"/>
      </g>
     </g>
     <g id="text_24">
      <!-- 0.925 -->
      <g style="fill: #333333" transform="translate(442.540937 94.13625) scale(0.16 -0.16)">
       <use xlink:href="#MicrosoftYaHei-30"/>
       <use xlink:href="#MicrosoftYaHei-2e" transform="translate(58.642578 0)"/>
       <use xlink:href="#MicrosoftYaHei-39" transform="translate(82.714844 0)"/>
       <use xlink:href="#MicrosoftYaHei-32" transform="translate(141.357422 0)"/>
       <use xlink:href="#MicrosoftYaHei-35" transform="translate(200 0)"/>
      </g>
     </g>
    </g>
    <g id="ytick_14">
     <g id="line2d_33">
      <path d="M 490.923437 53.18625 
L 808.258437 53.18625 
" clip-path="url(#pba3004572e)" style="fill: none; stroke: #cccccc; stroke-opacity: 0.3; stroke-width: 0.8; stroke-linecap: square"/>
     </g>
     <g id="line2d_34">
      <g>
       <use xlink:href="#m10318497fe" x="490.923437" y="53.18625" style="fill: #333333; stroke: #333333; stroke-width: 0.8"/>
      </g>
     </g>
     <g id="text_25">
      <!-- 0.950 -->
      <g style="fill: #333333" transform="translate(442.540937 59.58125) scale(0.16 -0.16)">
       <use xlink:href="#MicrosoftYaHei-30"/>
       <use xlink:href="#MicrosoftYaHei-2e" transform="translate(58.642578 0)"/>
       <use xlink:href="#MicrosoftYaHei-39" transform="translate(82.714844 0)"/>
       <use xlink:href="#MicrosoftYaHei-35" transform="translate(141.357422 0)"/>
       <use xlink:href="#MicrosoftYaHei-30" transform="translate(200 0)"/>
      </g>
     </g>
    </g>
    <g id="text_26">
     <!-- 宏平均 F1 -->
     <g style="fill: #222222" transform="translate(434.06625 231.128594) rotate(-90) scale(0.18 -0.18)">
      <defs>
       <path id="MicrosoftYaHei-5b8f" d="M 213 2928 
L 2075 2928 
Q 2281 3391 2444 3884 
L 2963 3734 
Q 2822 3322 2650 2928 
L 6213 2928 
L 6213 2466 
L 2438 2466 
Q 1666 881 369 -441 
Q 244 -184 81 34 
Q 1169 1109 1856 2466 
L 213 2466 
L 213 2928 
z
M 4563 1384 
Q 5331 472 6069 -484 
L 5606 -797 
Q 5444 -569 5284 -347 
Q 3181 -463 2363 -534 
Q 2144 -553 1831 -634 
L 1575 -141 
Q 1813 -59 2056 172 
Q 2763 947 3375 2178 
L 3894 1953 
Q 3106 678 2506 -34 
Q 3781 3 4978 66 
Q 4578 603 4175 1116 
L 4563 1384 
z
M 394 4528 
L 3097 4528 
Q 2938 4834 2744 5128 
L 3200 5353 
Q 3456 4941 3669 4528 
L 6056 4528 
L 6056 3459 
L 5556 3459 
L 5556 4066 
L 894 4066 
L 894 3459 
L 394 3459 
L 394 4528 
z
" transform="scale(0.015625)"/>
       <path id="MicrosoftYaHei-5e73" d="M 169 1934 
L 2938 1934 
L 2938 4547 
L 450 4547 
L 450 5028 
L 5975 5028 
L 5975 4547 
L 3463 4547 
L 3463 1934 
L 6250 1934 
L 6250 1453 
L 3463 1453 
L 3463 -847 
L 2938 -847 
L 2938 1453 
L 169 1453 
L 169 1934 
z
M 3950 2559 
Q 4638 3284 5188 4159 
L 5656 3859 
Q 4950 2891 4338 2234 
L 3950 2559 
z
M 769 3859 
L 1163 4134 
Q 1863 3316 2369 2553 
L 1925 2222 
Q 1444 3003 769 3859 
z
" transform="scale(0.015625)"/>
       <path id="MicrosoftYaHei-5747" d="M 2244 2803 
Q 2931 3953 3338 5322 
L 3838 5172 
Q 3691 4744 3531 4347 
L 6013 4347 
Q 5925 1053 5875 297 
Q 5831 -697 4806 -697 
Q 4188 -697 3706 -672 
Q 3669 -422 3606 -141 
L 3625 -141 
Q 4250 -209 4775 -209 
Q 5350 -209 5394 378 
Q 5456 1447 5513 3891 
L 3341 3891 
Q 3028 3172 2675 2572 
Q 2481 2691 2244 2803 
z
M 81 428 
Q 559 600 1006 769 
L 1006 3253 
L 169 3253 
L 169 3697 
L 1006 3697 
L 1006 5259 
L 1469 5259 
L 1469 3697 
L 2281 3697 
L 2281 3253 
L 1469 3253 
L 1469 947 
Q 1922 1125 2338 1303 
Q 2350 991 2369 784 
Q 1363 403 250 -53 
L 81 428 
z
M 2513 853 
Q 3769 1353 5119 1934 
Q 5150 1641 5188 1434 
Q 4031 947 2706 359 
L 2513 853 
z
M 3138 2909 
L 3481 3216 
Q 4025 2716 4531 2216 
L 4125 1859 
Q 3644 2409 3138 2909 
z
" transform="scale(0.015625)"/>
       <path id="MicrosoftYaHei-46" d="M 3119 4284 
L 1250 4284 
L 1250 2666 
L 2981 2666 
L 2981 2116 
L 1250 2116 
L 1250 0 
L 625 0 
L 625 4841 
L 3119 4841 
L 3119 4284 
z
" transform="scale(0.015625)"/>
       <path id="MicrosoftYaHei-31" d="M 1781 0 
L 1781 4141 
Q 1638 3997 1295 3819 
Q 953 3641 663 3569 
L 663 4169 
Q 1047 4275 1484 4508 
Q 1922 4741 2156 4947 
L 2388 4947 
L 2388 0 
L 1781 0 
z
" transform="scale(0.015625)"/>
      </defs>
      <use xlink:href="#MicrosoftYaHei-5b8f"/>
      <use xlink:href="#MicrosoftYaHei-5e73" transform="translate(100 0)"/>
      <use xlink:href="#MicrosoftYaHei-5747" transform="translate(200 0)"/>
      <use xlink:href="#MicrosoftYaHei-20" transform="translate(300 0)"/>
      <use xlink:href="#MicrosoftYaHei-46" transform="translate(329.589844 0)"/>
      <use xlink:href="#MicrosoftYaHei-31" transform="translate(382.714844 0)"/>
     </g>
    </g>
   </g>
   <g id="patch_14">
    <path d="M 490.923437 329.62625 
L 490.923437 53.18625 
" style="fill: none; stroke: #333333; stroke-width: 0.8; stroke-linejoin: miter; stroke-linecap: square"/>
   </g>
   <g id="patch_15">
    <path d="M 808.258437 329.62625 
L 808.258437 53.18625 
" style="fill: none; stroke: #333333; stroke-width: 0.8; stroke-linejoin: miter; stroke-linecap: square"/>
   </g>
   <g id="patch_16">
    <path d="M 490.923438 329.62625 
L 808.258437 329.62625 
" style="fill: none; stroke: #333333; stroke-width: 0.8; stroke-linejoin: miter; stroke-linecap: square"/>
   </g>
   <g id="patch_17">
    <path d="M 490.923438 53.18625 
L 808.258437 53.18625 
" style="fill: none; stroke: #333333; stroke-width: 0.8; stroke-linejoin: miter; stroke-linecap: square"/>
   </g>
   <g id="text_27">
    <!-- 0.907 -->
    <g style="fill: #222222" transform="translate(511.68653 97.088563) scale(0.18 -0.18)">
     <use xlink:href="#MicrosoftYaHei-Bold-30"/>
     <use xlink:href="#MicrosoftYaHei-Bold-2e" transform="translate(61.669922 0)"/>
     <use xlink:href="#MicrosoftYaHei-Bold-39" transform="translate(90.234375 0)"/>
     <use xlink:href="#MicrosoftYaHei-Bold-30" transform="translate(151.904297 0)"/>
     <use xlink:href="#MicrosoftYaHei-Bold-37" transform="translate(213.574219 0)"/>
    </g>
   </g>
   <g id="text_28">
    <!-- 0.826 -->
    <g style="fill: #222222" transform="translate(624.818437 209.046763) scale(0.18 -0.18)">
     <use xlink:href="#MicrosoftYaHei-Bold-30"/>
     <use xlink:href="#MicrosoftYaHei-Bold-2e" transform="translate(61.669922 0)"/>
     <use xlink:href="#MicrosoftYaHei-Bold-38" transform="translate(90.234375 0)"/>
     <use xlink:href="#MicrosoftYaHei-Bold-32" transform="translate(151.904297 0)"/>
     <use xlink:href="#MicrosoftYaHei-Bold-36" transform="translate(213.574219 0)"/>
    </g>
   </g>
   <g id="text_29">
    <!-- 0.828 -->
    <g style="fill: #222222" transform="translate(737.950345 206.282363) scale(0.18 -0.18)">
     <use xlink:href="#MicrosoftYaHei-Bold-30"/>
     <use xlink:href="#MicrosoftYaHei-Bold-2e" transform="translate(61.669922 0)"/>
     <use xlink:href="#MicrosoftYaHei-Bold-38" transform="translate(90.234375 0)"/>
     <use xlink:href="#MicrosoftYaHei-Bold-32" transform="translate(151.904297 0)"/>
     <use xlink:href="#MicrosoftYaHei-Bold-38" transform="translate(213.574219 0)"/>
    </g>
   </g>
   <g id="text_30">
    <!-- 宏平均 F1 对比 -->
    <g style="fill: #222222" transform="translate(575.115781 39.18625) scale(0.22 -0.22)">
     <defs>
      <path id="MicrosoftYaHei-Bold-5b8f" d="M 2650 5184 
L 3656 5353 
Q 3756 5075 3900 4634 
L 6088 4634 
L 6088 3309 
L 5181 3309 
L 5181 3859 
L 1350 3859 
L 1350 3309 
L 444 3309 
L 444 4634 
L 2863 4634 
L 2650 5184 
z
M 131 3041 
L 2053 3041 
Q 2203 3347 2319 3672 
L 3306 3672 
Q 3184 3350 3038 3041 
L 6281 3041 
L 6281 2247 
L 2609 2247 
Q 1734 800 281 -334 
Q 194 172 94 641 
Q 1003 1372 1594 2247 
L 131 2247 
L 131 3041 
z
M 4513 1597 
Q 5319 728 6163 -222 
L 5456 -784 
L 5206 -463 
L 2372 -625 
Q 2066 -644 1725 -722 
L 1313 103 
Q 1775 297 2203 780 
Q 2631 1263 3131 2003 
L 4213 2003 
Q 3619 1203 2775 197 
L 4628 263 
Q 4244 738 3894 1134 
L 4513 1597 
z
" transform="scale(0.015625)"/>
      <path id="MicrosoftYaHei-Bold-5e73" d="M 175 1959 
L 2719 1959 
L 2719 4253 
L 450 4253 
L 450 5078 
L 5975 5078 
L 5975 4253 
L 3669 4253 
L 3669 1959 
L 6250 1959 
L 6250 1134 
L 3669 1134 
L 3669 -809 
L 2719 -809 
L 2719 1134 
L 175 1134 
L 175 1959 
z
M 538 3691 
L 1194 4134 
Q 1794 3434 2438 2584 
L 1681 2084 
Q 1050 3041 538 3691 
z
M 5988 3628 
Q 5325 2834 4588 2066 
L 3950 2584 
Q 4675 3334 5250 4128 
L 5988 3628 
z
" transform="scale(0.015625)"/>
      <path id="MicrosoftYaHei-Bold-5747" d="M 250 -397 
L 88 547 
Q 425 628 794 725 
L 794 2847 
L 213 2847 
L 213 3703 
L 794 3703 
L 794 5322 
L 1638 5322 
L 1638 3703 
L 2156 3703 
L 2156 3269 
Q 2794 4313 3075 5366 
L 3925 5266 
Q 3809 4866 3669 4491 
L 6069 4491 
L 6016 1816 
L 5966 303 
Q 5944 -194 5730 -450 
Q 5516 -706 5167 -745 
Q 4819 -784 3775 -797 
Q 3700 -397 3556 153 
Q 4178 103 4625 103 
Q 4819 103 4955 208 
Q 5091 313 5105 575 
Q 5119 838 5141 1619 
L 5181 3703 
L 3341 3703 
Q 3059 3088 2706 2541 
Q 2463 2763 2156 3003 
L 2156 2847 
L 1638 2847 
L 1638 959 
L 2288 1153 
Q 2275 878 2269 253 
Q 963 -134 250 -397 
z
M 3556 3353 
Q 4106 2922 4588 2466 
L 4006 1891 
Q 3500 2403 3019 2822 
L 3556 3353 
z
M 2719 209 
L 2500 1128 
Q 3650 1534 4938 2059 
Q 4956 1566 5000 1153 
Q 3894 728 2719 209 
z
" transform="scale(0.015625)"/>
      <path id="MicrosoftYaHei-Bold-20" transform="scale(0.015625)"/>
      <path id="MicrosoftYaHei-Bold-46" d="M 3319 3997 
L 1591 3997 
L 1591 2753 
L 3181 2753 
L 3181 1909 
L 1591 1909 
L 1591 0 
L 559 0 
L 559 4841 
L 3319 4841 
L 3319 3997 
z
" transform="scale(0.015625)"/>
     </defs>
     <use xlink:href="#MicrosoftYaHei-Bold-5b8f"/>
     <use xlink:href="#MicrosoftYaHei-Bold-5e73" transform="translate(100 0)"/>
     <use xlink:href="#MicrosoftYaHei-Bold-5747" transform="translate(200 0)"/>
     <use xlink:href="#MicrosoftYaHei-Bold-20" transform="translate(300 0)"/>
     <use xlink:href="#MicrosoftYaHei-Bold-46" transform="translate(329.785156 0)"/>
     <use xlink:href="#MicrosoftYaHei-Bold-31" transform="translate(385.595703 0)"/>
     <use xlink:href="#MicrosoftYaHei-Bold-20" transform="translate(447.265625 0)"/>
     <use xlink:href="#MicrosoftYaHei-Bold-5bf9" transform="translate(477.050781 0)"/>
     <use xlink:href="#MicrosoftYaHei-Bold-6bd4" transform="translate(577.050781 0)"/>
    </g>
   </g>
  </g>
 </g>
 <defs>
  <clipPath id="p2b27f83b8b">
   <rect x="70.228438" y="53.18625" width="317.335" height="276.44"/>
  </clipPath>
  <clipPath id="pba3004572e">
   <rect x="490.923437" y="53.18625" width="317.335" height="276.44"/>
  </clipPath>
 </defs>
</svg>
