<?xml version="1.0" encoding="utf-8" standalone="no"?>
<!DOCTYPE svg PUBLIC "-//W3C//DTD SVG 1.1//EN"
  "http://www.w3.org/Graphics/SVG/1.1/DTD/svg11.dtd">
<svg xmlns:xlink="http://www.w3.org/1999/xlink" width="580.860028pt" height="426.337187pt" viewBox="0 0 580.860028 426.337187" xmlns="http://www.w3.org/2000/svg" version="1.1">
 <metadata>
  <rdf:RDF xmlns:dc="http://purl.org/dc/elements/1.1/" xmlns:cc="http://creativecommons.org/ns#" xmlns:rdf="http://www.w3.org/1999/02/22-rdf-syntax-ns#">
   <cc:Work>
    <dc:type rdf:resource="http://purl.org/dc/dcmitype/StillImage"/>
    <dc:date>2026-05-22T11:51:51.805828</dc:date>
    <dc:format>image/svg+xml</dc:format>
    <dc:creator>
     <cc:Agent>
      <dc:title>Matplotlib v3.10.9, https://matplotlib.org/</dc:title>
     </cc:Agent>
    </dc:creator>
   </cc:Work>
  </rdf:RDF>
 </metadata>
 <defs>
  <style type="text/css">*{stroke-linejoin: round; stroke-linecap: butt}</style>
 </defs>
 <g id="figure_1">
  <g id="patch_1">
   <path d="M 0 426.337187 
L 580.860028 426.337187 
L 580.860028 0 
L 0 0 
z
" style="fill: #ffffff"/>
  </g>
  <g id="axes_1">
   <g id="patch_2">
    <path d="M 74.080938 358.10625 
L 520.480937 358.10625 
L 520.480937 53.18625 
L 74.080938 53.18625 
z
" style="fill: #f8f9fa"/>
   </g>
   <g id="FillBetweenPolyCollection_1">
    <defs>
     <path id="m32b2d3e7c5" d="M 94.371847 -356.210938 
L 94.371847 -356.210938 
L 162.00821 -349.434938 
L 229.644574 -344.014138 
L 297.280937 -340.287338 
L 364.917301 -337.576938 
L 432.553665 -335.544138 
L 500.190028 -334.188938 
L 500.190028 -343.675338 
L 500.190028 -343.675338 
L 432.553665 -344.352938 
L 364.917301 -345.708138 
L 297.280937 -347.063338 
L 229.644574 -349.434938 
L 162.00821 -352.822938 
L 94.371847 -356.210938 
z
" style="stroke: #1565c0; stroke-opacity: 0.15"/>
    </defs>
    <g clip-path="url(#p309baa31c0)">
     <use xlink:href="#m32b2d3e7c5" x="0" y="426.337187" style="fill: #1565c0; fill-opacity: 0.15; stroke: #1565c0; stroke-opacity: 0.15"/>
    </g>
   </g>
   <g id="FillBetweenPolyCollection_2">
    <defs>
     <path id="m80905d4465" d="M 94.371847 -129.214938 
L 94.371847 -75.006938 
L 162.00821 -213.914938 
L 229.644574 -261.346938 
L 297.280937 -283.368938 
L 364.917301 -296.920938 
L 432.553665 -303.358138 
L 500.190028 -306.746138 
L 500.190028 -318.265338 
L 500.190028 -318.265338 
L 432.553665 -315.554938 
L 364.917301 -310.472938 
L 297.280937 -300.308938 
L 229.644574 -281.674938 
L 162.00821 -241.018938 
L 94.371847 -129.214938 
z
" style="stroke: #e65100; stroke-opacity: 0.15"/>
    </defs>
    <g clip-path="url(#p309baa31c0)">
     <use xlink:href="#m80905d4465" x="0" y="426.337187" style="fill: #e65100; fill-opacity: 0.15; stroke: #e65100; stroke-opacity: 0.15"/>
    </g>
   </g>
   <g id="matplotlib.axis_1">
    <g id="xtick_1">
     <g id="line2d_1">
      <path d="M 94.371847 358.10625 
L 94.371847 53.18625 
" clip-path="url(#p309baa31c0)" style="fill: none; stroke: #cccccc; stroke-opacity: 0.3; stroke-width: 0.8; stroke-linecap: square"/>
     </g>
     <g id="line2d_2">
      <defs>
       <path id="mc15b574f20" d="M 0 0 
L 0 3.5 
" style="stroke: #333333; stroke-width: 0.8"/>
      </defs>
      <g>
       <use xlink:href="#mc15b574f20" x="94.371847" y="358.10625" style="fill: #333333; stroke: #333333; stroke-width: 0.8"/>
      </g>
     </g>
     <g id="text_1">
      <!-- 200 -->
      <g style="fill: #333333" transform="translate(80.298097 377.89625) scale(0.16 -0.16)">
       <defs>
        <path id="MicrosoftYaHei-32" d="M 2666 3572 
Q 2666 3963 2419 4186 
Q 2172 4409 1747 4409 
Q 1447 4409 1140 4256 
Q 834 4103 569 3819 
L 569 4413 
Q 806 4659 1107 4790 
Q 1409 4922 1816 4922 
Q 2472 4922 2872 4570 
Q 3272 4219 3272 3619 
Q 3272 3084 3026 2693 
Q 2781 2303 2188 1894 
Q 1581 1475 1376 1294 
Q 1172 1113 1090 947 
Q 1009 781 1009 544 
L 3416 544 
L 3416 0 
L 372 0 
L 372 241 
Q 372 659 486 951 
Q 600 1244 862 1520 
Q 1125 1797 1681 2184 
Q 2250 2584 2458 2886 
Q 2666 3188 2666 3572 
z
" transform="scale(0.015625)"/>
        <path id="MicrosoftYaHei-30" d="M 284 2325 
Q 284 3606 709 4264 
Q 1134 4922 1941 4922 
Q 3478 4922 3478 2441 
Q 3478 1216 3045 567 
Q 2613 -81 1831 -81 
Q 1094 -81 689 534 
Q 284 1150 284 2325 
z
M 909 2353 
Q 909 425 1888 425 
Q 2850 425 2850 2384 
Q 2850 4413 1906 4413 
Q 909 4413 909 2353 
z
" transform="scale(0.015625)"/>
       </defs>
       <use xlink:href="#MicrosoftYaHei-32"/>
       <use xlink:href="#MicrosoftYaHei-30" transform="translate(58.642578 0)"/>
       <use xlink:href="#MicrosoftYaHei-30" transform="translate(117.285156 0)"/>
      </g>
     </g>
    </g>
    <g id="xtick_2">
     <g id="line2d_3">
      <path d="M 162.00821 358.10625 
L 162.00821 53.18625 
" clip-path="url(#p309baa31c0)" style="fill: none; stroke: #cccccc; stroke-opacity: 0.3; stroke-width: 0.8; stroke-linecap: square"/>
     </g>
     <g id="line2d_4">
      <g>
       <use xlink:href="#mc15b574f20" x="162.00821" y="358.10625" style="fill: #333333; stroke: #333333; stroke-width: 0.8"/>
      </g>
     </g>
     <g id="text_2">
      <!-- 400 -->
      <g style="fill: #333333" transform="translate(147.93446 377.89625) scale(0.16 -0.16)">
       <defs>
        <path id="MicrosoftYaHei-34" d="M 2906 4841 
L 2906 1644 
L 3631 1644 
L 3631 1138 
L 2906 1138 
L 2906 0 
L 2313 0 
L 2313 1138 
L 53 1138 
L 53 1616 
Q 656 2294 1265 3178 
Q 1875 4063 2272 4841 
L 2906 4841 
z
M 741 1644 
L 2313 1644 
L 2313 3950 
Q 1988 3366 1616 2817 
Q 1244 2269 741 1644 
z
" transform="scale(0.015625)"/>
       </defs>
       <use xlink:href="#MicrosoftYaHei-34"/>
       <use xlink:href="#MicrosoftYaHei-30" transform="translate(58.642578 0)"/>
       <use xlink:href="#MicrosoftYaHei-30" transform="translate(117.285156 0)"/>
      </g>
     </g>
    </g>
    <g id="xtick_3">
     <g id="line2d_5">
      <path d="M 229.644574 358.10625 
L 229.644574 53.18625 
" clip-path="url(#p309baa31c0)" style="fill: none; stroke: #cccccc; stroke-opacity: 0.3; stroke-width: 0.8; stroke-linecap: square"/>
     </g>
     <g id="line2d_6">
      <g>
       <use xlink:href="#mc15b574f20" x="229.644574" y="358.10625" style="fill: #333333; stroke: #333333; stroke-width: 0.8"/>
      </g>
     </g>
     <g id="text_3">
      <!-- 600 -->
      <g style="fill: #333333" transform="translate(215.570824 377.89625) scale(0.16 -0.16)">
       <defs>
        <path id="MicrosoftYaHei-36" d="M 3181 4219 
Q 2803 4413 2391 4413 
Q 1763 4413 1381 3866 
Q 1000 3319 994 2372 
L 1009 2372 
Q 1353 3038 2106 3038 
Q 2734 3038 3109 2628 
Q 3484 2219 3484 1541 
Q 3484 831 3051 375 
Q 2619 -81 1947 -81 
Q 1209 -81 789 495 
Q 369 1072 369 2131 
Q 369 3413 920 4167 
Q 1472 4922 2372 4922 
Q 2888 4922 3181 4781 
L 3181 4219 
z
M 1031 1584 
Q 1031 1106 1286 765 
Q 1541 425 1963 425 
Q 2363 425 2613 719 
Q 2863 1013 2863 1475 
Q 2863 1975 2627 2253 
Q 2391 2531 1956 2531 
Q 1544 2531 1287 2250 
Q 1031 1969 1031 1584 
z
" transform="scale(0.015625)"/>
       </defs>
       <use xlink:href="#MicrosoftYaHei-36"/>
       <use xlink:href="#MicrosoftYaHei-30" transform="translate(58.642578 0)"/>
       <use xlink:href="#MicrosoftYaHei-30" transform="translate(117.285156 0)"/>
      </g>
     </g>
    </g>
    <g id="xtick_4">
     <g id="line2d_7">
      <path d="M 297.280937 358.10625 
L 297.280937 53.18625 
" clip-path="url(#p309baa31c0)" style="fill: none; stroke: #cccccc; stroke-opacity: 0.3; stroke-width: 0.8; stroke-linecap: square"/>
     </g>
     <g id="line2d_8">
      <g>
       <use xlink:href="#mc15b574f20" x="297.280937" y="358.10625" style="fill: #333333; stroke: #333333; stroke-width: 0.8"/>
      </g>
     </g>
     <g id="text_4">
      <!-- 800 -->
      <g style="fill: #333333" transform="translate(283.207187 377.89625) scale(0.16 -0.16)">
       <defs>
        <path id="MicrosoftYaHei-38" d="M 306 1350 
Q 306 1769 556 2122 
Q 806 2475 1200 2625 
Q 884 2803 700 3081 
Q 516 3359 516 3684 
Q 516 4028 692 4312 
Q 869 4597 1183 4759 
Q 1497 4922 1875 4922 
Q 2256 4922 2572 4761 
Q 2888 4600 3063 4315 
Q 3238 4031 3238 3684 
Q 3238 3366 3058 3086 
Q 2878 2806 2559 2625 
Q 2953 2472 3200 2119 
Q 3447 1766 3447 1350 
Q 3447 938 3250 611 
Q 3053 284 2690 103 
Q 2328 -78 1875 -78 
Q 1425 -78 1065 103 
Q 706 284 506 612 
Q 306 941 306 1350 
z
M 906 1378 
Q 906 947 1172 687 
Q 1438 428 1878 428 
Q 2309 428 2582 692 
Q 2856 956 2856 1378 
Q 2856 1778 2579 2051 
Q 2303 2325 1878 2325 
Q 1456 2325 1181 2058 
Q 906 1791 906 1378 
z
M 1081 3634 
Q 1081 3309 1312 3076 
Q 1544 2844 1878 2844 
Q 2206 2844 2445 3078 
Q 2684 3313 2684 3634 
Q 2684 3963 2454 4191 
Q 2225 4419 1878 4419 
Q 1534 4419 1307 4195 
Q 1081 3972 1081 3634 
z
" transform="scale(0.015625)"/>
       </defs>
       <use xlink:href="#MicrosoftYaHei-38"/>
       <use xlink:href="#MicrosoftYaHei-30" transform="translate(58.642578 0)"/>
       <use xlink:href="#MicrosoftYaHei-30" transform="translate(117.285156 0)"/>
      </g>
     </g>
    </g>
    <g id="xtick_5">
     <g id="line2d_9">
      <path d="M 364.917301 358.10625 
L 364.917301 53.18625 
" clip-path="url(#p309baa31c0)" style="fill: none; stroke: #cccccc; stroke-opacity: 0.3; stroke-width: 0.8; stroke-linecap: square"/>
     </g>
     <g id="line2d_10">
      <g>
       <use xlink:href="#mc15b574f20" x="364.917301" y="358.10625" style="fill: #333333; stroke: #333333; stroke-width: 0.8"/>
      </g>
     </g>
     <g id="text_5">
      <!-- 1000 -->
      <g style="fill: #333333" transform="translate(346.152301 377.89625) scale(0.16 -0.16)">
       <defs>
        <path id="MicrosoftYaHei-31" d="M 1781 0 
L 1781 4141 
Q 1638 3997 1295 3819 
Q 953 3641 663 3569 
L 663 4169 
Q 1047 4275 1484 4508 
Q 1922 4741 2156 4947 
L 2388 4947 
L 2388 0 
L 1781 0 
z
" transform="scale(0.015625)"/>
       </defs>
       <use xlink:href="#MicrosoftYaHei-31"/>
       <use xlink:href="#MicrosoftYaHei-30" transform="translate(58.642578 0)"/>
       <use xlink:href="#MicrosoftYaHei-30" transform="translate(117.285156 0)"/>
       <use xlink:href="#MicrosoftYaHei-30" transform="translate(175.927734 0)"/>
      </g>
     </g>
    </g>
    <g id="xtick_6">
     <g id="line2d_11">
      <path d="M 432.553665 358.10625 
L 432.553665 53.18625 
" clip-path="url(#p309baa31c0)" style="fill: none; stroke: #cccccc; stroke-opacity: 0.3; stroke-width: 0.8; stroke-linecap: square"/>
     </g>
     <g id="line2d_12">
      <g>
       <use xlink:href="#mc15b574f20" x="432.553665" y="358.10625" style="fill: #333333; stroke: #333333; stroke-width: 0.8"/>
      </g>
     </g>
     <g id="text_6">
      <!-- 1200 -->
      <g style="fill: #333333" transform="translate(413.788665 377.89625) scale(0.16 -0.16)">
       <use xlink:href="#MicrosoftYaHei-31"/>
       <use xlink:href="#MicrosoftYaHei-32" transform="translate(58.642578 0)"/>
       <use xlink:href="#MicrosoftYaHei-30" transform="translate(117.285156 0)"/>
       <use xlink:href="#MicrosoftYaHei-30" transform="translate(175.927734 0)"/>
      </g>
     </g>
    </g>
    <g id="xtick_7">
     <g id="line2d_13">
      <path d="M 500.190028 358.10625 
L 500.190028 53.18625 
" clip-path="url(#p309baa31c0)" style="fill: none; stroke: #cccccc; stroke-opacity: 0.3; stroke-width: 0.8; stroke-linecap: square"/>
     </g>
     <g id="line2d_14">
      <g>
       <use xlink:href="#mc15b574f20" x="500.190028" y="358.10625" style="fill: #333333; stroke: #333333; stroke-width: 0.8"/>
      </g>
     </g>
     <g id="text_7">
      <!-- 1400 -->
      <g style="fill: #333333" transform="translate(481.425028 377.89625) scale(0.16 -0.16)">
       <use xlink:href="#MicrosoftYaHei-31"/>
       <use xlink:href="#MicrosoftYaHei-34" transform="translate(58.642578 0)"/>
       <use xlink:href="#MicrosoftYaHei-30" transform="translate(117.285156 0)"/>
       <use xlink:href="#MicrosoftYaHei-30" transform="translate(175.927734 0)"/>
      </g>
     </g>
    </g>
    <g id="text_8">
     <!-- 训练样本数 -->
     <g style="fill: #222222" transform="translate(252.280937 400.2625) scale(0.18 -0.18)">
      <defs>
       <path id="MicrosoftYaHei-8bad" d="M 2581 5178 
L 3056 5178 
L 3056 2722 
Q 3056 1272 2831 466 
Q 2613 -297 1981 -872 
Q 1769 -678 1550 -534 
Q 2156 -66 2375 647 
Q 2581 1353 2581 2678 
L 2581 5178 
z
M 5506 5184 
L 5981 5184 
L 5981 -772 
L 5506 -772 
L 5506 5184 
z
M 4038 4953 
L 4513 4953 
L 4513 -403 
L 4038 -403 
L 4038 4953 
z
M 2025 1372 
Q 2025 1059 2069 784 
Q 1438 247 913 -284 
L 625 116 
Q 838 316 838 691 
L 838 2803 
L 81 2803 
L 81 3253 
L 1313 3253 
L 1313 709 
Q 1650 1009 2025 1372 
z
M 875 5191 
Q 1438 4628 1850 4166 
L 1413 3797 
Q 1031 4303 500 4872 
L 875 5191 
z
" transform="scale(0.015625)"/>
       <path id="MicrosoftYaHei-7ec3" d="M 2363 3403 
L 3059 3403 
Q 3203 3781 3344 4197 
L 2213 4197 
L 2213 4622 
L 3488 4622 
Q 3603 4975 3719 5353 
L 4219 5253 
Q 4109 4931 4000 4622 
L 6000 4622 
L 6000 4197 
L 3847 4197 
Q 3700 3791 3553 3403 
L 4763 3403 
L 4763 2016 
L 6025 2016 
L 6025 1591 
L 4763 1591 
L 4763 3 
Q 4763 -734 4056 -734 
Q 3788 -734 3369 -728 
Q 3331 -516 3263 -241 
Q 3638 -284 3931 -284 
Q 4300 -284 4300 109 
L 4300 1591 
L 2475 1591 
L 2475 1997 
Q 2688 2450 2897 2978 
L 2363 2978 
L 2363 3403 
z
M 888 1566 
Q 1531 1659 2219 1778 
Q 2181 1547 2163 1297 
Q 1600 1216 319 1003 
L 219 1472 
Q 669 1969 1175 2794 
Q 666 2763 219 2722 
L 100 3147 
Q 700 3966 1294 5366 
L 1750 5178 
Q 1088 3878 644 3184 
Q 1078 3194 1419 3203 
Q 1669 3638 1931 4147 
L 2388 3916 
Q 1656 2659 888 1566 
z
M 3013 2016 
L 4300 2016 
L 4300 2978 
L 3394 2978 
Q 3203 2484 3013 2016 
z
M 94 122 
Q 1031 291 2219 559 
Q 2200 316 2206 78 
Q 1231 -103 219 -353 
L 94 122 
z
M 3194 1272 
L 3638 1066 
Q 3194 203 2700 -547 
Q 2500 -397 2275 -278 
Q 2813 459 3194 1272 
z
M 5094 1041 
L 5500 1278 
Q 5963 578 6381 -122 
L 5950 -391 
Q 5544 366 5094 1041 
z
" transform="scale(0.015625)"/>
       <path id="MicrosoftYaHei-6837" d="M 2150 1197 
L 3981 1197 
L 3981 2222 
L 2619 2222 
L 2619 2659 
L 3981 2659 
L 3981 3641 
L 2475 3641 
L 2475 4078 
L 4406 4078 
Q 4925 4828 5188 5316 
L 5650 5022 
Q 5325 4578 4931 4078 
L 6075 4078 
L 6075 3641 
L 4469 3641 
L 4469 2659 
L 5900 2659 
L 5900 2222 
L 4469 2222 
L 4469 1197 
L 6275 1197 
L 6275 759 
L 4469 759 
L 4469 -872 
L 3981 -872 
L 3981 759 
L 2150 759 
L 2150 1197 
z
M 94 1384 
Q 700 2316 1038 3603 
L 163 3603 
L 163 4022 
L 1088 4022 
L 1088 5259 
L 1544 5259 
L 1544 4022 
L 2275 4022 
L 2275 3603 
L 1544 3603 
L 1544 2622 
L 1794 2847 
Q 2200 2447 2594 2022 
L 2238 1697 
Q 1756 2247 1544 2472 
L 1544 -872 
L 1088 -872 
L 1088 2559 
Q 750 1547 319 841 
Q 225 1109 94 1384 
z
M 2831 5047 
L 3200 5322 
Q 3694 4766 3906 4466 
L 3481 4172 
Q 3113 4703 2831 5047 
z
" transform="scale(0.015625)"/>
       <path id="MicrosoftYaHei-672c" d="M 6281 803 
Q 6119 641 5856 366 
Q 4344 1531 3444 3353 
L 3444 878 
L 4875 878 
L 4875 441 
L 3444 441 
L 3444 -841 
L 2956 -841 
L 2956 441 
L 1475 441 
L 1475 878 
L 2956 878 
L 2956 3353 
Q 2159 1766 513 291 
Q 269 522 100 666 
Q 1878 2125 2759 3753 
L 238 3753 
L 238 4216 
L 2956 4216 
L 2956 5341 
L 3444 5341 
L 3444 4216 
L 6163 4216 
L 6163 3753 
L 3622 3753 
Q 4616 1884 6281 803 
z
" transform="scale(0.015625)"/>
       <path id="MicrosoftYaHei-6570" d="M 4175 5303 
L 4675 5228 
Q 4544 4622 4369 4097 
L 6281 4097 
L 6281 3672 
L 5888 3672 
Q 5731 1834 5088 753 
Q 5594 66 6375 -372 
Q 6175 -647 6038 -866 
Q 5275 -372 4769 309 
Q 4194 -403 3400 -928 
Q 3263 -747 3044 -534 
Q 3919 41 4463 772 
Q 3956 1647 3794 2791 
Q 3663 2559 3519 2359 
Q 3394 2541 3206 2759 
Q 3931 3803 4175 5303 
z
M 150 1697 
L 1100 1697 
Q 1238 1934 1369 2184 
L 1819 2041 
Q 1719 1866 1619 1697 
L 3150 1697 
L 3150 1291 
Q 2913 678 2431 216 
Q 2775 53 3131 -109 
L 2856 -541 
Q 2469 -322 2050 -103 
Q 1344 -609 269 -903 
Q 169 -703 56 -466 
Q 969 -259 1600 128 
Q 1063 403 475 691 
Q 675 978 863 1284 
L 150 1284 
L 150 1697 
z
M 219 3847 
L 1656 3847 
L 1656 5247 
L 2119 5247 
L 2119 3847 
L 3319 3847 
L 3319 3434 
L 2119 3434 
L 2119 3053 
L 2306 3266 
Q 2888 2841 3281 2516 
L 2981 2166 
Q 2638 2491 2119 2897 
L 2119 2184 
L 1656 2184 
L 1656 3059 
Q 1088 2466 331 2016 
Q 213 2197 63 2397 
Q 850 2822 1506 3434 
L 219 3434 
L 219 3847 
z
M 5388 3672 
L 4219 3672 
Q 4188 3591 4150 3516 
Q 4263 2191 4775 1247 
Q 5275 2159 5388 3672 
z
M 1088 834 
Q 1531 634 2000 416 
Q 2431 784 2675 1284 
L 1375 1284 
Q 1231 1053 1088 834 
z
M 3038 5091 
L 3425 4834 
Q 3081 4384 2738 4003 
Q 2594 4128 2400 4266 
Q 2725 4647 3038 5091 
z
M 381 4816 
L 738 5059 
Q 1019 4716 1319 4322 
L 931 4047 
Q 656 4453 381 4816 
z
" transform="scale(0.015625)"/>
      </defs>
      <use xlink:href="#MicrosoftYaHei-8bad"/>
      <use xlink:href="#MicrosoftYaHei-7ec3" transform="translate(100 0)"/>
      <use xlink:href="#MicrosoftYaHei-6837" transform="translate(200 0)"/>
      <use xlink:href="#MicrosoftYaHei-672c" transform="translate(300 0)"/>
      <use xlink:href="#MicrosoftYaHei-6570" transform="translate(400 0)"/>
     </g>
    </g>
   </g>
   <g id="matplotlib.axis_2">
    <g id="ytick_1">
     <g id="line2d_15">
      <path d="M 74.080938 341.16625 
L 520.480937 341.16625 
" clip-path="url(#p309baa31c0)" style="fill: none; stroke: #cccccc; stroke-opacity: 0.3; stroke-width: 0.8; stroke-linecap: square"/>
     </g>
     <g id="line2d_16">
      <defs>
       <path id="mf7e8789974" d="M 0 0 
L -3.5 0 
" style="stroke: #333333; stroke-width: 0.8"/>
      </defs>
      <g>
       <use xlink:href="#mf7e8789974" x="74.080938" y="341.16625" style="fill: #333333; stroke: #333333; stroke-width: 0.8"/>
      </g>
     </g>
     <g id="text_9">
      <!-- 0.2 -->
      <g style="fill: #333333" transform="translate(44.463438 347.56125) scale(0.16 -0.16)">
       <defs>
        <path id="MicrosoftYaHei-2e" d="M 372 322 
Q 372 491 487 606 
Q 603 722 775 722 
Q 950 722 1065 605 
Q 1181 488 1181 322 
Q 1181 159 1065 42 
Q 950 -75 772 -75 
Q 600 -75 486 42 
Q 372 159 372 322 
z
" transform="scale(0.015625)"/>
       </defs>
       <use xlink:href="#MicrosoftYaHei-30"/>
       <use xlink:href="#MicrosoftYaHei-2e" transform="translate(58.642578 0)"/>
       <use xlink:href="#MicrosoftYaHei-32" transform="translate(82.714844 0)"/>
      </g>
     </g>
    </g>
    <g id="ytick_2">
     <g id="line2d_17">
      <path d="M 74.080938 307.28625 
L 520.480937 307.28625 
" clip-path="url(#p309baa31c0)" style="fill: none; stroke: #cccccc; stroke-opacity: 0.3; stroke-width: 0.8; stroke-linecap: square"/>
     </g>
     <g id="line2d_18">
      <g>
       <use xlink:href="#mf7e8789974" x="74.080938" y="307.28625" style="fill: #333333; stroke: #333333; stroke-width: 0.8"/>
      </g>
     </g>
     <g id="text_10">
      <!-- 0.3 -->
      <g style="fill: #333333" transform="translate(44.463438 313.68125) scale(0.16 -0.16)">
       <defs>
        <path id="MicrosoftYaHei-33" d="M 447 809 
Q 944 425 1569 425 
Q 2069 425 2361 670 
Q 2653 916 2653 1328 
Q 2653 2247 1338 2247 
L 934 2247 
L 934 2753 
L 1319 2753 
Q 2484 2753 2484 3616 
Q 2484 4413 1594 4413 
Q 1084 4413 634 4069 
L 634 4647 
Q 1109 4922 1744 4922 
Q 2363 4922 2738 4598 
Q 3113 4275 3113 3759 
Q 3113 2809 2144 2538 
L 2144 2525 
Q 2669 2469 2973 2155 
Q 3278 1841 3278 1372 
Q 3278 719 2808 319 
Q 2338 -81 1556 -81 
Q 869 -81 447 175 
L 447 809 
z
" transform="scale(0.015625)"/>
       </defs>
       <use xlink:href="#MicrosoftYaHei-30"/>
       <use xlink:href="#MicrosoftYaHei-2e" transform="translate(58.642578 0)"/>
       <use xlink:href="#MicrosoftYaHei-33" transform="translate(82.714844 0)"/>
      </g>
     </g>
    </g>
    <g id="ytick_3">
     <g id="line2d_19">
      <path d="M 74.080938 273.40625 
L 520.480937 273.40625 
" clip-path="url(#p309baa31c0)" style="fill: none; stroke: #cccccc; stroke-opacity: 0.3; stroke-width: 0.8; stroke-linecap: square"/>
     </g>
     <g id="line2d_20">
      <g>
       <use xlink:href="#mf7e8789974" x="74.080938" y="273.40625" style="fill: #333333; stroke: #333333; stroke-width: 0.8"/>
      </g>
     </g>
     <g id="text_11">
      <!-- 0.4 -->
      <g style="fill: #333333" transform="translate(44.463438 279.80125) scale(0.16 -0.16)">
       <use xlink:href="#MicrosoftYaHei-30"/>
       <use xlink:href="#MicrosoftYaHei-2e" transform="translate(58.642578 0)"/>
       <use xlink:href="#MicrosoftYaHei-34" transform="translate(82.714844 0)"/>
      </g>
     </g>
    </g>
    <g id="ytick_4">
     <g id="line2d_21">
      <path d="M 74.080938 239.52625 
L 520.480937 239.52625 
" clip-path="url(#p309baa31c0)" style="fill: none; stroke: #cccccc; stroke-opacity: 0.3; stroke-width: 0.8; stroke-linecap: square"/>
     </g>
     <g id="line2d_22">
      <g>
       <use xlink:href="#mf7e8789974" x="74.080938" y="239.52625" style="fill: #333333; stroke: #333333; stroke-width: 0.8"/>
      </g>
     </g>
     <g id="text_12">
      <!-- 0.5 -->
      <g style="fill: #333333" transform="translate(44.463438 245.92125) scale(0.16 -0.16)">
       <defs>
        <path id="MicrosoftYaHei-35" d="M 3294 1494 
Q 3294 784 2823 350 
Q 2353 -84 1559 -84 
Q 878 -84 544 119 
L 544 744 
Q 1034 425 1544 425 
Q 2050 425 2361 704 
Q 2672 984 2672 1447 
Q 2672 1909 2348 2167 
Q 2025 2425 1434 2425 
Q 978 2425 613 2384 
L 791 4841 
L 3053 4841 
L 3053 4303 
L 1306 4303 
L 1206 2931 
L 1647 2950 
Q 2416 2950 2855 2567 
Q 3294 2184 3294 1494 
z
" transform="scale(0.015625)"/>
       </defs>
       <use xlink:href="#MicrosoftYaHei-30"/>
       <use xlink:href="#MicrosoftYaHei-2e" transform="translate(58.642578 0)"/>
       <use xlink:href="#MicrosoftYaHei-35" transform="translate(82.714844 0)"/>
      </g>
     </g>
    </g>
    <g id="ytick_5">
     <g id="line2d_23">
      <path d="M 74.080938 205.64625 
L 520.480937 205.64625 
" clip-path="url(#p309baa31c0)" style="fill: none; stroke: #cccccc; stroke-opacity: 0.3; stroke-width: 0.8; stroke-linecap: square"/>
     </g>
     <g id="line2d_24">
      <g>
       <use xlink:href="#mf7e8789974" x="74.080938" y="205.64625" style="fill: #333333; stroke: #333333; stroke-width: 0.8"/>
      </g>
     </g>
     <g id="text_13">
      <!-- 0.6 -->
      <g style="fill: #333333" transform="translate(44.463438 212.04125) scale(0.16 -0.16)">
       <use xlink:href="#MicrosoftYaHei-30"/>
       <use xlink:href="#MicrosoftYaHei-2e" transform="translate(58.642578 0)"/>
       <use xlink:href="#MicrosoftYaHei-36" transform="translate(82.714844 0)"/>
      </g>
     </g>
    </g>
    <g id="ytick_6">
     <g id="line2d_25">
      <path d="M 74.080938 171.76625 
L 520.480937 171.76625 
" clip-path="url(#p309baa31c0)" style="fill: none; stroke: #cccccc; stroke-opacity: 0.3; stroke-width: 0.8; stroke-linecap: square"/>
     </g>
     <g id="line2d_26">
      <g>
       <use xlink:href="#mf7e8789974" x="74.080938" y="171.76625" style="fill: #333333; stroke: #333333; stroke-width: 0.8"/>
      </g>
     </g>
     <g id="text_14">
      <!-- 0.7 -->
      <g style="fill: #333333" transform="translate(44.463438 178.16125) scale(0.16 -0.16)">
       <defs>
        <path id="MicrosoftYaHei-37" d="M 3422 4463 
Q 2659 3131 2223 1998 
Q 1788 866 1684 0 
L 1047 0 
Q 1163 853 1594 1947 
Q 2025 3041 2747 4300 
L 347 4300 
L 347 4841 
L 3422 4841 
L 3422 4463 
z
" transform="scale(0.015625)"/>
       </defs>
       <use xlink:href="#MicrosoftYaHei-30"/>
       <use xlink:href="#MicrosoftYaHei-2e" transform="translate(58.642578 0)"/>
       <use xlink:href="#MicrosoftYaHei-37" transform="translate(82.714844 0)"/>
      </g>
     </g>
    </g>
    <g id="ytick_7">
     <g id="line2d_27">
      <path d="M 74.080938 137.88625 
L 520.480937 137.88625 
" clip-path="url(#p309baa31c0)" style="fill: none; stroke: #cccccc; stroke-opacity: 0.3; stroke-width: 0.8; stroke-linecap: square"/>
     </g>
     <g id="line2d_28">
      <g>
       <use xlink:href="#mf7e8789974" x="74.080938" y="137.88625" style="fill: #333333; stroke: #333333; stroke-width: 0.8"/>
      </g>
     </g>
     <g id="text_15">
      <!-- 0.8 -->
      <g style="fill: #333333" transform="translate(44.463438 144.28125) scale(0.16 -0.16)">
       <use xlink:href="#MicrosoftYaHei-30"/>
       <use xlink:href="#MicrosoftYaHei-2e" transform="translate(58.642578 0)"/>
       <use xlink:href="#MicrosoftYaHei-38" transform="translate(82.714844 0)"/>
      </g>
     </g>
    </g>
    <g id="ytick_8">
     <g id="line2d_29">
      <path d="M 74.080938 104.00625 
L 520.480937 104.00625 
" clip-path="url(#p309baa31c0)" style="fill: none; stroke: #cccccc; stroke-opacity: 0.3; stroke-width: 0.8; stroke-linecap: square"/>
     </g>
     <g id="line2d_30">
      <g>
       <use xlink:href="#mf7e8789974" x="74.080938" y="104.00625" style="fill: #333333; stroke: #333333; stroke-width: 0.8"/>
      </g>
     </g>
     <g id="text_16">
      <!-- 0.9 -->
      <g style="fill: #333333" transform="translate(44.463438 110.40125) scale(0.16 -0.16)">
       <defs>
        <path id="MicrosoftYaHei-39" d="M 578 656 
Q 978 425 1441 425 
Q 2091 425 2448 937 
Q 2806 1450 2806 2394 
Q 2800 2388 2794 2394 
Q 2475 1788 1722 1788 
Q 1113 1788 713 2206 
Q 313 2625 313 3294 
Q 313 4006 750 4464 
Q 1188 4922 1884 4922 
Q 2606 4922 3012 4355 
Q 3419 3788 3419 2703 
Q 3419 1363 2894 641 
Q 2369 -81 1441 -81 
Q 931 -81 578 84 
L 578 656 
z
M 931 3372 
Q 931 2884 1181 2598 
Q 1431 2313 1872 2313 
Q 2253 2313 2512 2573 
Q 2772 2834 2772 3206 
Q 2772 3728 2514 4070 
Q 2256 4413 1834 4413 
Q 1444 4413 1187 4116 
Q 931 3819 931 3372 
z
" transform="scale(0.015625)"/>
       </defs>
       <use xlink:href="#MicrosoftYaHei-30"/>
       <use xlink:href="#MicrosoftYaHei-2e" transform="translate(58.642578 0)"/>
       <use xlink:href="#MicrosoftYaHei-39" transform="translate(82.714844 0)"/>
      </g>
     </g>
    </g>
    <g id="ytick_9">
     <g id="line2d_31">
      <path d="M 74.080938 70.12625 
L 520.480937 70.12625 
" clip-path="url(#p309baa31c0)" style="fill: none; stroke: #cccccc; stroke-opacity: 0.3; stroke-width: 0.8; stroke-linecap: square"/>
     </g>
     <g id="line2d_32">
      <g>
       <use xlink:href="#mf7e8789974" x="74.080938" y="70.12625" style="fill: #333333; stroke: #333333; stroke-width: 0.8"/>
      </g>
     </g>
     <g id="text_17">
      <!-- 1.0 -->
      <g style="fill: #333333" transform="translate(44.463438 76.52125) scale(0.16 -0.16)">
       <use xlink:href="#MicrosoftYaHei-31"/>
       <use xlink:href="#MicrosoftYaHei-2e" transform="translate(58.642578 0)"/>
       <use xlink:href="#MicrosoftYaHei-30" transform="translate(82.714844 0)"/>
      </g>
     </g>
    </g>
    <g id="text_18">
     <!-- 准确率 -->
     <g style="fill: #222222" transform="translate(35.98875 232.64625) rotate(-90) scale(0.18 -0.18)">
      <defs>
       <path id="MicrosoftYaHei-51c6" d="M 1413 2766 
Q 2313 3866 2869 5334 
L 3331 5172 
Q 3128 4694 2906 4253 
L 6194 4253 
L 6194 3822 
L 4675 3822 
L 4675 2891 
L 6025 2891 
L 6025 2459 
L 4675 2459 
L 4675 1528 
L 6038 1528 
L 6038 1097 
L 4675 1097 
L 4675 78 
L 6275 78 
L 6275 -341 
L 2769 -341 
L 2769 -841 
L 2281 -841 
L 2281 3131 
Q 2034 2738 1769 2384 
Q 1631 2578 1413 2766 
z
M 2769 78 
L 4188 78 
L 4188 1097 
L 2769 1097 
L 2769 78 
z
M 1081 2422 
Q 1325 2291 1556 2209 
Q 1113 916 681 -372 
L 169 -141 
Q 650 1003 1081 2422 
z
M 2769 1528 
L 4188 1528 
L 4188 2459 
L 2769 2459 
L 2769 1528 
z
M 2769 2891 
L 4188 2891 
L 4188 3822 
L 2769 3822 
L 2769 2891 
z
M 531 4991 
Q 1050 4384 1581 3709 
Q 1538 3678 1150 3341 
Q 681 3997 138 4672 
L 531 4991 
z
M 3919 5116 
L 4325 5372 
Q 4569 5072 4881 4622 
L 4450 4334 
Q 4156 4784 3919 5116 
z
" transform="scale(0.015625)"/>
       <path id="MicrosoftYaHei-786e" d="M 2075 3453 
Q 2956 4334 3456 5359 
L 3931 5272 
Q 3781 4991 3619 4722 
L 5438 4722 
L 5438 4328 
L 4909 3666 
L 6063 3666 
L 6063 -53 
Q 6063 -728 5475 -728 
Q 5144 -728 4906 -716 
Q 4869 -497 4813 -259 
Q 5156 -291 5331 -291 
Q 5619 -291 5619 16 
L 5619 734 
L 4588 734 
L 4588 -659 
L 4144 -659 
L 4144 734 
L 3113 734 
Q 2944 -263 2444 -884 
Q 2288 -703 2081 -509 
Q 2756 291 2756 1841 
L 2756 3506 
Q 2597 3316 2431 3134 
Q 2281 3278 2075 3453 
z
M 31 1691 
Q 741 2834 1066 4291 
L 231 4291 
L 231 4716 
L 2469 4716 
L 2469 4291 
L 1509 4291 
Q 1356 3613 1128 2991 
L 2200 2991 
L 2200 128 
L 1150 128 
L 1150 -347 
L 738 -347 
L 738 2059 
Q 559 1691 350 1347 
Q 225 1497 31 1691 
z
M 1788 541 
L 1788 2578 
L 1150 2578 
L 1150 541 
L 1788 541 
z
M 4875 4322 
L 3366 4322 
Q 3138 3981 2884 3666 
L 4384 3666 
L 4875 4322 
z
M 4588 1134 
L 5619 1134 
L 5619 1991 
L 4588 1991 
L 4588 1134 
z
M 5619 3241 
L 4588 3241 
L 4588 2391 
L 5619 2391 
L 5619 3241 
z
M 3166 1134 
L 4144 1134 
L 4144 1991 
L 3200 1991 
Q 3200 1841 3166 1134 
z
M 3200 2391 
L 4144 2391 
L 4144 3241 
L 3200 3241 
L 3200 2391 
z
" transform="scale(0.015625)"/>
       <path id="MicrosoftYaHei-7387" d="M 2525 2009 
Q 2622 2016 3928 2081 
Q 3772 2300 3625 2491 
L 3963 2703 
Q 4413 2203 4794 1653 
L 4394 1403 
Q 4284 1569 4178 1725 
Q 2991 1659 2213 1597 
Q 2075 1584 1881 1541 
L 1725 1966 
Q 1913 2028 2006 2084 
Q 2534 2441 3050 2913 
Q 2597 2894 2275 2866 
Q 2144 2847 1988 2809 
L 1800 3191 
Q 1956 3247 2088 3366 
Q 2509 3722 2875 4228 
L 231 4228 
L 231 4666 
L 3031 4666 
Q 2878 4944 2744 5153 
L 3194 5372 
Q 3438 5000 3616 4666 
L 6175 4666 
L 6175 4228 
L 3053 4228 
L 3350 4072 
Q 2844 3553 2494 3247 
Q 2850 3256 3425 3269 
Q 3675 3519 3925 3797 
L 4356 3547 
Q 3363 2603 2525 2009 
z
M 144 991 
L 2994 991 
L 2994 1541 
L 3488 1541 
L 3488 991 
L 6275 991 
L 6275 553 
L 3488 553 
L 3488 -853 
L 2994 -853 
L 2994 553 
L 144 553 
L 144 991 
z
M 1719 2672 
L 1944 2303 
Q 1200 1866 425 1409 
L 163 1828 
Q 813 2134 1719 2672 
z
M 4856 2678 
Q 5750 2172 6250 1816 
L 5975 1409 
Q 5331 1909 4600 2341 
L 4856 2678 
z
M 5994 3591 
Q 5519 3178 4963 2809 
L 4644 3141 
Q 5244 3534 5638 3928 
L 5994 3591 
z
M 363 3634 
L 681 3941 
Q 1200 3528 1588 3159 
L 1238 2816 
Q 875 3197 363 3634 
z
" transform="scale(0.015625)"/>
      </defs>
      <use xlink:href="#MicrosoftYaHei-51c6"/>
      <use xlink:href="#MicrosoftYaHei-786e" transform="translate(100 0)"/>
      <use xlink:href="#MicrosoftYaHei-7387" transform="translate(200 0)"/>
     </g>
    </g>
   </g>
   <g id="line2d_33">
    <path d="M 94.371847 70.12625 
L 162.00821 75.20825 
L 229.644574 79.61265 
L 297.280937 82.66185 
L 364.917301 84.69465 
L 432.553665 86.38865 
L 500.190028 87.40505 
" clip-path="url(#p309baa31c0)" style="fill: none; stroke: #1565c0; stroke-width: 2.5; stroke-linecap: square"/>
    <defs>
     <path id="m7fc14e00c8" d="M 0 3.5 
C 0.928211 3.5 1.81853 3.131218 2.474874 2.474874 
C 3.131218 1.81853 3.5 0.928211 3.5 0 
C 3.5 -0.928211 3.131218 -1.81853 2.474874 -2.474874 
C 1.81853 -3.131218 0.928211 -3.5 0 -3.5 
C -0.928211 -3.5 -1.81853 -3.131218 -2.474874 -2.474874 
C -3.131218 -1.81853 -3.5 -0.928211 -3.5 0 
C -3.5 0.928211 -3.131218 1.81853 -2.474874 2.474874 
C -1.81853 3.131218 -0.928211 3.5 0 3.5 
z
" style="stroke: #1565c0"/>
    </defs>
    <g clip-path="url(#p309baa31c0)">
     <use xlink:href="#m7fc14e00c8" x="94.371847" y="70.12625" style="fill: #1565c0; stroke: #1565c0"/>
     <use xlink:href="#m7fc14e00c8" x="162.00821" y="75.20825" style="fill: #1565c0; stroke: #1565c0"/>
     <use xlink:href="#m7fc14e00c8" x="229.644574" y="79.61265" style="fill: #1565c0; stroke: #1565c0"/>
     <use xlink:href="#m7fc14e00c8" x="297.280937" y="82.66185" style="fill: #1565c0; stroke: #1565c0"/>
     <use xlink:href="#m7fc14e00c8" x="364.917301" y="84.69465" style="fill: #1565c0; stroke: #1565c0"/>
     <use xlink:href="#m7fc14e00c8" x="432.553665" y="86.38865" style="fill: #1565c0; stroke: #1565c0"/>
     <use xlink:href="#m7fc14e00c8" x="500.190028" y="87.40505" style="fill: #1565c0; stroke: #1565c0"/>
    </g>
   </g>
   <g id="line2d_34">
    <path d="M 94.371847 324.22625 
L 162.00821 198.87025 
L 229.644574 154.82625 
L 297.280937 134.49825 
L 364.917301 122.64025 
L 432.553665 116.88065 
L 500.190028 113.83145 
" clip-path="url(#p309baa31c0)" style="fill: none; stroke: #e65100; stroke-width: 2.5; stroke-linecap: square"/>
    <defs>
     <path id="m38ebda7b2f" d="M -3.5 3.5 
L 3.5 3.5 
L 3.5 -3.5 
L -3.5 -3.5 
z
" style="stroke: #e65100; stroke-linejoin: miter"/>
    </defs>
    <g clip-path="url(#p309baa31c0)">
     <use xlink:href="#m38ebda7b2f" x="94.371847" y="324.22625" style="fill: #e65100; stroke: #e65100; stroke-linejoin: miter"/>
     <use xlink:href="#m38ebda7b2f" x="162.00821" y="198.87025" style="fill: #e65100; stroke: #e65100; stroke-linejoin: miter"/>
     <use xlink:href="#m38ebda7b2f" x="229.644574" y="154.82625" style="fill: #e65100; stroke: #e65100; stroke-linejoin: miter"/>
     <use xlink:href="#m38ebda7b2f" x="297.280937" y="134.49825" style="fill: #e65100; stroke: #e65100; stroke-linejoin: miter"/>
     <use xlink:href="#m38ebda7b2f" x="364.917301" y="122.64025" style="fill: #e65100; stroke: #e65100; stroke-linejoin: miter"/>
     <use xlink:href="#m38ebda7b2f" x="432.553665" y="116.88065" style="fill: #e65100; stroke: #e65100; stroke-linejoin: miter"/>
     <use xlink:href="#m38ebda7b2f" x="500.190028" y="113.83145" style="fill: #e65100; stroke: #e65100; stroke-linejoin: miter"/>
    </g>
   </g>
   <g id="patch_3">
    <path d="M 74.080938 358.10625 
L 74.080938 53.18625 
" style="fill: none; stroke: #333333; stroke-width: 0.8; stroke-linejoin: miter; stroke-linecap: square"/>
   </g>
   <g id="patch_4">
    <path d="M 520.480937 358.10625 
L 520.480937 53.18625 
" style="fill: none; stroke: #333333; stroke-width: 0.8; stroke-linejoin: miter; stroke-linecap: square"/>
   </g>
   <g id="patch_5">
    <path d="M 74.080938 358.10625 
L 520.480937 358.10625 
" style="fill: none; stroke: #333333; stroke-width: 0.8; stroke-linejoin: miter; stroke-linecap: square"/>
   </g>
   <g id="patch_6">
    <path d="M 74.080938 53.18625 
L 520.480937 53.18625 
" style="fill: none; stroke: #333333; stroke-width: 0.8; stroke-linejoin: miter; stroke-linecap: square"/>
   </g>
   <g id="text_19">
    <!-- 94.9% -->
    <g style="fill: #1565c0" transform="translate(510.190028 77.40505) scale(0.16 -0.16)">
     <defs>
      <path id="MicrosoftYaHei-Bold-39" d="M 544 941 
Q 931 691 1456 691 
Q 2628 691 2653 2216 
L 2634 2222 
Q 2316 1731 1650 1731 
Q 1047 1731 658 2154 
Q 269 2578 269 3222 
Q 269 3978 737 4450 
Q 1206 4922 1959 4922 
Q 2744 4922 3191 4325 
Q 3638 3728 3638 2659 
Q 3638 1391 3098 653 
Q 2559 -84 1547 -84 
Q 975 -84 544 100 
L 544 941 
z
M 1259 3313 
Q 1259 2928 1445 2709 
Q 1631 2491 1953 2491 
Q 2241 2491 2427 2700 
Q 2613 2909 2613 3219 
Q 2613 3591 2427 3869 
Q 2241 4147 1928 4147 
Q 1625 4147 1442 3906 
Q 1259 3666 1259 3313 
z
" transform="scale(0.015625)"/>
      <path id="MicrosoftYaHei-Bold-34" d="M 3184 4841 
L 3184 1766 
L 3869 1766 
L 3869 1031 
L 3184 1031 
L 3184 0 
L 2266 0 
L 2266 1031 
L 103 1031 
L 103 1772 
Q 775 2522 1362 3359 
Q 1950 4197 2250 4841 
L 3184 4841 
z
M 997 1766 
L 2266 1766 
L 2266 3541 
Q 2116 3259 1836 2859 
Q 1556 2459 997 1766 
z
" transform="scale(0.015625)"/>
      <path id="MicrosoftYaHei-Bold-2e" d="M 313 453 
Q 313 688 491 838 
Q 669 988 916 988 
Q 1166 988 1337 834 
Q 1509 681 1509 453 
Q 1509 213 1337 64 
Q 1166 -84 903 -84 
Q 659 -84 486 69 
Q 313 222 313 453 
z
" transform="scale(0.015625)"/>
      <path id="MicrosoftYaHei-Bold-25" d="M 297 3597 
Q 297 4191 626 4548 
Q 956 4906 1519 4906 
Q 2056 4906 2354 4581 
Q 2653 4256 2653 3684 
Q 2653 3097 2322 2744 
Q 1991 2391 1438 2391 
Q 919 2391 608 2722 
Q 297 3053 297 3597 
z
M 984 3631 
Q 984 2959 1478 2959 
Q 1981 2959 1981 3659 
Q 1981 4338 1500 4338 
Q 984 4338 984 3631 
z
M 4938 4841 
L 1791 -3 
L 1006 -3 
L 4147 4841 
L 4938 4841 
z
M 3297 1141 
Q 3297 1741 3631 2095 
Q 3966 2450 4522 2450 
Q 5059 2450 5357 2131 
Q 5656 1813 5656 1234 
Q 5656 641 5322 286 
Q 4988 -69 4438 -69 
Q 3922 -69 3609 264 
Q 3297 597 3297 1141 
z
M 3981 1175 
Q 3981 500 4478 500 
Q 4978 500 4978 1200 
Q 4978 1528 4845 1704 
Q 4713 1881 4491 1881 
Q 3981 1881 3981 1175 
z
" transform="scale(0.015625)"/>
     </defs>
     <use xlink:href="#MicrosoftYaHei-Bold-39"/>
     <use xlink:href="#MicrosoftYaHei-Bold-34" transform="translate(61.669922 0)"/>
     <use xlink:href="#MicrosoftYaHei-Bold-2e" transform="translate(123.339844 0)"/>
     <use xlink:href="#MicrosoftYaHei-Bold-39" transform="translate(151.904297 0)"/>
     <use xlink:href="#MicrosoftYaHei-Bold-25" transform="translate(213.574219 0)"/>
    </g>
   </g>
   <g id="text_20">
    <!-- 87.1% -->
    <g style="fill: #e65100" transform="translate(510.190028 131.83145) scale(0.16 -0.16)">
     <defs>
      <path id="MicrosoftYaHei-Bold-38" d="M 269 1303 
Q 269 1725 512 2053 
Q 756 2381 1219 2534 
Q 850 2719 648 3003 
Q 447 3288 447 3634 
Q 447 3997 645 4292 
Q 844 4588 1200 4755 
Q 1556 4922 1997 4922 
Q 2441 4922 2800 4758 
Q 3159 4594 3359 4298 
Q 3559 4003 3559 3647 
Q 3559 3309 3339 3018 
Q 3119 2728 2747 2559 
Q 3200 2403 3453 2076 
Q 3706 1750 3706 1313 
Q 3706 697 3228 309 
Q 2750 -78 1988 -78 
Q 1225 -78 747 309 
Q 269 697 269 1303 
z
M 1278 1394 
Q 1278 1056 1472 853 
Q 1666 650 1991 650 
Q 2303 650 2503 853 
Q 2703 1056 2703 1394 
Q 2703 1709 2500 1920 
Q 2297 2131 1991 2131 
Q 1675 2131 1476 1920 
Q 1278 1709 1278 1394 
z
M 1428 3531 
Q 1428 3266 1592 3077 
Q 1756 2888 2006 2888 
Q 2247 2888 2415 3072 
Q 2584 3256 2584 3531 
Q 2584 3806 2420 3997 
Q 2256 4188 2006 4188 
Q 1750 4188 1589 3997 
Q 1428 3806 1428 3531 
z
" transform="scale(0.015625)"/>
      <path id="MicrosoftYaHei-Bold-37" d="M 3675 4225 
Q 3088 3172 2798 2528 
Q 2509 1884 2328 1275 
Q 2147 666 2050 0 
L 966 0 
Q 1122 947 1517 1917 
Q 1913 2888 2609 4009 
L 300 4009 
L 300 4841 
L 3675 4841 
L 3675 4225 
z
" transform="scale(0.015625)"/>
      <path id="MicrosoftYaHei-Bold-31" d="M 2716 4947 
L 2716 0 
L 1700 0 
L 1700 3809 
Q 1513 3647 1188 3517 
Q 863 3388 591 3356 
L 591 4222 
Q 1447 4472 2072 4947 
L 2716 4947 
z
" transform="scale(0.015625)"/>
     </defs>
     <use xlink:href="#MicrosoftYaHei-Bold-38"/>
     <use xlink:href="#MicrosoftYaHei-Bold-37" transform="translate(61.669922 0)"/>
     <use xlink:href="#MicrosoftYaHei-Bold-2e" transform="translate(123.339844 0)"/>
     <use xlink:href="#MicrosoftYaHei-Bold-31" transform="translate(151.904297 0)"/>
     <use xlink:href="#MicrosoftYaHei-Bold-25" transform="translate(213.574219 0)"/>
    </g>
   </g>
   <g id="text_21">
    <!-- 学习曲线（偏差-方差诊断） -->
    <g style="fill: #222222" transform="translate(160.47875 39.18625) scale(0.22 -0.22)">
     <defs>
      <path id="MicrosoftYaHei-Bold-5b66" d="M 1425 5341 
Q 1800 4916 2188 4391 
L 1909 4203 
L 2953 4203 
Q 2691 4706 2469 5053 
L 3231 5391 
Q 3481 5009 3819 4403 
L 3388 4203 
L 4153 4203 
Q 4581 4819 4875 5272 
L 5719 4809 
L 5213 4203 
L 6113 4203 
L 6113 2666 
L 5238 2666 
L 5238 3441 
L 1156 3441 
L 1156 2666 
L 281 2666 
L 281 4203 
L 1303 4203 
Q 1028 4581 769 4897 
L 1425 5341 
z
M 175 1528 
L 2906 1528 
L 2906 1691 
L 3744 2234 
L 1456 2234 
L 1456 2997 
L 4975 2997 
L 4975 2241 
L 3900 1528 
L 6231 1528 
L 6231 753 
L 3806 753 
L 3806 116 
Q 3806 -316 3565 -556 
Q 3325 -797 2829 -800 
Q 2334 -803 1813 -803 
Q 1725 -372 1600 22 
Q 2075 -3 2469 -3 
Q 2906 -3 2906 378 
L 2906 753 
L 175 753 
L 175 1528 
z
" transform="scale(0.015625)"/>
      <path id="MicrosoftYaHei-Bold-4e60" d="M 3431 -709 
Q 3344 -272 3206 241 
Q 3878 197 4350 197 
Q 4750 197 4826 562 
Q 4903 928 4925 4066 
L 500 4066 
L 500 4903 
L 5863 4903 
Q 5853 3694 5813 2238 
L 5750 353 
Q 5728 -75 5509 -334 
Q 5291 -594 4930 -647 
Q 4569 -700 3431 -709 
z
M 1300 3259 
L 1813 3916 
Q 2806 3241 3500 2709 
L 2881 1959 
Q 2088 2647 1300 3259 
z
M 300 1009 
Q 2669 1666 4656 2372 
Q 4656 2078 4669 1484 
Q 2856 822 625 53 
L 300 1009 
z
" transform="scale(0.015625)"/>
      <path id="MicrosoftYaHei-Bold-66f2" d="M 413 -822 
L 413 4466 
L 1988 4466 
L 1988 5328 
L 2825 5328 
L 2825 4466 
L 3575 4466 
L 3575 5328 
L 4413 5328 
L 4413 4466 
L 5988 4466 
L 5988 -822 
L 5163 -822 
L 5163 -428 
L 1238 -428 
L 1238 -822 
L 413 -822 
z
M 5163 3647 
L 4413 3647 
L 4413 2453 
L 5163 2453 
L 5163 3647 
z
M 1238 2453 
L 1988 2453 
L 1988 3647 
L 1238 3647 
L 1238 2453 
z
M 2825 2453 
L 3575 2453 
L 3575 3647 
L 2825 3647 
L 2825 2453 
z
M 1238 391 
L 1988 391 
L 1988 1634 
L 1238 1634 
L 1238 391 
z
M 4413 391 
L 5163 391 
L 5163 1634 
L 4413 1634 
L 4413 391 
z
M 2825 391 
L 3575 391 
L 3575 1634 
L 2825 1634 
L 2825 391 
z
" transform="scale(0.015625)"/>
      <path id="MicrosoftYaHei-Bold-7ebf" d="M 225 -528 
L 63 347 
Q 1188 491 2369 678 
Q 2353 481 2350 256 
Q 3069 481 3691 806 
Q 3550 1250 3466 1859 
L 2413 1734 
L 2306 2491 
L 3384 2619 
L 3347 3244 
L 2525 3159 
L 2488 3494 
Q 1859 2456 1356 1778 
Q 1919 1859 2294 1928 
Q 2263 1672 2231 1147 
Q 888 972 431 847 
L 200 1547 
Q 597 1922 1075 2641 
Q 738 2613 294 2566 
L 63 3278 
Q 581 3916 1194 5322 
L 1988 5009 
Q 1438 4034 1000 3353 
Q 1234 3356 1531 3372 
Q 1700 3663 1881 3991 
L 2466 3716 
L 2444 3922 
L 3303 4006 
L 3250 5303 
L 4094 5303 
Q 4103 4669 4128 4088 
L 5219 4194 
Q 4844 4469 4350 4778 
L 4756 5316 
Q 5263 5041 5769 4716 
L 5388 4213 
L 5988 4272 
L 6063 3522 
L 4169 3328 
L 4216 2716 
L 6156 2947 
L 6238 2197 
L 5484 2106 
L 6038 1666 
Q 5431 1003 4731 509 
Q 4991 100 5203 100 
Q 5316 100 5387 251 
Q 5459 403 5581 1047 
Q 6013 822 6313 684 
Q 6072 -288 5839 -564 
Q 5606 -841 5300 -841 
Q 4503 -841 4006 56 
Q 3259 -353 2419 -597 
Q 2325 -400 2200 -178 
Q 1084 -353 225 -528 
z
M 5413 2097 
L 4309 1963 
Q 4369 1603 4447 1266 
Q 4972 1638 5413 2097 
z
" transform="scale(0.015625)"/>
      <path id="MicrosoftYaHei-Bold-ff08" d="M 5197 -1088 
Q 4056 184 4056 1881 
Q 4056 3616 5203 4838 
L 6034 4838 
Q 4922 3503 4922 1888 
Q 4922 266 6028 -1088 
L 5197 -1088 
z
" transform="scale(0.015625)"/>
      <path id="MicrosoftYaHei-Bold-504f" d="M 1444 -834 
L 706 -834 
L 706 2063 
Q 522 1728 319 1416 
Q 250 1922 88 2547 
Q 775 3803 1188 5341 
L 1938 5141 
Q 1722 4356 1444 3641 
L 1444 334 
Q 1950 1447 1969 2928 
L 1969 4741 
L 3594 4741 
Q 3513 4916 3400 5128 
L 4256 5353 
Q 4444 5000 4563 4741 
L 6019 4741 
L 6019 2997 
L 2731 2997 
Q 2731 2844 2725 2622 
L 6088 2622 
L 6088 -109 
Q 6088 -372 5983 -542 
Q 5878 -713 5712 -764 
Q 5547 -816 4931 -841 
Q 4906 -688 4869 -522 
L 4475 -522 
L 4475 622 
L 4088 622 
L 4088 -603 
L 3544 -603 
L 3544 622 
L 3156 622 
L 3156 -803 
L 2538 -803 
L 2538 1494 
Q 2366 347 1969 -366 
Q 1794 -166 1444 116 
L 1444 -834 
z
M 5269 4078 
L 2731 4078 
L 2731 3659 
L 5269 3659 
L 5269 4078 
z
M 5425 1966 
L 5019 1966 
L 5019 1247 
L 5425 1247 
L 5425 1966 
z
M 4088 1247 
L 4475 1247 
L 4475 1966 
L 4088 1966 
L 4088 1247 
z
M 3156 1247 
L 3544 1247 
L 3544 1966 
L 3156 1966 
L 3156 1247 
z
M 5425 622 
L 5019 622 
L 5019 -119 
Q 5288 -128 5356 -92 
Q 5425 -56 5425 91 
L 5425 622 
z
" transform="scale(0.015625)"/>
      <path id="MicrosoftYaHei-Bold-5dee" d="M 1013 72 
L 3206 72 
L 3206 722 
L 1788 722 
L 1788 866 
Q 1213 269 444 -241 
Q 263 322 88 678 
Q 941 1150 1506 1803 
L 256 1803 
L 256 2478 
L 1988 2478 
Q 2094 2659 2181 2853 
L 656 2853 
L 656 3528 
L 2425 3528 
Q 2478 3713 2516 3903 
L 381 3903 
L 381 4578 
L 1675 4578 
Q 1513 4888 1363 5134 
L 2225 5347 
L 2672 4578 
L 3759 4578 
Q 4016 5016 4188 5341 
L 5113 5116 
L 4719 4578 
L 6038 4578 
L 6038 3903 
L 3366 3903 
Q 3331 3713 3284 3528 
L 5763 3528 
L 5763 2853 
L 3072 2853 
Q 3000 2663 2913 2478 
L 6163 2478 
L 6163 1803 
L 2534 1803 
Q 2406 1603 2256 1409 
L 5700 1409 
L 5700 722 
L 4094 722 
L 4094 72 
L 6231 72 
L 6231 -628 
L 1013 -628 
L 1013 72 
z
" transform="scale(0.015625)"/>
      <path id="MicrosoftYaHei-Bold-2d" d="M 2328 1497 
L 481 1497 
L 481 2209 
L 2328 2209 
L 2328 1497 
z
" transform="scale(0.015625)"/>
      <path id="MicrosoftYaHei-Bold-65b9" d="M 2975 -747 
Q 2863 -184 2750 209 
Q 3528 178 3822 178 
Q 4031 178 4142 214 
Q 4253 250 4325 329 
Q 4397 409 4422 509 
Q 4447 609 4476 1196 
Q 4506 1784 4506 2003 
L 2531 2003 
Q 2341 213 769 -878 
Q 613 -653 94 -53 
Q 784 397 1142 962 
Q 1500 1528 1562 2073 
Q 1625 2619 1641 3628 
L 231 3628 
L 231 4453 
L 2828 4453 
L 2581 5084 
L 3575 5316 
Q 3781 4800 3888 4453 
L 6175 4453 
L 6175 3628 
L 2594 3628 
Q 2588 3241 2572 2828 
L 5494 2828 
Q 5466 2006 5419 1132 
Q 5372 259 5330 46 
Q 5288 -166 5152 -352 
Q 5016 -538 4825 -617 
Q 4634 -697 4232 -722 
Q 3831 -747 2975 -747 
z
" transform="scale(0.015625)"/>
      <path id="MicrosoftYaHei-Bold-8bca" d="M 2044 1316 
Q 2106 728 2188 378 
Q 1400 -197 944 -653 
L 506 -34 
Q 644 134 644 478 
L 644 2434 
L 94 2434 
L 94 3284 
L 1488 3284 
L 1488 872 
Q 1725 1066 2044 1316 
z
M 1113 5328 
Q 1531 4772 1950 4172 
Q 1169 3691 1150 3684 
Q 756 4378 394 4903 
L 1113 5328 
z
M 6356 3497 
Q 6150 3184 5894 2722 
Q 4681 3466 4038 4472 
Q 3456 3678 2088 2684 
Q 1906 3053 1656 3453 
Q 3019 4303 3631 5297 
L 4681 5297 
L 4544 5103 
Q 5231 4078 6356 3497 
z
M 5513 1709 
L 6113 1116 
Q 4713 -234 2406 -916 
Q 2213 -559 1969 -216 
Q 4156 359 5513 1709 
z
M 4913 2734 
L 5481 2172 
Q 4344 1184 2663 384 
Q 2475 728 2206 1097 
Q 3888 1822 4913 2734 
z
M 4163 3666 
L 4750 3141 
Q 3850 2359 2525 1684 
Q 2344 1978 2050 2359 
Q 3281 2897 4163 3666 
z
" transform="scale(0.015625)"/>
      <path id="MicrosoftYaHei-Bold-65ad" d="M 6300 2484 
L 5813 2484 
L 5813 -766 
L 5013 -766 
L 5013 2484 
L 4481 2484 
Q 4481 416 3713 -728 
Q 3447 -478 3250 -313 
L 3250 -628 
L 338 -628 
L 338 5072 
L 1088 5072 
L 1088 4659 
L 1600 4816 
Q 1794 4303 1963 3659 
L 1369 3484 
Q 1263 3991 1088 4569 
L 1088 1500 
Q 1534 1959 1813 2553 
L 1188 2553 
L 1188 3253 
L 1988 3253 
L 1988 5234 
L 2644 5234 
L 2644 3253 
L 3513 3253 
L 3513 2553 
L 2644 2553 
L 2644 2081 
L 2950 2322 
Q 3375 1872 3625 1516 
L 3113 1091 
Q 2931 1388 2644 1741 
L 2644 247 
L 1988 247 
L 1988 1728 
Q 1697 1038 1325 578 
Q 1213 866 1088 1128 
L 1088 97 
L 3131 97 
Q 3694 931 3694 2259 
L 3694 4853 
Q 5050 4953 5950 5234 
L 6306 4484 
Q 5519 4278 4481 4172 
L 4481 3272 
L 6300 3272 
L 6300 2484 
z
M 3038 4816 
L 3644 4628 
Q 3400 3884 3219 3459 
L 2675 3647 
Q 2944 4397 3038 4816 
z
" transform="scale(0.015625)"/>
      <path id="MicrosoftYaHei-Bold-ff09" d="M 1191 -1088 
L 359 -1088 
Q 1472 238 1472 1863 
Q 1472 3478 366 4838 
L 1197 4838 
Q 2338 3572 2338 1863 
Q 2338 125 1191 -1088 
z
" transform="scale(0.015625)"/>
     </defs>
     <use xlink:href="#MicrosoftYaHei-Bold-5b66"/>
     <use xlink:href="#MicrosoftYaHei-Bold-4e60" transform="translate(100 0)"/>
     <use xlink:href="#MicrosoftYaHei-Bold-66f2" transform="translate(200 0)"/>
     <use xlink:href="#MicrosoftYaHei-Bold-7ebf" transform="translate(300 0)"/>
     <use xlink:href="#MicrosoftYaHei-Bold-ff08" transform="translate(400 0)"/>
     <use xlink:href="#MicrosoftYaHei-Bold-504f" transform="translate(500 0)"/>
     <use xlink:href="#MicrosoftYaHei-Bold-5dee" transform="translate(600 0)"/>
     <use xlink:href="#MicrosoftYaHei-Bold-2d" transform="translate(700 0)"/>
     <use xlink:href="#MicrosoftYaHei-Bold-65b9" transform="translate(743.652344 0)"/>
     <use xlink:href="#MicrosoftYaHei-Bold-5dee" transform="translate(843.652344 0)"/>
     <use xlink:href="#MicrosoftYaHei-Bold-8bca" transform="translate(943.652344 0)"/>
     <use xlink:href="#MicrosoftYaHei-Bold-65ad" transform="translate(1043.652344 0)"/>
     <use xlink:href="#MicrosoftYaHei-Bold-ff09" transform="translate(1143.652344 0)"/>
    </g>
   </g>
   <g id="legend_1">
    <g id="patch_7">
     <path d="M 346.080937 350.10625 
L 509.280937 350.10625 
Q 512.480937 350.10625 512.480937 346.90625 
L 512.480937 298.97125 
Q 512.480937 295.77125 509.280937 295.77125 
L 346.080937 295.77125 
Q 342.880937 295.77125 342.880937 298.97125 
L 342.880937 346.90625 
Q 342.880937 350.10625 346.080937 350.10625 
z
" style="fill: #f8f9fa; opacity: 0.9; stroke: #cccccc; stroke-linejoin: miter"/>
    </g>
    <g id="line2d_35">
     <path d="M 349.280937 309.36125 
L 365.280937 309.36125 
L 381.280937 309.36125 
" style="fill: none; stroke: #1565c0; stroke-width: 2.5; stroke-linecap: square"/>
     <g>
      <use xlink:href="#m7fc14e00c8" x="365.280937" y="309.36125" style="fill: #1565c0; stroke: #1565c0"/>
     </g>
    </g>
    <g id="text_22">
     <!-- 训练集准确率 -->
     <g style="fill: #222222" transform="translate(394.080937 314.96125) scale(0.16 -0.16)">
      <defs>
       <path id="MicrosoftYaHei-96c6" d="M 3056 5134 
L 3425 5359 
Q 3719 5034 3906 4722 
L 3619 4541 
L 6013 4541 
L 6013 4153 
L 3644 4153 
L 3644 3709 
L 5738 3709 
L 5738 3347 
L 3644 3347 
L 3644 2903 
L 5738 2903 
L 5738 2541 
L 3644 2541 
L 3644 2084 
L 6031 2084 
L 6031 1697 
L 1475 1697 
L 1475 1459 
L 1038 1459 
L 1038 3684 
Q 716 3309 381 3009 
Q 281 3191 81 3422 
Q 988 4178 1613 5284 
L 2044 5091 
Q 1869 4803 1688 4541 
L 3456 4541 
Q 3288 4825 3056 5134 
z
M 288 1141 
L 2981 1141 
L 2981 1566 
L 3419 1566 
L 3419 1141 
L 6106 1141 
L 6106 741 
L 3906 741 
Q 5000 -31 6338 -303 
Q 6169 -566 6044 -766 
Q 4519 -325 3419 631 
L 3419 -834 
L 2981 -834 
L 2981 638 
Q 1844 -313 356 -778 
Q 225 -584 63 -384 
Q 1406 -56 2475 741 
L 288 741 
L 288 1141 
z
M 1475 2084 
L 3206 2084 
L 3206 2541 
L 1475 2541 
L 1475 2084 
z
M 1475 2903 
L 3206 2903 
L 3206 3347 
L 1475 3347 
L 1475 2903 
z
M 1475 3709 
L 3206 3709 
L 3206 4153 
L 1475 4153 
L 1475 3709 
z
" transform="scale(0.015625)"/>
      </defs>
      <use xlink:href="#MicrosoftYaHei-8bad"/>
      <use xlink:href="#MicrosoftYaHei-7ec3" transform="translate(100 0)"/>
      <use xlink:href="#MicrosoftYaHei-96c6" transform="translate(200 0)"/>
      <use xlink:href="#MicrosoftYaHei-51c6" transform="translate(300 0)"/>
      <use xlink:href="#MicrosoftYaHei-786e" transform="translate(400 0)"/>
      <use xlink:href="#MicrosoftYaHei-7387" transform="translate(500 0)"/>
     </g>
    </g>
    <g id="line2d_36">
     <path d="M 349.280937 334.12875 
L 365.280937 334.12875 
L 381.280937 334.12875 
" style="fill: none; stroke: #e65100; stroke-width: 2.5; stroke-linecap: square"/>
     <g>
      <use xlink:href="#m38ebda7b2f" x="365.280937" y="334.12875" style="fill: #e65100; stroke: #e65100; stroke-linejoin: miter"/>
     </g>
    </g>
    <g id="text_23">
     <!-- 交叉验证准确率 -->
     <g style="fill: #222222" transform="translate(394.080937 339.72875) scale(0.16 -0.16)">
      <defs>
       <path id="MicrosoftYaHei-4ea4" d="M 4194 2641 
L 4675 2434 
Q 4209 1375 3566 713 
Q 4503 19 6225 -278 
Q 5994 -591 5850 -803 
Q 4184 -378 3194 375 
Q 2334 -297 463 -847 
Q 325 -628 150 -366 
Q 1909 78 2803 713 
Q 2184 1344 1738 2359 
L 2156 2597 
Q 2566 1669 3194 1041 
Q 3766 1609 4194 2641 
z
M 194 4384 
L 3122 4384 
Q 2975 4691 2700 5128 
L 3163 5353 
Q 3431 4978 3638 4566 
L 3288 4384 
L 6194 4384 
L 6194 3922 
L 194 3922 
L 194 4384 
z
M 2044 3634 
L 2444 3309 
Q 1569 2391 625 1666 
Q 469 1859 275 2066 
Q 1219 2734 2044 3634 
z
M 4288 3666 
Q 5431 2766 6075 2159 
Q 5900 1984 5700 1753 
Q 4994 2478 3944 3341 
L 4288 3666 
z
" transform="scale(0.015625)"/>
       <path id="MicrosoftYaHei-53c9" d="M 613 4809 
L 5438 4809 
L 5438 4341 
Q 4934 2241 3600 897 
Q 4516 238 6313 -228 
Q 6081 -516 5881 -784 
Q 4119 -169 3197 541 
Q 2181 -241 438 -809 
Q 288 -584 94 -322 
Q 1863 181 2803 881 
Q 1434 2169 1025 4353 
L 613 4353 
L 613 4809 
z
M 4894 4353 
L 1550 4353 
Q 1838 2469 3203 1225 
Q 4463 2425 4894 4353 
z
M 2531 3728 
L 2906 3984 
Q 3425 3353 3781 2884 
L 3356 2591 
Q 2719 3509 2531 3728 
z
" transform="scale(0.015625)"/>
       <path id="MicrosoftYaHei-9a8c" d="M 963 4116 
L 819 2397 
L 1450 2397 
L 1613 4503 
L 194 4503 
L 194 4928 
L 2088 4928 
L 1894 2397 
L 2288 2397 
Q 2244 1078 2206 228 
Q 2188 -722 1381 -722 
Q 1044 -722 588 -703 
Q 556 -472 506 -209 
Q 956 -266 1306 -266 
Q 1744 -266 1769 266 
Q 1806 953 1831 1972 
L 331 1972 
L 531 4116 
L 963 4116 
z
M 2338 -103 
L 4594 -103 
Q 5044 1009 5394 2222 
L 5869 2072 
Q 5500 953 5088 -103 
L 6188 -103 
L 6188 -534 
L 2338 -534 
L 2338 -103 
z
M 4606 5278 
L 4488 5078 
Q 5244 3734 6363 3122 
Q 6163 2872 6031 2684 
Q 4931 3497 4238 4641 
Q 3600 3509 2456 2609 
Q 2344 2772 2144 3003 
Q 3388 3866 4050 5278 
L 4606 5278 
z
M 2975 2978 
L 5550 2978 
L 5550 2547 
L 2975 2547 
L 2975 2978 
z
M 3731 2178 
L 4175 2297 
Q 4438 1359 4606 659 
L 4150 528 
Q 3969 1391 3731 2178 
z
M 2656 1897 
L 3094 2034 
Q 3400 1147 3606 453 
L 3144 297 
Q 2938 1097 2656 1897 
z
M 38 1034 
Q 763 1178 1631 1384 
Q 1625 1134 1638 941 
Q 925 791 131 572 
L 38 1034 
z
" transform="scale(0.015625)"/>
       <path id="MicrosoftYaHei-8bc1" d="M 1681 -34 
L 2550 -34 
L 2550 3422 
L 3031 3422 
L 3031 -34 
L 4025 -34 
L 4025 4534 
L 2025 4534 
L 2025 4997 
L 6200 4997 
L 6200 4534 
L 4525 4534 
L 4525 2653 
L 5975 2653 
L 5975 2191 
L 4525 2191 
L 4525 -34 
L 6300 -34 
L 6300 -497 
L 1681 -497 
L 1681 -34 
z
M 2050 1534 
Q 2075 1316 2169 991 
Q 1413 241 1025 -203 
L 669 203 
Q 856 466 856 828 
L 856 2784 
L 100 2784 
L 100 3234 
L 1338 3234 
L 1338 797 
Q 1625 1072 2050 1534 
z
M 706 5222 
Q 1438 4478 1731 4147 
L 1294 3778 
Q 900 4291 325 4891 
L 706 5222 
z
" transform="scale(0.015625)"/>
      </defs>
      <use xlink:href="#MicrosoftYaHei-4ea4"/>
      <use xlink:href="#MicrosoftYaHei-53c9" transform="translate(100 0)"/>
      <use xlink:href="#MicrosoftYaHei-9a8c" transform="translate(200 0)"/>
      <use xlink:href="#MicrosoftYaHei-8bc1" transform="translate(300 0)"/>
      <use xlink:href="#MicrosoftYaHei-51c6" transform="translate(400 0)"/>
      <use xlink:href="#MicrosoftYaHei-786e" transform="translate(500 0)"/>
      <use xlink:href="#MicrosoftYaHei-7387" transform="translate(600 0)"/>
     </g>
    </g>
   </g>
  </g>
 </g>
 <defs>
  <clipPath id="p309baa31c0">
   <rect x="74.080938" y="53.18625" width="446.4" height="304.92"/>
  </clipPath>
 </defs>
</svg>
