<?xml version="1.0" encoding="utf-8" standalone="no"?>
<!DOCTYPE svg PUBLIC "-//W3C//DTD SVG 1.1//EN"
  "http://www.w3.org/Graphics/SVG/1.1/DTD/svg11.dtd">
<svg xmlns:xlink="http://www.w3.org/1999/xlink" width="490.078149pt" height="481.777187pt" viewBox="0 0 490.078149 481.777187" xmlns="http://www.w3.org/2000/svg" version="1.1">
 <metadata>
  <rdf:RDF xmlns:dc="http://purl.org/dc/elements/1.1/" xmlns:cc="http://creativecommons.org/ns#" xmlns:rdf="http://www.w3.org/1999/02/22-rdf-syntax-ns#">
   <cc:Work>
    <dc:type rdf:resource="http://purl.org/dc/dcmitype/StillImage"/>
    <dc:date>2026-05-22T11:51:51.495378</dc:date>
    <dc:format>image/svg+xml</dc:format>
    <dc:creator>
     <cc:Agent>
      <dc:title>Matplotlib v3.10.9, https://matplotlib.org/</dc:title>
     </cc:Agent>
    </dc:creator>
   </cc:Work>
  </rdf:RDF>
 </metadata>
 <defs>
  <style type="text/css">*{stroke-linejoin: round; stroke-linecap: butt}</style>
 </defs>
 <g id="figure_1">
  <g id="patch_1">
   <path d="M 0 481.777187 
L 490.078149 481.777187 
L 490.078149 -0 
L 0 -0 
z
" style="fill: #ffffff"/>
  </g>
  <g id="axes_1">
   <g id="patch_2">
    <path d="M 74.080938 413.54625 
L 464.680938 413.54625 
L 464.680938 53.18625 
L 74.080938 53.18625 
z
" style="fill: #f8f9fa"/>
   </g>
   <g id="matplotlib.axis_1">
    <g id="xtick_1">
     <g id="line2d_1">
      <defs>
       <path id="m2c110502ec" d="M 0 0 
L 0 3.5 
" style="stroke: #333333; stroke-width: 0.8"/>
      </defs>
      <g>
       <use xlink:href="#m2c110502ec" x="81.592476" y="413.54625" style="fill: #333333; stroke: #333333; stroke-width: 0.8"/>
      </g>
     </g>
     <g id="text_1">
      <!-- 0.0 -->
      <g style="fill: #333333" transform="translate(70.283726 433.33625) scale(0.16 -0.16)">
       <defs>
        <path id="MicrosoftYaHei-30" d="M 284 2325 
Q 284 3606 709 4264 
Q 1134 4922 1941 4922 
Q 3478 4922 3478 2441 
Q 3478 1216 3045 567 
Q 2613 -81 1831 -81 
Q 1094 -81 689 534 
Q 284 1150 284 2325 
z
M 909 2353 
Q 909 425 1888 425 
Q 2850 425 2850 2384 
Q 2850 4413 1906 4413 
Q 909 4413 909 2353 
z
" transform="scale(0.015625)"/>
        <path id="MicrosoftYaHei-2e" d="M 372 322 
Q 372 491 487 606 
Q 603 722 775 722 
Q 950 722 1065 605 
Q 1181 488 1181 322 
Q 1181 159 1065 42 
Q 950 -75 772 -75 
Q 600 -75 486 42 
Q 372 159 372 322 
z
" transform="scale(0.015625)"/>
       </defs>
       <use xlink:href="#MicrosoftYaHei-30"/>
       <use xlink:href="#MicrosoftYaHei-2e" transform="translate(58.642578 0)"/>
       <use xlink:href="#MicrosoftYaHei-30" transform="translate(82.714844 0)"/>
      </g>
     </g>
    </g>
    <g id="xtick_2">
     <g id="line2d_2">
      <g>
       <use xlink:href="#m2c110502ec" x="156.707861" y="413.54625" style="fill: #333333; stroke: #333333; stroke-width: 0.8"/>
      </g>
     </g>
     <g id="text_2">
      <!-- 0.2 -->
      <g style="fill: #333333" transform="translate(145.399111 433.33625) scale(0.16 -0.16)">
       <defs>
        <path id="MicrosoftYaHei-32" d="M 2666 3572 
Q 2666 3963 2419 4186 
Q 2172 4409 1747 4409 
Q 1447 4409 1140 4256 
Q 834 4103 569 3819 
L 569 4413 
Q 806 4659 1107 4790 
Q 1409 4922 1816 4922 
Q 2472 4922 2872 4570 
Q 3272 4219 3272 3619 
Q 3272 3084 3026 2693 
Q 2781 2303 2188 1894 
Q 1581 1475 1376 1294 
Q 1172 1113 1090 947 
Q 1009 781 1009 544 
L 3416 544 
L 3416 0 
L 372 0 
L 372 241 
Q 372 659 486 951 
Q 600 1244 862 1520 
Q 1125 1797 1681 2184 
Q 2250 2584 2458 2886 
Q 2666 3188 2666 3572 
z
" transform="scale(0.015625)"/>
       </defs>
       <use xlink:href="#MicrosoftYaHei-30"/>
       <use xlink:href="#MicrosoftYaHei-2e" transform="translate(58.642578 0)"/>
       <use xlink:href="#MicrosoftYaHei-32" transform="translate(82.714844 0)"/>
      </g>
     </g>
    </g>
    <g id="xtick_3">
     <g id="line2d_3">
      <g>
       <use xlink:href="#m2c110502ec" x="231.823245" y="413.54625" style="fill: #333333; stroke: #333333; stroke-width: 0.8"/>
      </g>
     </g>
     <g id="text_3">
      <!-- 0.4 -->
      <g style="fill: #333333" transform="translate(220.514495 433.33625) scale(0.16 -0.16)">
       <defs>
        <path id="MicrosoftYaHei-34" d="M 2906 4841 
L 2906 1644 
L 3631 1644 
L 3631 1138 
L 2906 1138 
L 2906 0 
L 2313 0 
L 2313 1138 
L 53 1138 
L 53 1616 
Q 656 2294 1265 3178 
Q 1875 4063 2272 4841 
L 2906 4841 
z
M 741 1644 
L 2313 1644 
L 2313 3950 
Q 1988 3366 1616 2817 
Q 1244 2269 741 1644 
z
" transform="scale(0.015625)"/>
       </defs>
       <use xlink:href="#MicrosoftYaHei-30"/>
       <use xlink:href="#MicrosoftYaHei-2e" transform="translate(58.642578 0)"/>
       <use xlink:href="#MicrosoftYaHei-34" transform="translate(82.714844 0)"/>
      </g>
     </g>
    </g>
    <g id="xtick_4">
     <g id="line2d_4">
      <g>
       <use xlink:href="#m2c110502ec" x="306.93863" y="413.54625" style="fill: #333333; stroke: #333333; stroke-width: 0.8"/>
      </g>
     </g>
     <g id="text_4">
      <!-- 0.6 -->
      <g style="fill: #333333" transform="translate(295.62988 433.33625) scale(0.16 -0.16)">
       <defs>
        <path id="MicrosoftYaHei-36" d="M 3181 4219 
Q 2803 4413 2391 4413 
Q 1763 4413 1381 3866 
Q 1000 3319 994 2372 
L 1009 2372 
Q 1353 3038 2106 3038 
Q 2734 3038 3109 2628 
Q 3484 2219 3484 1541 
Q 3484 831 3051 375 
Q 2619 -81 1947 -81 
Q 1209 -81 789 495 
Q 369 1072 369 2131 
Q 369 3413 920 4167 
Q 1472 4922 2372 4922 
Q 2888 4922 3181 4781 
L 3181 4219 
z
M 1031 1584 
Q 1031 1106 1286 765 
Q 1541 425 1963 425 
Q 2363 425 2613 719 
Q 2863 1013 2863 1475 
Q 2863 1975 2627 2253 
Q 2391 2531 1956 2531 
Q 1544 2531 1287 2250 
Q 1031 1969 1031 1584 
z
" transform="scale(0.015625)"/>
       </defs>
       <use xlink:href="#MicrosoftYaHei-30"/>
       <use xlink:href="#MicrosoftYaHei-2e" transform="translate(58.642578 0)"/>
       <use xlink:href="#MicrosoftYaHei-36" transform="translate(82.714844 0)"/>
      </g>
     </g>
    </g>
    <g id="xtick_5">
     <g id="line2d_5">
      <g>
       <use xlink:href="#m2c110502ec" x="382.054014" y="413.54625" style="fill: #333333; stroke: #333333; stroke-width: 0.8"/>
      </g>
     </g>
     <g id="text_5">
      <!-- 0.8 -->
      <g style="fill: #333333" transform="translate(370.745264 433.33625) scale(0.16 -0.16)">
       <defs>
        <path id="MicrosoftYaHei-38" d="M 306 1350 
Q 306 1769 556 2122 
Q 806 2475 1200 2625 
Q 884 2803 700 3081 
Q 516 3359 516 3684 
Q 516 4028 692 4312 
Q 869 4597 1183 4759 
Q 1497 4922 1875 4922 
Q 2256 4922 2572 4761 
Q 2888 4600 3063 4315 
Q 3238 4031 3238 3684 
Q 3238 3366 3058 3086 
Q 2878 2806 2559 2625 
Q 2953 2472 3200 2119 
Q 3447 1766 3447 1350 
Q 3447 938 3250 611 
Q 3053 284 2690 103 
Q 2328 -78 1875 -78 
Q 1425 -78 1065 103 
Q 706 284 506 612 
Q 306 941 306 1350 
z
M 906 1378 
Q 906 947 1172 687 
Q 1438 428 1878 428 
Q 2309 428 2582 692 
Q 2856 956 2856 1378 
Q 2856 1778 2579 2051 
Q 2303 2325 1878 2325 
Q 1456 2325 1181 2058 
Q 906 1791 906 1378 
z
M 1081 3634 
Q 1081 3309 1312 3076 
Q 1544 2844 1878 2844 
Q 2206 2844 2445 3078 
Q 2684 3313 2684 3634 
Q 2684 3963 2454 4191 
Q 2225 4419 1878 4419 
Q 1534 4419 1307 4195 
Q 1081 3972 1081 3634 
z
" transform="scale(0.015625)"/>
       </defs>
       <use xlink:href="#MicrosoftYaHei-30"/>
       <use xlink:href="#MicrosoftYaHei-2e" transform="translate(58.642578 0)"/>
       <use xlink:href="#MicrosoftYaHei-38" transform="translate(82.714844 0)"/>
      </g>
     </g>
    </g>
    <g id="xtick_6">
     <g id="line2d_6">
      <g>
       <use xlink:href="#m2c110502ec" x="457.169399" y="413.54625" style="fill: #333333; stroke: #333333; stroke-width: 0.8"/>
      </g>
     </g>
     <g id="text_6">
      <!-- 1.0 -->
      <g style="fill: #333333" transform="translate(445.860649 433.33625) scale(0.16 -0.16)">
       <defs>
        <path id="MicrosoftYaHei-31" d="M 1781 0 
L 1781 4141 
Q 1638 3997 1295 3819 
Q 953 3641 663 3569 
L 663 4169 
Q 1047 4275 1484 4508 
Q 1922 4741 2156 4947 
L 2388 4947 
L 2388 0 
L 1781 0 
z
" transform="scale(0.015625)"/>
       </defs>
       <use xlink:href="#MicrosoftYaHei-31"/>
       <use xlink:href="#MicrosoftYaHei-2e" transform="translate(58.642578 0)"/>
       <use xlink:href="#MicrosoftYaHei-30" transform="translate(82.714844 0)"/>
      </g>
     </g>
    </g>
    <g id="text_7">
     <!-- 假阳性率 (FPR) -->
     <g style="fill: #222222" transform="translate(208.540938 455.7025) scale(0.18 -0.18)">
      <defs>
       <path id="MicrosoftYaHei-5047" d="M 3763 4953 
L 3763 2841 
L 3325 2841 
L 3325 3034 
L 2319 3034 
L 2319 2247 
L 3625 2247 
L 3625 1847 
L 2319 1847 
L 2319 1047 
L 3706 1047 
L 3706 647 
L 2319 647 
L 2319 -847 
L 1856 -847 
L 1856 4953 
L 3763 4953 
z
M 3756 2109 
L 3756 2497 
L 5963 2497 
L 5963 2122 
Q 5763 1094 5191 369 
Q 5663 -106 6381 -378 
Q 6138 -659 6031 -816 
Q 5350 -463 4888 34 
Q 4309 -531 3450 -872 
Q 3325 -684 3156 -472 
Q 4044 -159 4606 375 
Q 4081 1109 3941 2109 
L 3756 2109 
z
M 63 2247 
Q 863 3666 1175 5316 
L 1638 5228 
Q 1478 4528 1256 3881 
L 1256 -859 
L 819 -859 
L 819 2788 
Q 566 2244 263 1741 
Q 181 1984 63 2247 
z
M 3969 3447 
L 5475 3447 
L 5475 4559 
L 4006 4559 
L 4006 4959 
L 5913 4959 
L 5913 2809 
L 5475 2809 
L 5475 3047 
L 3969 3047 
L 3969 3447 
z
M 3325 4553 
L 2319 4553 
L 2319 3434 
L 3325 3434 
L 3325 4553 
z
M 5513 2109 
L 4350 2109 
Q 4484 1288 4903 703 
Q 5366 1297 5513 2109 
z
" transform="scale(0.015625)"/>
       <path id="MicrosoftYaHei-9633" d="M 2750 -809 
L 2750 4941 
L 5994 4941 
L 5994 -803 
L 5500 -803 
L 5500 -397 
L 3244 -397 
L 3244 -809 
L 2750 -809 
z
M 2338 1616 
Q 2506 428 1744 272 
Q 1438 228 1075 266 
Q 1025 522 938 791 
Q 1281 709 1550 741 
Q 1981 822 1838 1634 
Q 1750 2141 1275 2759 
Q 1556 3603 1838 4578 
L 875 4578 
L 875 -841 
L 400 -841 
L 400 5016 
L 2338 5016 
L 2338 4578 
Q 2106 3816 1769 2841 
Q 2269 2159 2338 1616 
z
M 3244 66 
L 5500 66 
L 5500 2091 
L 3244 2091 
L 3244 66 
z
M 5500 4478 
L 3244 4478 
L 3244 2541 
L 5500 2541 
L 5500 4478 
z
" transform="scale(0.015625)"/>
       <path id="MicrosoftYaHei-6027" d="M 1963 -153 
L 3988 -153 
L 3988 1522 
L 2375 1522 
L 2375 1959 
L 3988 1959 
L 3988 3472 
L 2975 3472 
Q 2744 2878 2438 2291 
Q 2169 2509 2019 2578 
Q 2644 3709 2894 4891 
L 3388 4759 
Q 3281 4328 3138 3909 
L 3988 3909 
L 3988 5284 
L 4481 5284 
L 4481 3909 
L 6125 3909 
L 6125 3472 
L 4481 3472 
L 4481 1959 
L 6000 1959 
L 6000 1522 
L 4481 1522 
L 4481 -153 
L 6319 -153 
L 6319 -591 
L 1963 -591 
L 1963 -153 
z
M 988 5291 
L 1469 5291 
L 1469 4091 
L 1738 4241 
Q 2063 3734 2294 3291 
L 1906 3041 
Q 1688 3503 1469 3859 
L 1469 -872 
L 988 -872 
L 988 5291 
z
M 406 3878 
L 819 3784 
Q 706 3028 506 2178 
Q 338 2241 75 2297 
Q 263 2978 406 3878 
z
" transform="scale(0.015625)"/>
       <path id="MicrosoftYaHei-7387" d="M 2525 2009 
Q 2622 2016 3928 2081 
Q 3772 2300 3625 2491 
L 3963 2703 
Q 4413 2203 4794 1653 
L 4394 1403 
Q 4284 1569 4178 1725 
Q 2991 1659 2213 1597 
Q 2075 1584 1881 1541 
L 1725 1966 
Q 1913 2028 2006 2084 
Q 2534 2441 3050 2913 
Q 2597 2894 2275 2866 
Q 2144 2847 1988 2809 
L 1800 3191 
Q 1956 3247 2088 3366 
Q 2509 3722 2875 4228 
L 231 4228 
L 231 4666 
L 3031 4666 
Q 2878 4944 2744 5153 
L 3194 5372 
Q 3438 5000 3616 4666 
L 6175 4666 
L 6175 4228 
L 3053 4228 
L 3350 4072 
Q 2844 3553 2494 3247 
Q 2850 3256 3425 3269 
Q 3675 3519 3925 3797 
L 4356 3547 
Q 3363 2603 2525 2009 
z
M 144 991 
L 2994 991 
L 2994 1541 
L 3488 1541 
L 3488 991 
L 6275 991 
L 6275 553 
L 3488 553 
L 3488 -853 
L 2994 -853 
L 2994 553 
L 144 553 
L 144 991 
z
M 1719 2672 
L 1944 2303 
Q 1200 1866 425 1409 
L 163 1828 
Q 813 2134 1719 2672 
z
M 4856 2678 
Q 5750 2172 6250 1816 
L 5975 1409 
Q 5331 1909 4600 2341 
L 4856 2678 
z
M 5994 3591 
Q 5519 3178 4963 2809 
L 4644 3141 
Q 5244 3534 5638 3928 
L 5994 3591 
z
M 363 3634 
L 681 3941 
Q 1200 3528 1588 3159 
L 1238 2816 
Q 875 3197 363 3634 
z
" transform="scale(0.015625)"/>
       <path id="MicrosoftYaHei-20" transform="scale(0.015625)"/>
       <path id="MicrosoftYaHei-28" d="M 1531 -1100 
Q 478 100 478 1847 
Q 478 3594 1531 4841 
L 2072 4841 
Q 1016 3544 1016 1853 
Q 1016 166 2066 -1100 
L 1531 -1100 
z
" transform="scale(0.015625)"/>
       <path id="MicrosoftYaHei-46" d="M 3119 4284 
L 1250 4284 
L 1250 2666 
L 2981 2666 
L 2981 2116 
L 1250 2116 
L 1250 0 
L 625 0 
L 625 4841 
L 3119 4841 
L 3119 4284 
z
" transform="scale(0.015625)"/>
       <path id="MicrosoftYaHei-50" d="M 1250 1809 
L 1250 0 
L 625 0 
L 625 4841 
L 2000 4841 
Q 2784 4841 3217 4462 
Q 3650 4084 3650 3381 
Q 3650 2669 3144 2226 
Q 2638 1784 1878 1809 
L 1250 1809 
z
M 1250 4291 
L 1250 2359 
L 1828 2359 
Q 2400 2359 2697 2617 
Q 2994 2875 2994 3356 
Q 2994 4291 1888 4291 
L 1250 4291 
z
" transform="scale(0.015625)"/>
       <path id="MicrosoftYaHei-52" d="M 4159 0 
L 3422 0 
L 2619 1344 
Q 2378 1747 2178 1892 
Q 1978 2038 1700 2038 
L 1250 2038 
L 1250 0 
L 625 0 
L 625 4841 
L 2100 4841 
Q 2806 4841 3206 4500 
Q 3606 4159 3606 3547 
Q 3606 2541 2531 2241 
L 2531 2225 
Q 2731 2141 2876 1984 
Q 3022 1828 3253 1450 
L 4159 0 
z
M 1250 4294 
L 1250 2584 
L 1988 2584 
Q 2416 2584 2683 2834 
Q 2950 3084 2950 3491 
Q 2950 3869 2706 4081 
Q 2463 4294 1997 4294 
L 1250 4294 
z
" transform="scale(0.015625)"/>
       <path id="MicrosoftYaHei-29" d="M 78 -1100 
Q 1131 163 1131 1853 
Q 1131 3547 72 4841 
L 616 4841 
Q 1672 3603 1672 1847 
Q 1672 91 616 -1100 
L 78 -1100 
z
" transform="scale(0.015625)"/>
      </defs>
      <use xlink:href="#MicrosoftYaHei-5047"/>
      <use xlink:href="#MicrosoftYaHei-9633" transform="translate(100 0)"/>
      <use xlink:href="#MicrosoftYaHei-6027" transform="translate(200 0)"/>
      <use xlink:href="#MicrosoftYaHei-7387" transform="translate(300 0)"/>
      <use xlink:href="#MicrosoftYaHei-20" transform="translate(400 0)"/>
      <use xlink:href="#MicrosoftYaHei-28" transform="translate(429.589844 0)"/>
      <use xlink:href="#MicrosoftYaHei-46" transform="translate(462.988281 0)"/>
      <use xlink:href="#MicrosoftYaHei-50" transform="translate(516.113281 0)"/>
      <use xlink:href="#MicrosoftYaHei-52" transform="translate(577.294922 0)"/>
      <use xlink:href="#MicrosoftYaHei-29" transform="translate(642.578125 0)"/>
     </g>
    </g>
   </g>
   <g id="matplotlib.axis_2">
    <g id="ytick_1">
     <g id="line2d_7">
      <defs>
       <path id="ma1e508d237" d="M 0 0 
L -3.5 0 
" style="stroke: #333333; stroke-width: 0.8"/>
      </defs>
      <g>
       <use xlink:href="#ma1e508d237" x="74.080938" y="406.810549" style="fill: #333333; stroke: #333333; stroke-width: 0.8"/>
      </g>
     </g>
     <g id="text_8">
      <!-- 0.0 -->
      <g style="fill: #333333" transform="translate(44.463438 413.205549) scale(0.16 -0.16)">
       <use xlink:href="#MicrosoftYaHei-30"/>
       <use xlink:href="#MicrosoftYaHei-2e" transform="translate(58.642578 0)"/>
       <use xlink:href="#MicrosoftYaHei-30" transform="translate(82.714844 0)"/>
      </g>
     </g>
    </g>
    <g id="ytick_2">
     <g id="line2d_8">
      <g>
       <use xlink:href="#ma1e508d237" x="74.080938" y="339.45354" style="fill: #333333; stroke: #333333; stroke-width: 0.8"/>
      </g>
     </g>
     <g id="text_9">
      <!-- 0.2 -->
      <g style="fill: #333333" transform="translate(44.463438 345.84854) scale(0.16 -0.16)">
       <use xlink:href="#MicrosoftYaHei-30"/>
       <use xlink:href="#MicrosoftYaHei-2e" transform="translate(58.642578 0)"/>
       <use xlink:href="#MicrosoftYaHei-32" transform="translate(82.714844 0)"/>
      </g>
     </g>
    </g>
    <g id="ytick_3">
     <g id="line2d_9">
      <g>
       <use xlink:href="#ma1e508d237" x="74.080938" y="272.09653" style="fill: #333333; stroke: #333333; stroke-width: 0.8"/>
      </g>
     </g>
     <g id="text_10">
      <!-- 0.4 -->
      <g style="fill: #333333" transform="translate(44.463438 278.49153) scale(0.16 -0.16)">
       <use xlink:href="#MicrosoftYaHei-30"/>
       <use xlink:href="#MicrosoftYaHei-2e" transform="translate(58.642578 0)"/>
       <use xlink:href="#MicrosoftYaHei-34" transform="translate(82.714844 0)"/>
      </g>
     </g>
    </g>
    <g id="ytick_4">
     <g id="line2d_10">
      <g>
       <use xlink:href="#ma1e508d237" x="74.080938" y="204.739521" style="fill: #333333; stroke: #333333; stroke-width: 0.8"/>
      </g>
     </g>
     <g id="text_11">
      <!-- 0.6 -->
      <g style="fill: #333333" transform="translate(44.463438 211.134521) scale(0.16 -0.16)">
       <use xlink:href="#MicrosoftYaHei-30"/>
       <use xlink:href="#MicrosoftYaHei-2e" transform="translate(58.642578 0)"/>
       <use xlink:href="#MicrosoftYaHei-36" transform="translate(82.714844 0)"/>
      </g>
     </g>
    </g>
    <g id="ytick_5">
     <g id="line2d_11">
      <g>
       <use xlink:href="#ma1e508d237" x="74.080938" y="137.382512" style="fill: #333333; stroke: #333333; stroke-width: 0.8"/>
      </g>
     </g>
     <g id="text_12">
      <!-- 0.8 -->
      <g style="fill: #333333" transform="translate(44.463438 143.777512) scale(0.16 -0.16)">
       <use xlink:href="#MicrosoftYaHei-30"/>
       <use xlink:href="#MicrosoftYaHei-2e" transform="translate(58.642578 0)"/>
       <use xlink:href="#MicrosoftYaHei-38" transform="translate(82.714844 0)"/>
      </g>
     </g>
    </g>
    <g id="ytick_6">
     <g id="line2d_12">
      <g>
       <use xlink:href="#ma1e508d237" x="74.080938" y="70.025502" style="fill: #333333; stroke: #333333; stroke-width: 0.8"/>
      </g>
     </g>
     <g id="text_13">
      <!-- 1.0 -->
      <g style="fill: #333333" transform="translate(44.463438 76.420502) scale(0.16 -0.16)">
       <use xlink:href="#MicrosoftYaHei-31"/>
       <use xlink:href="#MicrosoftYaHei-2e" transform="translate(58.642578 0)"/>
       <use xlink:href="#MicrosoftYaHei-30" transform="translate(82.714844 0)"/>
      </g>
     </g>
    </g>
    <g id="text_14">
     <!-- 真阳性率 (TPR) -->
     <g style="fill: #222222" transform="translate(35.98875 294.584531) rotate(-90) scale(0.18 -0.18)">
      <defs>
       <path id="MicrosoftYaHei-771f" d="M 156 778 
L 1056 778 
L 1056 3978 
L 2894 3978 
L 2894 4428 
L 250 4428 
L 250 4828 
L 2894 4828 
L 2894 5328 
L 3381 5328 
L 3381 4828 
L 6144 4828 
L 6144 4428 
L 3381 4428 
L 3381 3978 
L 5344 3978 
L 5344 778 
L 6263 778 
L 6263 378 
L 156 378 
L 156 778 
z
M 1531 778 
L 4869 778 
L 4869 1209 
L 1531 1209 
L 1531 778 
z
M 4869 3591 
L 1531 3591 
L 1531 3166 
L 4869 3166 
L 4869 3591 
z
M 1531 2372 
L 4869 2372 
L 4869 2797 
L 1531 2797 
L 1531 2372 
z
M 1531 1578 
L 4869 1578 
L 4869 2003 
L 1531 2003 
L 1531 1578 
z
M 3744 -72 
L 3975 316 
Q 4925 28 6169 -416 
L 5944 -859 
Q 4819 -422 3744 -72 
z
M 2369 334 
L 2663 -41 
Q 1656 -503 481 -891 
Q 388 -691 256 -453 
Q 1219 -172 2369 334 
z
" transform="scale(0.015625)"/>
       <path id="MicrosoftYaHei-54" d="M 3550 4284 
L 2153 4284 
L 2153 0 
L 1525 0 
L 1525 4284 
L 134 4284 
L 134 4841 
L 3550 4841 
L 3550 4284 
z
" transform="scale(0.015625)"/>
      </defs>
      <use xlink:href="#MicrosoftYaHei-771f"/>
      <use xlink:href="#MicrosoftYaHei-9633" transform="translate(100 0)"/>
      <use xlink:href="#MicrosoftYaHei-6027" transform="translate(200 0)"/>
      <use xlink:href="#MicrosoftYaHei-7387" transform="translate(300 0)"/>
      <use xlink:href="#MicrosoftYaHei-20" transform="translate(400 0)"/>
      <use xlink:href="#MicrosoftYaHei-28" transform="translate(429.589844 0)"/>
      <use xlink:href="#MicrosoftYaHei-54" transform="translate(462.988281 0)"/>
      <use xlink:href="#MicrosoftYaHei-50" transform="translate(520.3125 0)"/>
      <use xlink:href="#MicrosoftYaHei-52" transform="translate(581.494141 0)"/>
      <use xlink:href="#MicrosoftYaHei-29" transform="translate(646.777344 0)"/>
     </g>
    </g>
   </g>
   <g id="line2d_13">
    <path d="M 81.592476 406.810549 
L 81.592476 70.025502 
L 457.169399 70.025502 
" clip-path="url(#pa7585a2087)" style="fill: none; stroke: #1565c0; stroke-width: 2.5; stroke-linecap: square"/>
   </g>
   <g id="line2d_14">
    <path d="M 81.592476 406.810549 
L 94.803725 388.372098 
L 108.014973 370.314459 
L 121.226222 352.64373 
L 134.43747 335.36635 
L 147.648719 318.489128 
L 160.859967 302.019286 
L 172.183895 288.232323 
L 183.507822 274.755415 
L 194.831749 261.593987 
L 206.155677 248.753797 
L 217.479604 236.240965 
L 228.803531 224.062024 
L 240.127459 212.223959 
L 251.451386 200.73427 
L 262.775313 189.60104 
L 274.099241 178.833011 
L 283.535847 170.145458 
L 292.972453 161.724061 
L 302.409059 153.575264 
L 311.845665 145.70606 
L 321.282271 138.124082 
L 330.718877 130.837705 
L 340.155483 123.856182 
L 349.592089 117.18981 
L 359.028696 110.850146 
L 366.57798 106.022394 
L 374.127265 101.419674 
L 381.67655 97.050533 
L 389.225835 92.92471 
L 396.77512 89.05345 
L 404.324405 85.449951 
L 411.87369 82.130018 
L 419.422975 79.113089 
L 425.084938 77.063872 
L 430.746902 75.212213 
L 436.408866 73.575384 
L 442.070829 72.177079 
L 447.732793 71.053077 
L 451.507435 70.485753 
L 455.282078 70.107312 
L 457.169399 70.025502 
L 457.169399 70.025502 
" clip-path="url(#pa7585a2087)" style="fill: none; stroke: #e65100; stroke-width: 2.5; stroke-linecap: square"/>
   </g>
   <g id="line2d_15">
    <path d="M 81.592476 406.810549 
L 91.029082 390.099289 
L 100.465688 373.813251 
L 109.902294 357.952437 
L 119.3389 342.516846 
L 128.775506 327.506477 
L 138.212113 312.921331 
L 147.648719 298.761408 
L 157.085325 285.026709 
L 166.521931 271.717232 
L 175.958537 258.832977 
L 185.395143 246.373946 
L 194.831749 234.340138 
L 204.268355 222.731553 
L 213.704961 211.54819 
L 221.254246 202.907661 
L 228.803531 194.539274 
L 236.352816 186.44303 
L 243.902101 178.618928 
L 251.451386 171.066969 
L 259.000671 163.787153 
L 266.549956 156.77948 
L 274.099241 150.043949 
L 281.648525 143.580561 
L 289.19781 137.389315 
L 296.747095 131.470212 
L 304.29638 125.823252 
L 311.845665 120.448435 
L 319.39495 115.34576 
L 326.944235 110.515228 
L 334.49352 105.956838 
L 342.042805 101.670591 
L 349.592089 97.656487 
L 357.141374 93.914525 
L 364.690659 90.444706 
L 372.239944 87.24703 
L 379.789229 84.321496 
L 387.338514 81.668106 
L 394.887799 79.286857 
L 402.437084 77.177752 
L 409.986369 75.340789 
L 417.535653 73.775968 
L 425.084938 72.483291 
L 432.634223 71.462756 
L 440.183508 70.714363 
L 447.732793 70.238114 
L 455.282078 70.034007 
L 457.169399 70.025502 
L 457.169399 70.025502 
" clip-path="url(#pa7585a2087)" style="fill: none; stroke: #2e7d32; stroke-width: 2.5; stroke-linecap: square"/>
   </g>
   <g id="line2d_16">
    <path d="M 81.592476 406.810549 
L 106.127652 380.903231 
L 130.662828 355.32869 
L 153.310682 332.034275 
L 175.958537 309.058841 
L 196.71907 288.295977 
L 217.479604 267.837063 
L 238.240137 247.703439 
L 257.11335 229.703372 
L 275.986562 212.014872 
L 292.972453 196.383235 
L 309.958344 181.048125 
L 325.056914 167.688118 
L 340.155483 154.607915 
L 355.254053 141.83675 
L 368.465302 130.944371 
L 381.67655 120.34874 
L 393.000478 111.534449 
L 404.324405 103.004348 
L 413.761011 96.148008 
L 423.197617 89.563629 
L 430.746902 84.532076 
L 438.296187 79.762551 
L 443.95815 76.406583 
L 449.620114 73.313522 
L 453.394757 71.471821 
L 455.282078 70.661702 
L 457.169399 70.025502 
L 457.169399 70.025502 
" clip-path="url(#pa7585a2087)" style="fill: none; stroke: #ad1457; stroke-width: 2.5; stroke-linecap: square"/>
   </g>
   <g id="line2d_17">
    <path d="M 81.592476 406.810549 
L 457.169399 70.025502 
" clip-path="url(#pa7585a2087)" style="fill: none; stroke-dasharray: 4.44,1.92; stroke-dashoffset: 0; stroke: #000000; stroke-opacity: 0.5; stroke-width: 1.2"/>
   </g>
   <g id="patch_3">
    <path d="M 74.080938 413.54625 
L 74.080938 53.18625 
" style="fill: none; stroke: #333333; stroke-width: 0.8; stroke-linejoin: miter; stroke-linecap: square"/>
   </g>
   <g id="patch_4">
    <path d="M 464.680938 413.54625 
L 464.680938 53.18625 
" style="fill: none; stroke: #333333; stroke-width: 0.8; stroke-linejoin: miter; stroke-linecap: square"/>
   </g>
   <g id="patch_5">
    <path d="M 74.080938 413.54625 
L 464.680937 413.54625 
" style="fill: none; stroke: #333333; stroke-width: 0.8; stroke-linejoin: miter; stroke-linecap: square"/>
   </g>
   <g id="patch_6">
    <path d="M 74.080938 53.18625 
L 464.680937 53.18625 
" style="fill: none; stroke: #333333; stroke-width: 0.8; stroke-linejoin: miter; stroke-linecap: square"/>
   </g>
   <g id="text_15">
    <!-- 多分类 ROC 曲线（One-vs-Rest） -->
    <g style="fill: #222222" transform="translate(94.181875 39.18625) scale(0.22 -0.22)">
     <defs>
      <path id="MicrosoftYaHei-Bold-591a" d="M 5650 4922 
L 5650 4278 
Q 4819 3466 3531 2847 
L 4556 2847 
Q 4331 2603 4088 2378 
L 6063 2378 
L 6063 1747 
Q 4269 -466 569 -922 
Q 400 -478 181 -116 
Q 1481 -3 2556 347 
Q 2331 634 2013 972 
Q 1463 703 856 491 
Q 631 884 356 1253 
Q 2306 1778 3525 2841 
Q 2250 2228 531 1809 
Q 350 2272 138 2628 
Q 1206 2797 2138 3103 
Q 1888 3391 1575 3697 
Q 1206 3472 800 3266 
Q 581 3609 244 3972 
Q 1513 4441 2431 5334 
L 3456 5334 
Q 3288 5122 3100 4922 
L 5650 4922 
z
M 2188 4109 
Q 2575 3759 2919 3403 
Q 3663 3697 4444 4222 
L 2325 4222 
Q 2256 4166 2188 4109 
z
M 2663 1322 
Q 3025 978 3319 641 
Q 4244 1066 4931 1678 
L 3213 1678 
Q 2944 1491 2663 1322 
z
" transform="scale(0.015625)"/>
      <path id="MicrosoftYaHei-Bold-5206" d="M 6350 3028 
Q 6088 2703 5750 2228 
Q 5519 2409 5303 2603 
Q 5219 606 5172 190 
Q 5125 -225 4862 -451 
Q 4600 -678 4128 -678 
Q 3484 -678 2913 -659 
Q 2856 -141 2781 284 
Q 3594 216 3956 216 
Q 4172 216 4230 408 
Q 4288 600 4325 1978 
L 2781 1978 
Q 2728 1100 2529 631 
Q 2331 163 1907 -215 
Q 1484 -594 844 -872 
Q 456 -353 194 -78 
Q 750 144 1111 414 
Q 1472 684 1630 989 
Q 1788 1294 1841 1978 
L 950 1978 
L 950 2475 
Q 794 2356 631 2247 
Q 344 2653 63 2953 
Q 1475 3947 2194 5316 
L 3031 4953 
Q 2378 3722 1391 2841 
L 5047 2841 
Q 4088 3766 3463 4903 
L 4238 5303 
Q 5038 3922 6350 3028 
z
" transform="scale(0.015625)"/>
      <path id="MicrosoftYaHei-Bold-7c7b" d="M 331 3953 
L 1781 3953 
Q 1319 4347 838 4728 
L 1306 5247 
Q 1863 4866 2431 4422 
Q 2425 4409 1975 3953 
L 2763 3953 
L 2763 5303 
L 3613 5303 
L 3613 3953 
L 4456 3953 
L 4038 4372 
Q 4513 4753 5106 5259 
L 5663 4728 
Q 5138 4297 4688 3953 
L 6069 3953 
L 6069 3216 
L 3925 3216 
Q 5069 2809 6025 2441 
L 5675 1734 
Q 4844 2122 3613 2653 
L 3613 2141 
L 2763 2141 
L 2763 2722 
Q 2038 2116 813 1747 
Q 644 2122 400 2509 
Q 1588 2747 2256 3216 
L 331 3216 
L 331 3953 
z
M 225 1603 
L 2719 1603 
Q 2744 1772 2750 1966 
L 3606 1966 
Q 3588 1772 3563 1603 
L 6181 1603 
L 6181 841 
L 4013 841 
Q 4788 66 6238 -91 
Q 5863 -603 5681 -891 
Q 4006 -528 3225 734 
Q 2850 -359 694 -872 
Q 388 -391 169 -109 
Q 1844 134 2419 841 
L 225 841 
L 225 1603 
z
" transform="scale(0.015625)"/>
      <path id="MicrosoftYaHei-Bold-20" transform="scale(0.015625)"/>
      <path id="MicrosoftYaHei-Bold-52" d="M 4553 0 
L 3366 0 
L 2606 1259 
Q 2372 1650 2222 1762 
Q 2072 1875 1903 1875 
L 1591 1875 
L 1591 0 
L 559 0 
L 559 4841 
L 2256 4841 
Q 3984 4841 3984 3528 
Q 3984 3034 3695 2681 
Q 3406 2328 2900 2184 
L 2900 2172 
Q 3234 2059 3641 1434 
L 4553 0 
z
M 1591 4056 
L 1591 2663 
L 2097 2663 
Q 2459 2663 2679 2873 
Q 2900 3084 2900 3400 
Q 2900 4056 2116 4056 
L 1591 4056 
z
" transform="scale(0.015625)"/>
      <path id="MicrosoftYaHei-Bold-4f" d="M 256 2356 
Q 256 3494 920 4208 
Q 1584 4922 2675 4922 
Q 3713 4922 4345 4231 
Q 4978 3541 4978 2456 
Q 4978 1325 4320 620 
Q 3663 -84 2597 -84 
Q 1556 -84 906 598 
Q 256 1281 256 2356 
z
M 1341 2413 
Q 1341 1706 1681 1257 
Q 2022 809 2616 809 
Q 3222 809 3559 1239 
Q 3897 1669 3897 2394 
Q 3897 3150 3569 3589 
Q 3241 4028 2644 4028 
Q 2038 4028 1689 3578 
Q 1341 3128 1341 2413 
z
" transform="scale(0.015625)"/>
      <path id="MicrosoftYaHei-Bold-43" d="M 4013 175 
Q 3484 -84 2634 -84 
Q 1541 -84 898 570 
Q 256 1225 256 2316 
Q 256 3463 973 4192 
Q 1691 4922 2825 4922 
Q 3534 4922 4013 4738 
L 4013 3741 
Q 3522 4028 2900 4028 
Q 2191 4028 1766 3575 
Q 1341 3122 1341 2391 
Q 1341 1678 1744 1243 
Q 2147 809 2834 809 
Q 3481 809 4013 1122 
L 4013 175 
z
" transform="scale(0.015625)"/>
      <path id="MicrosoftYaHei-Bold-66f2" d="M 413 -822 
L 413 4466 
L 1988 4466 
L 1988 5328 
L 2825 5328 
L 2825 4466 
L 3575 4466 
L 3575 5328 
L 4413 5328 
L 4413 4466 
L 5988 4466 
L 5988 -822 
L 5163 -822 
L 5163 -428 
L 1238 -428 
L 1238 -822 
L 413 -822 
z
M 5163 3647 
L 4413 3647 
L 4413 2453 
L 5163 2453 
L 5163 3647 
z
M 1238 2453 
L 1988 2453 
L 1988 3647 
L 1238 3647 
L 1238 2453 
z
M 2825 2453 
L 3575 2453 
L 3575 3647 
L 2825 3647 
L 2825 2453 
z
M 1238 391 
L 1988 391 
L 1988 1634 
L 1238 1634 
L 1238 391 
z
M 4413 391 
L 5163 391 
L 5163 1634 
L 4413 1634 
L 4413 391 
z
M 2825 391 
L 3575 391 
L 3575 1634 
L 2825 1634 
L 2825 391 
z
" transform="scale(0.015625)"/>
      <path id="MicrosoftYaHei-Bold-7ebf" d="M 225 -528 
L 63 347 
Q 1188 491 2369 678 
Q 2353 481 2350 256 
Q 3069 481 3691 806 
Q 3550 1250 3466 1859 
L 2413 1734 
L 2306 2491 
L 3384 2619 
L 3347 3244 
L 2525 3159 
L 2488 3494 
Q 1859 2456 1356 1778 
Q 1919 1859 2294 1928 
Q 2263 1672 2231 1147 
Q 888 972 431 847 
L 200 1547 
Q 597 1922 1075 2641 
Q 738 2613 294 2566 
L 63 3278 
Q 581 3916 1194 5322 
L 1988 5009 
Q 1438 4034 1000 3353 
Q 1234 3356 1531 3372 
Q 1700 3663 1881 3991 
L 2466 3716 
L 2444 3922 
L 3303 4006 
L 3250 5303 
L 4094 5303 
Q 4103 4669 4128 4088 
L 5219 4194 
Q 4844 4469 4350 4778 
L 4756 5316 
Q 5263 5041 5769 4716 
L 5388 4213 
L 5988 4272 
L 6063 3522 
L 4169 3328 
L 4216 2716 
L 6156 2947 
L 6238 2197 
L 5484 2106 
L 6038 1666 
Q 5431 1003 4731 509 
Q 4991 100 5203 100 
Q 5316 100 5387 251 
Q 5459 403 5581 1047 
Q 6013 822 6313 684 
Q 6072 -288 5839 -564 
Q 5606 -841 5300 -841 
Q 4503 -841 4006 56 
Q 3259 -353 2419 -597 
Q 2325 -400 2200 -178 
Q 1084 -353 225 -528 
z
M 5413 2097 
L 4309 1963 
Q 4369 1603 4447 1266 
Q 4972 1638 5413 2097 
z
" transform="scale(0.015625)"/>
      <path id="MicrosoftYaHei-Bold-ff08" d="M 5197 -1088 
Q 4056 184 4056 1881 
Q 4056 3616 5203 4838 
L 6034 4838 
Q 4922 3503 4922 1888 
Q 4922 266 6028 -1088 
L 5197 -1088 
z
" transform="scale(0.015625)"/>
      <path id="MicrosoftYaHei-Bold-6e" d="M 3744 0 
L 2741 0 
L 2741 1928 
Q 2741 2766 2138 2766 
Q 1850 2766 1659 2542 
Q 1469 2319 1469 1972 
L 1469 0 
L 459 0 
L 459 3456 
L 1469 3456 
L 1469 2906 
L 1481 2906 
Q 1859 3541 2594 3541 
Q 3744 3541 3744 2116 
L 3744 0 
z
" transform="scale(0.015625)"/>
      <path id="MicrosoftYaHei-Bold-65" d="M 3528 1444 
L 1253 1444 
Q 1306 641 2222 641 
Q 2794 641 3231 922 
L 3231 181 
Q 2759 -84 1994 -84 
Q 1169 -84 711 381 
Q 253 847 253 1678 
Q 253 2506 740 3023 
Q 1228 3541 1966 3541 
Q 2700 3541 3114 3095 
Q 3528 2650 3528 1872 
L 3528 1444 
z
M 2588 2075 
Q 2588 2850 1959 2850 
Q 1700 2850 1500 2637 
Q 1300 2425 1250 2075 
L 2588 2075 
z
" transform="scale(0.015625)"/>
      <path id="MicrosoftYaHei-Bold-2d" d="M 2328 1497 
L 481 1497 
L 481 2209 
L 2328 2209 
L 2328 1497 
z
" transform="scale(0.015625)"/>
      <path id="MicrosoftYaHei-Bold-76" d="M 3688 3456 
L 2391 0 
L 1250 0 
L 16 3456 
L 1097 3456 
L 1731 1281 
Q 1834 925 1847 684 
L 1863 684 
Q 1888 931 1984 1263 
L 2631 3456 
L 3688 3456 
z
" transform="scale(0.015625)"/>
      <path id="MicrosoftYaHei-Bold-73" d="M 369 928 
Q 888 613 1384 613 
Q 2009 613 2009 947 
Q 2009 1184 1494 1344 
Q 850 1544 609 1789 
Q 369 2034 369 2453 
Q 369 2963 781 3252 
Q 1194 3541 1863 3541 
Q 2338 3541 2778 3400 
L 2778 2606 
Q 2375 2844 1891 2844 
Q 1650 2844 1503 2758 
Q 1356 2672 1356 2531 
Q 1356 2294 1794 2147 
Q 2263 1991 2498 1862 
Q 2734 1734 2857 1525 
Q 2981 1316 2981 1041 
Q 2981 506 2553 211 
Q 2125 -84 1409 -84 
Q 847 -84 369 94 
L 369 928 
z
" transform="scale(0.015625)"/>
      <path id="MicrosoftYaHei-Bold-74" d="M 2494 41 
Q 2266 -84 1803 -84 
Q 703 -84 703 1072 
L 703 2703 
L 134 2703 
L 134 3456 
L 703 3456 
L 703 4216 
L 1706 4503 
L 1706 3456 
L 2494 3456 
L 2494 2703 
L 1706 2703 
L 1706 1247 
Q 1706 694 2144 694 
Q 2313 694 2494 794 
L 2494 41 
z
" transform="scale(0.015625)"/>
      <path id="MicrosoftYaHei-Bold-ff09" d="M 1191 -1088 
L 359 -1088 
Q 1472 238 1472 1863 
Q 1472 3478 366 4838 
L 1197 4838 
Q 2338 3572 2338 1863 
Q 2338 125 1191 -1088 
z
" transform="scale(0.015625)"/>
     </defs>
     <use xlink:href="#MicrosoftYaHei-Bold-591a"/>
     <use xlink:href="#MicrosoftYaHei-Bold-5206" transform="translate(100 0)"/>
     <use xlink:href="#MicrosoftYaHei-Bold-7c7b" transform="translate(200 0)"/>
     <use xlink:href="#MicrosoftYaHei-Bold-20" transform="translate(300 0)"/>
     <use xlink:href="#MicrosoftYaHei-Bold-52" transform="translate(329.785156 0)"/>
     <use xlink:href="#MicrosoftYaHei-Bold-4f" transform="translate(398.484375 0)"/>
     <use xlink:href="#MicrosoftYaHei-Bold-43" transform="translate(480.320312 0)"/>
     <use xlink:href="#MicrosoftYaHei-Bold-20" transform="translate(547.654297 0)"/>
     <use xlink:href="#MicrosoftYaHei-Bold-66f2" transform="translate(577.439453 0)"/>
     <use xlink:href="#MicrosoftYaHei-Bold-7ebf" transform="translate(677.439453 0)"/>
     <use xlink:href="#MicrosoftYaHei-Bold-ff08" transform="translate(777.439453 0)"/>
     <use xlink:href="#MicrosoftYaHei-Bold-4f" transform="translate(877.439453 0)"/>
     <use xlink:href="#MicrosoftYaHei-Bold-6e" transform="translate(959.275391 0)"/>
     <use xlink:href="#MicrosoftYaHei-Bold-65" transform="translate(1024.070312 0)"/>
     <use xlink:href="#MicrosoftYaHei-Bold-2d" transform="translate(1082.273438 0)"/>
     <use xlink:href="#MicrosoftYaHei-Bold-76" transform="translate(1125.925781 0)"/>
     <use xlink:href="#MicrosoftYaHei-Bold-73" transform="translate(1183.640625 0)"/>
     <use xlink:href="#MicrosoftYaHei-Bold-2d" transform="translate(1233.005859 0)"/>
     <use xlink:href="#MicrosoftYaHei-Bold-52" transform="translate(1276.658203 0)"/>
     <use xlink:href="#MicrosoftYaHei-Bold-65" transform="translate(1343.732422 0)"/>
     <use xlink:href="#MicrosoftYaHei-Bold-73" transform="translate(1401.935547 0)"/>
     <use xlink:href="#MicrosoftYaHei-Bold-74" transform="translate(1451.300781 0)"/>
     <use xlink:href="#MicrosoftYaHei-Bold-ff09" transform="translate(1492.707031 0)"/>
    </g>
   </g>
   <g id="legend_1">
    <g id="patch_7">
     <path d="M 232.063438 405.54625 
L 453.480938 405.54625 
Q 456.680938 405.54625 456.680938 402.34625 
L 456.680938 280.10875 
Q 456.680938 276.90875 453.480938 276.90875 
L 232.063438 276.90875 
Q 228.863438 276.90875 228.863438 280.10875 
L 228.863438 402.34625 
Q 228.863438 405.54625 232.063438 405.54625 
z
" style="fill: #f8f9fa; opacity: 0.9; stroke: #cccccc; stroke-linejoin: miter"/>
    </g>
    <g id="line2d_18">
     <path d="M 235.263438 290.49875 
L 251.263438 290.49875 
L 267.263438 290.49875 
" style="fill: none; stroke: #1565c0; stroke-width: 2.5; stroke-linecap: square"/>
    </g>
    <g id="text_16">
     <!-- BPSK (AUC=1.0000) -->
     <g style="fill: #222222" transform="translate(280.063438 296.09875) scale(0.16 -0.16)">
      <defs>
       <path id="MicrosoftYaHei-42" d="M 625 0 
L 625 4841 
L 2047 4841 
Q 2684 4841 3065 4536 
Q 3447 4231 3447 3728 
Q 3447 3328 3220 3022 
Q 2994 2716 2597 2588 
L 2597 2575 
Q 3091 2519 3386 2201 
Q 3681 1884 3681 1397 
Q 3681 772 3232 386 
Q 2784 0 2084 0 
L 625 0 
z
M 1250 4294 
L 1250 2778 
L 1819 2778 
Q 2272 2778 2530 2998 
Q 2788 3219 2788 3609 
Q 2788 4294 1875 4294 
L 1250 4294 
z
M 1250 2234 
L 1250 547 
L 2000 547 
Q 2491 547 2758 773 
Q 3025 1000 3025 1403 
Q 3025 2234 1897 2234 
L 1250 2234 
z
" transform="scale(0.015625)"/>
       <path id="MicrosoftYaHei-53" d="M 400 909 
Q 622 716 994 591 
Q 1366 466 1700 466 
Q 2719 466 2719 1191 
Q 2719 1394 2609 1556 
Q 2500 1719 2309 1844 
Q 2119 1969 1594 2228 
Q 866 2591 634 2902 
Q 403 3213 403 3613 
Q 403 4216 887 4569 
Q 1372 4922 2109 4922 
Q 2831 4922 3169 4747 
L 3169 4066 
Q 2731 4369 2063 4369 
Q 1619 4369 1339 4183 
Q 1059 3997 1059 3666 
Q 1059 3372 1253 3187 
Q 1447 3003 2094 2684 
Q 2806 2344 3090 2003 
Q 3375 1663 3375 1238 
Q 3375 600 2912 259 
Q 2450 -81 1628 -81 
Q 1341 -81 958 -1 
Q 575 78 400 197 
L 400 909 
z
" transform="scale(0.015625)"/>
       <path id="MicrosoftYaHei-4b" d="M 4069 0 
L 3213 0 
L 1394 2200 
Q 1300 2316 1266 2381 
L 1250 2381 
L 1250 0 
L 625 0 
L 625 4841 
L 1250 4841 
L 1250 2563 
L 1266 2563 
Q 1319 2647 1394 2741 
L 3150 4841 
L 3922 4841 
L 1891 2519 
L 4069 0 
z
" transform="scale(0.015625)"/>
       <path id="MicrosoftYaHei-41" d="M 4428 0 
L 3738 0 
L 3244 1325 
L 1228 1325 
L 763 0 
L 72 0 
L 1916 4841 
L 2584 4841 
L 4428 0 
z
M 3050 1872 
L 2319 3884 
Q 2284 3981 2244 4222 
L 2228 4222 
Q 2194 4003 2150 3884 
L 1425 1872 
L 3050 1872 
z
" transform="scale(0.015625)"/>
       <path id="MicrosoftYaHei-55" d="M 4213 1972 
Q 4213 -81 2350 -81 
Q 566 -81 566 1900 
L 566 4841 
L 1191 4841 
L 1191 1928 
Q 1191 475 2409 475 
Q 3588 475 3588 1881 
L 3588 4841 
L 4213 4841 
L 4213 1972 
z
" transform="scale(0.015625)"/>
       <path id="MicrosoftYaHei-43" d="M 3938 200 
Q 3403 -81 2597 -81 
Q 1556 -81 934 580 
Q 313 1241 313 2328 
Q 313 3497 1013 4209 
Q 1713 4922 2791 4922 
Q 3484 4922 3938 4725 
L 3938 4072 
Q 3419 4359 2797 4359 
Q 1988 4359 1478 3820 
Q 969 3281 969 2366 
Q 969 1497 1444 986 
Q 1919 475 2688 475 
Q 3406 475 3938 800 
L 3938 200 
z
" transform="scale(0.015625)"/>
       <path id="MicrosoftYaHei-3d" d="M 3972 2497 
L 788 2497 
L 788 2969 
L 3972 2969 
L 3972 2497 
z
M 3972 1053 
L 788 1053 
L 788 1525 
L 3972 1525 
L 3972 1053 
z
" transform="scale(0.015625)"/>
      </defs>
      <use xlink:href="#MicrosoftYaHei-42"/>
      <use xlink:href="#MicrosoftYaHei-50" transform="translate(62.744141 0)"/>
      <use xlink:href="#MicrosoftYaHei-53" transform="translate(123.925781 0)"/>
      <use xlink:href="#MicrosoftYaHei-4b" transform="translate(181.640625 0)"/>
      <use xlink:href="#MicrosoftYaHei-20" transform="translate(245.117188 0)"/>
      <use xlink:href="#MicrosoftYaHei-28" transform="translate(274.707031 0)"/>
      <use xlink:href="#MicrosoftYaHei-41" transform="translate(308.105469 0)"/>
      <use xlink:href="#MicrosoftYaHei-55" transform="translate(377.091797 0)"/>
      <use xlink:href="#MicrosoftYaHei-43" transform="translate(451.75 0)"/>
      <use xlink:href="#MicrosoftYaHei-3d" transform="translate(518.644531 0)"/>
      <use xlink:href="#MicrosoftYaHei-31" transform="translate(592.814453 0)"/>
      <use xlink:href="#MicrosoftYaHei-2e" transform="translate(651.457031 0)"/>
      <use xlink:href="#MicrosoftYaHei-30" transform="translate(675.529297 0)"/>
      <use xlink:href="#MicrosoftYaHei-30" transform="translate(734.171875 0)"/>
      <use xlink:href="#MicrosoftYaHei-30" transform="translate(792.814453 0)"/>
      <use xlink:href="#MicrosoftYaHei-30" transform="translate(851.457031 0)"/>
      <use xlink:href="#MicrosoftYaHei-29" transform="translate(910.099609 0)"/>
     </g>
    </g>
    <g id="line2d_19">
     <path d="M 235.263438 315.26625 
L 251.263438 315.26625 
L 267.263438 315.26625 
" style="fill: none; stroke: #e65100; stroke-width: 2.5; stroke-linecap: square"/>
    </g>
    <g id="text_17">
     <!-- QPSK (AUC=0.9682) -->
     <g style="fill: #222222" transform="translate(280.063438 320.86625) scale(0.16 -0.16)">
      <defs>
       <path id="MicrosoftYaHei-51" d="M 313 2363 
Q 313 3534 947 4228 
Q 1581 4922 2666 4922 
Q 3675 4922 4290 4244 
Q 4906 3566 4906 2478 
Q 4906 1300 4275 609 
Q 4125 447 3953 322 
L 5313 -653 
L 4284 -653 
L 3366 28 
Q 3009 -81 2588 -81 
Q 1556 -81 934 597 
Q 313 1275 313 2363 
z
M 969 2413 
Q 969 1534 1417 1004 
Q 1866 475 2588 475 
Q 3363 475 3805 983 
Q 4247 1491 4247 2403 
Q 4247 3341 3814 3850 
Q 3381 4359 2628 4359 
Q 1888 4359 1428 3821 
Q 969 3284 969 2413 
z
" transform="scale(0.015625)"/>
       <path id="MicrosoftYaHei-39" d="M 578 656 
Q 978 425 1441 425 
Q 2091 425 2448 937 
Q 2806 1450 2806 2394 
Q 2800 2388 2794 2394 
Q 2475 1788 1722 1788 
Q 1113 1788 713 2206 
Q 313 2625 313 3294 
Q 313 4006 750 4464 
Q 1188 4922 1884 4922 
Q 2606 4922 3012 4355 
Q 3419 3788 3419 2703 
Q 3419 1363 2894 641 
Q 2369 -81 1441 -81 
Q 931 -81 578 84 
L 578 656 
z
M 931 3372 
Q 931 2884 1181 2598 
Q 1431 2313 1872 2313 
Q 2253 2313 2512 2573 
Q 2772 2834 2772 3206 
Q 2772 3728 2514 4070 
Q 2256 4413 1834 4413 
Q 1444 4413 1187 4116 
Q 931 3819 931 3372 
z
" transform="scale(0.015625)"/>
      </defs>
      <use xlink:href="#MicrosoftYaHei-51"/>
      <use xlink:href="#MicrosoftYaHei-50" transform="translate(81.494141 0)"/>
      <use xlink:href="#MicrosoftYaHei-53" transform="translate(142.675781 0)"/>
      <use xlink:href="#MicrosoftYaHei-4b" transform="translate(200.390625 0)"/>
      <use xlink:href="#MicrosoftYaHei-20" transform="translate(263.867188 0)"/>
      <use xlink:href="#MicrosoftYaHei-28" transform="translate(293.457031 0)"/>
      <use xlink:href="#MicrosoftYaHei-41" transform="translate(326.855469 0)"/>
      <use xlink:href="#MicrosoftYaHei-55" transform="translate(395.841797 0)"/>
      <use xlink:href="#MicrosoftYaHei-43" transform="translate(470.5 0)"/>
      <use xlink:href="#MicrosoftYaHei-3d" transform="translate(537.394531 0)"/>
      <use xlink:href="#MicrosoftYaHei-30" transform="translate(611.564453 0)"/>
      <use xlink:href="#MicrosoftYaHei-2e" transform="translate(670.207031 0)"/>
      <use xlink:href="#MicrosoftYaHei-39" transform="translate(694.279297 0)"/>
      <use xlink:href="#MicrosoftYaHei-36" transform="translate(752.921875 0)"/>
      <use xlink:href="#MicrosoftYaHei-38" transform="translate(811.564453 0)"/>
      <use xlink:href="#MicrosoftYaHei-32" transform="translate(870.207031 0)"/>
      <use xlink:href="#MicrosoftYaHei-29" transform="translate(928.849609 0)"/>
     </g>
    </g>
    <g id="line2d_20">
     <path d="M 235.263438 340.03375 
L 251.263438 340.03375 
L 267.263438 340.03375 
" style="fill: none; stroke: #2e7d32; stroke-width: 2.5; stroke-linecap: square"/>
    </g>
    <g id="text_18">
     <!-- 8PSK (AUC=0.9977) -->
     <g style="fill: #222222" transform="translate(280.063438 345.63375) scale(0.16 -0.16)">
      <defs>
       <path id="MicrosoftYaHei-37" d="M 3422 4463 
Q 2659 3131 2223 1998 
Q 1788 866 1684 0 
L 1047 0 
Q 1163 853 1594 1947 
Q 2025 3041 2747 4300 
L 347 4300 
L 347 4841 
L 3422 4841 
L 3422 4463 
z
" transform="scale(0.015625)"/>
      </defs>
      <use xlink:href="#MicrosoftYaHei-38"/>
      <use xlink:href="#MicrosoftYaHei-50" transform="translate(58.642578 0)"/>
      <use xlink:href="#MicrosoftYaHei-53" transform="translate(119.824219 0)"/>
      <use xlink:href="#MicrosoftYaHei-4b" transform="translate(177.539062 0)"/>
      <use xlink:href="#MicrosoftYaHei-20" transform="translate(241.015625 0)"/>
      <use xlink:href="#MicrosoftYaHei-28" transform="translate(270.605469 0)"/>
      <use xlink:href="#MicrosoftYaHei-41" transform="translate(304.003906 0)"/>
      <use xlink:href="#MicrosoftYaHei-55" transform="translate(372.990234 0)"/>
      <use xlink:href="#MicrosoftYaHei-43" transform="translate(447.648438 0)"/>
      <use xlink:href="#MicrosoftYaHei-3d" transform="translate(514.542969 0)"/>
      <use xlink:href="#MicrosoftYaHei-30" transform="translate(588.712891 0)"/>
      <use xlink:href="#MicrosoftYaHei-2e" transform="translate(647.355469 0)"/>
      <use xlink:href="#MicrosoftYaHei-39" transform="translate(671.427734 0)"/>
      <use xlink:href="#MicrosoftYaHei-39" transform="translate(730.070312 0)"/>
      <use xlink:href="#MicrosoftYaHei-37" transform="translate(788.712891 0)"/>
      <use xlink:href="#MicrosoftYaHei-37" transform="translate(847.355469 0)"/>
      <use xlink:href="#MicrosoftYaHei-29" transform="translate(905.998047 0)"/>
     </g>
    </g>
    <g id="line2d_21">
     <path d="M 235.263438 364.80125 
L 251.263438 364.80125 
L 267.263438 364.80125 
" style="fill: none; stroke: #ad1457; stroke-width: 2.5; stroke-linecap: square"/>
    </g>
    <g id="text_19">
     <!-- 16QAM (AUC=0.9578) -->
     <g style="fill: #222222" transform="translate(280.063438 370.40125) scale(0.16 -0.16)">
      <defs>
       <path id="MicrosoftYaHei-4d" d="M 5003 0 
L 5003 3206 
Q 5003 3603 5050 4159 
L 5034 4159 
Q 4953 3809 4891 3672 
L 3294 0 
L 2947 0 
L 1353 3644 
Q 1297 3769 1209 4159 
L 1191 4159 
Q 1222 3822 1222 3178 
L 1222 0 
L 625 0 
L 625 4841 
L 1472 4841 
L 2900 1522 
Q 3063 1141 3116 928 
L 3138 928 
Q 3300 1375 3366 1534 
L 4819 4841 
L 5625 4841 
L 5625 0 
L 5003 0 
z
" transform="scale(0.015625)"/>
       <path id="MicrosoftYaHei-35" d="M 3294 1494 
Q 3294 784 2823 350 
Q 2353 -84 1559 -84 
Q 878 -84 544 119 
L 544 744 
Q 1034 425 1544 425 
Q 2050 425 2361 704 
Q 2672 984 2672 1447 
Q 2672 1909 2348 2167 
Q 2025 2425 1434 2425 
Q 978 2425 613 2384 
L 791 4841 
L 3053 4841 
L 3053 4303 
L 1306 4303 
L 1206 2931 
L 1647 2950 
Q 2416 2950 2855 2567 
Q 3294 2184 3294 1494 
z
" transform="scale(0.015625)"/>
      </defs>
      <use xlink:href="#MicrosoftYaHei-31"/>
      <use xlink:href="#MicrosoftYaHei-36" transform="translate(58.642578 0)"/>
      <use xlink:href="#MicrosoftYaHei-51" transform="translate(117.285156 0)"/>
      <use xlink:href="#MicrosoftYaHei-41" transform="translate(197.404297 0)"/>
      <use xlink:href="#MicrosoftYaHei-4d" transform="translate(267.765625 0)"/>
      <use xlink:href="#MicrosoftYaHei-20" transform="translate(365.470703 0)"/>
      <use xlink:href="#MicrosoftYaHei-28" transform="translate(395.060547 0)"/>
      <use xlink:href="#MicrosoftYaHei-41" transform="translate(428.458984 0)"/>
      <use xlink:href="#MicrosoftYaHei-55" transform="translate(497.445312 0)"/>
      <use xlink:href="#MicrosoftYaHei-43" transform="translate(572.103516 0)"/>
      <use xlink:href="#MicrosoftYaHei-3d" transform="translate(638.998047 0)"/>
      <use xlink:href="#MicrosoftYaHei-30" transform="translate(713.167969 0)"/>
      <use xlink:href="#MicrosoftYaHei-2e" transform="translate(771.810547 0)"/>
      <use xlink:href="#MicrosoftYaHei-39" transform="translate(795.882812 0)"/>
      <use xlink:href="#MicrosoftYaHei-35" transform="translate(854.525391 0)"/>
      <use xlink:href="#MicrosoftYaHei-37" transform="translate(913.167969 0)"/>
      <use xlink:href="#MicrosoftYaHei-38" transform="translate(971.810547 0)"/>
      <use xlink:href="#MicrosoftYaHei-29" transform="translate(1030.453125 0)"/>
     </g>
    </g>
    <g id="line2d_22">
     <path d="M 235.263438 389.56875 
L 251.263438 389.56875 
L 267.263438 389.56875 
" style="fill: none; stroke-dasharray: 4.44,1.92; stroke-dashoffset: 0; stroke: #000000; stroke-opacity: 0.5; stroke-width: 1.2"/>
    </g>
    <g id="text_20">
     <!-- 随机猜测 -->
     <g style="fill: #222222" transform="translate(280.063438 395.16875) scale(0.16 -0.16)">
      <defs>
       <path id="MicrosoftYaHei-968f" d="M 3256 4641 
L 4128 4641 
Q 4247 4963 4331 5291 
L 4756 5172 
Q 4663 4897 4563 4641 
L 6181 4641 
L 6181 4228 
L 4397 4228 
Q 4266 3916 4122 3628 
L 5794 3628 
L 5794 791 
Q 5794 134 5156 134 
L 4569 134 
Q 4563 178 4481 597 
Q 4838 578 5056 578 
Q 5369 578 5369 891 
L 5369 1328 
L 4113 1328 
L 4113 122 
L 3688 122 
L 3688 2841 
Q 3459 2475 3213 2153 
Q 3119 2397 3019 2597 
Q 3600 3394 3963 4228 
L 3256 4228 
L 3256 4641 
z
M 2081 1809 
Q 2225 666 1531 509 
Q 1325 466 969 503 
Q 925 697 844 991 
Q 1163 916 1375 947 
Q 1756 1009 1625 1809 
Q 1531 2241 1075 2772 
Q 1325 3578 1563 4459 
L 831 4459 
L 831 -809 
L 388 -809 
L 388 4909 
L 2025 4909 
L 2025 4459 
Q 1788 3647 1550 2853 
Q 1975 2359 2081 1809 
z
M 3969 -172 
Q 4688 -203 6244 -153 
Q 6144 -409 6063 -647 
Q 4763 -672 3956 -622 
Q 3069 -584 2600 78 
Q 2275 -366 1988 -834 
L 1681 -447 
Q 1891 -131 2444 572 
L 2444 2709 
L 1938 2709 
L 1938 3134 
L 2881 3134 
L 2881 403 
Q 3263 -156 3969 -172 
z
M 4113 1716 
L 5369 1716 
L 5369 2278 
L 4113 2278 
L 4113 1716 
z
M 5369 3228 
L 4113 3228 
L 4113 2666 
L 5369 2666 
L 5369 3228 
z
M 2575 5253 
Q 2881 4491 3044 3959 
Q 2794 3878 2606 3797 
Q 2450 4378 2181 5116 
L 2575 5253 
z
" transform="scale(0.015625)"/>
       <path id="MicrosoftYaHei-673a" d="M 3375 4434 
L 3375 2366 
Q 3375 128 2256 -878 
Q 2081 -666 1888 -453 
Q 2875 416 2875 2253 
L 2875 4909 
L 5200 4909 
L 5200 209 
Q 5200 -103 5419 -103 
L 5563 -103 
Q 5763 -103 5819 247 
Q 5881 728 5906 1284 
Q 6125 1178 6381 1084 
Q 6325 466 6269 72 
Q 6169 -591 5631 -591 
L 5300 -591 
Q 4700 -591 4700 122 
L 4700 4434 
L 3375 4434 
z
M 81 1403 
Q 781 2447 1078 3653 
L 144 3653 
L 144 4078 
L 1119 4078 
L 1119 5309 
L 1569 5309 
L 1569 4078 
L 2444 4078 
L 2444 3653 
L 1569 3653 
L 1569 2616 
L 1819 2866 
Q 2300 2428 2575 2153 
L 2238 1809 
Q 1853 2234 1569 2516 
L 1569 -784 
L 1119 -784 
L 1119 2566 
Q 784 1506 288 853 
Q 188 1134 81 1403 
z
" transform="scale(0.015625)"/>
       <path id="MicrosoftYaHei-731c" d="M 3075 -791 
L 2625 -791 
L 2625 2347 
L 5850 2347 
L 5850 -41 
Q 5850 -716 5188 -734 
Q 4831 -747 4219 -734 
Q 4188 -503 4125 -259 
Q 4688 -297 5025 -297 
Q 5400 -297 5400 22 
L 5400 322 
L 3075 322 
L 3075 -791 
z
M 2200 3141 
L 4025 3141 
L 4025 3591 
L 2500 3591 
L 2500 3966 
L 4025 3966 
L 4025 4403 
L 2344 4403 
L 2344 4791 
L 4025 4791 
L 4025 5353 
L 4488 5353 
L 4488 4791 
L 6213 4791 
L 6213 4403 
L 4488 4403 
L 4488 3966 
L 6000 3966 
L 6000 3591 
L 4488 3591 
L 4488 3141 
L 6325 3141 
L 6325 2753 
L 2200 2753 
L 2200 3141 
z
M 94 1334 
Q 903 1938 1416 2728 
Q 1338 3166 1172 3522 
Q 813 3138 431 2853 
Q 325 3003 119 3197 
Q 566 3513 953 3944 
Q 659 4431 213 4859 
L 575 5116 
Q 978 4738 1259 4322 
Q 1516 4659 1744 5059 
L 2131 4809 
Q 1828 4313 1503 3906 
Q 2025 2941 2013 884 
Q 2019 -622 1019 -622 
Q 738 -622 306 -597 
Q 281 -334 225 -59 
Q 631 -134 956 -134 
Q 1550 -134 1556 872 
Q 1559 1581 1503 2134 
Q 1044 1500 419 984 
Q 306 1134 94 1334 
z
M 5400 1959 
L 3075 1959 
L 3075 1516 
L 5400 1516 
L 5400 1959 
z
M 3075 697 
L 5400 697 
L 5400 1141 
L 3075 1141 
L 3075 697 
z
" transform="scale(0.015625)"/>
       <path id="MicrosoftYaHei-6d4b" d="M 875 1753 
Q 1175 1597 1369 1522 
Q 950 -41 763 -784 
L 250 -547 
Q 619 497 875 1753 
z
M 638 5166 
Q 1019 4847 1588 4303 
Q 1381 4103 1213 3928 
Q 756 4434 313 4853 
L 638 5166 
z
M 356 3559 
Q 881 3134 1350 2716 
Q 1188 2547 988 2322 
Q 425 2878 50 3216 
L 356 3559 
z
M 5575 5284 
L 6031 5284 
L 6031 -34 
Q 6031 -753 5338 -753 
Q 5038 -753 4625 -741 
Q 4600 -509 4538 -228 
Q 4938 -272 5219 -272 
Q 5575 -272 5575 84 
L 5575 5284 
z
M 5038 634 
L 4600 634 
L 4600 4778 
L 5038 4778 
L 5038 634 
z
M 1706 4941 
L 4063 4941 
L 4063 991 
L 3613 991 
L 3613 4503 
L 2156 4503 
L 2156 991 
L 1706 991 
L 1706 4941 
z
M 2681 3966 
L 3138 3966 
L 3138 2416 
Q 3138 1466 2963 891 
Q 3775 266 4375 -234 
L 4038 -616 
Q 3538 -141 2800 472 
Q 2413 -297 1406 -884 
Q 1269 -684 1100 -484 
Q 2031 53 2375 709 
Q 2681 1278 2681 2403 
L 2681 3966 
z
" transform="scale(0.015625)"/>
      </defs>
      <use xlink:href="#MicrosoftYaHei-968f"/>
      <use xlink:href="#MicrosoftYaHei-673a" transform="translate(100 0)"/>
      <use xlink:href="#MicrosoftYaHei-731c" transform="translate(200 0)"/>
      <use xlink:href="#MicrosoftYaHei-6d4b" transform="translate(300 0)"/>
     </g>
    </g>
   </g>
  </g>
 </g>
 <defs>
  <clipPath id="pa7585a2087">
   <rect x="74.080938" y="53.18625" width="390.6" height="360.36"/>
  </clipPath>
 </defs>
</svg>
